<?xml version="1.0" encoding="UTF-8"?>
<svg width="100mm" height="100mm" version="1.1" viewBox="0 0 100 100" xml:space="preserve" xmlns="http://www.w3.org/2000/svg"><g fill="#666"><path d="m22.679 0c-1.2942 0-2.3415 1.0493-2.3415 2.342v8.6279h-0.77773c-4.7344 0-8.5897 3.8754-8.5897 8.6098v0.75758h-8.6279c-1.2942 0-2.342 1.048-2.342 2.3415 0 1.2927 1.0477 2.342 2.342 2.342h8.6279v3.1223h-8.6279c-1.2942 0-2.342 1.0493-2.342 2.342 0 1.2935 1.0477 2.342 2.342 2.342h8.6279v3.1223h-8.6279c-1.2942 0-2.342 1.0485-2.342 2.342 0 1.2927 1.0477 2.3415 2.342 2.3415h8.6279v3.1223h-8.6279c-1.2942 0-2.342 1.0485-2.342 2.342 0 1.2927 1.0477 2.342 2.342 2.342h8.6279v3.1223h-8.6279c-1.2942 0-2.342 1.0493-2.342 2.342 0 1.2935 1.0477 2.3415 2.342 2.3415h8.6279v3.1228h-8.6279c-1.2942 0-2.342 1.048-2.342 2.3415 0 1.2935 1.0477 2.342 2.342 2.342h8.6279v3.1223h-8.6279c-1.2942 0-2.342 1.0493-2.342 2.342 0 1.2935 1.0477 2.342 2.342 2.342h8.6279v3.1223h-8.6279c-1.2942 0-2.342 1.0485-2.342 2.342 0 1.2927 1.0477 2.3415 2.342 2.3415h8.6279v0.80254c0 4.7351 3.8553 8.5649 8.5897 8.5649h0.77773v8.6279c0 1.2927 1.0472 2.342 2.3415 2.342 1.2927 0 2.342-1.0493 2.342-2.342v-8.6279h3.1223v8.6279c0 1.2927 1.0477 2.342 2.342 2.342 1.2927 0 2.342-1.0493 2.342-2.342v-8.6279h3.1223v8.6279c0 1.2927 1.0477 2.342 2.342 2.342 1.2927 0 2.3415-1.0493 2.3415-2.342v-8.6279h3.1223v8.6279c0 1.2927 1.0477 2.342 2.342 2.342 1.2927 0 2.342-1.0493 2.342-2.342v-8.6279h3.1223v8.6279c0 1.2927 1.0477 2.342 2.342 2.342 1.2927 0 2.3415-1.0493 2.3415-2.342v-8.6279h3.1228v8.6279c0 1.2927 1.0472 2.342 2.3415 2.342 1.2927 0 2.342-1.0493 2.342-2.342v-8.6279h3.1223v8.6279c0 1.2927 1.0477 2.342 2.342 2.342 1.2927 0 2.342-1.0493 2.342-2.342v-8.6279h3.1223v8.6279c0 1.2927 1.0477 2.342 2.342 2.342 1.2927 0 2.3415-1.0493 2.3415-2.342v-8.6279h0.78238c4.7351 0 8.585-3.8297 8.585-8.5649v-0.80254h8.6279c1.2927 0 2.342-1.0488 2.342-2.3415 0-1.2935-1.0493-2.342-2.342-2.342h-8.6279v-3.1223h8.6279c1.2927 0 2.342-1.0485 2.342-2.342 0-1.2927-1.0493-2.342-2.342-2.342h-8.6279v-3.1223h8.6279c1.2927 0 2.342-1.0485 2.342-2.342s-1.0493-2.3415-2.342-2.3415h-8.6279v-3.1228h8.6279c1.2927 0 2.342-1.048 2.342-2.3415 0-1.2927-1.0493-2.342-2.342-2.342h-8.6279v-3.1223h8.6279c1.2927 0 2.342-1.0493 2.342-2.342 0-1.2935-1.0493-2.342-2.342-2.342h-8.6279v-3.1223h8.6279c1.2927 0 2.342-1.0488 2.342-2.3415 0-1.2935-1.0493-2.342-2.342-2.342h-8.6279v-3.1223h8.6279c1.2927 0 2.342-1.0485 2.342-2.342 0-1.2927-1.0493-2.342-2.342-2.342h-8.6279v-3.1223h8.6279c1.2927 0 2.342-1.0493 2.342-2.342 0-1.2935-1.0493-2.3415-2.342-2.3415h-8.6279v-0.75758c-0.7806-5.4346-3.8499-8.6098-8.585-8.6098h-0.78238v-8.6279c0-1.2927-1.0488-2.342-2.3415-2.342-1.2942 0-2.342 1.0493-2.342 2.342v8.6279h-3.1223v-8.6279c0-1.2927-1.0493-2.342-2.342-2.342-1.2942 0-2.342 1.0493-2.342 2.342v8.6279h-3.1223v-8.6279c0-1.2927-1.0493-2.342-2.342-2.342-1.2942 0-2.3415 1.0493-2.3415 2.342v8.6279h-3.1228v-8.6279c0-1.2927-1.0488-2.342-2.3415-2.342-1.2942 0-2.342 1.0493-2.342 2.342v8.6279h-3.1223v-8.6279c0-1.2927-1.0493-2.342-2.342-2.342-1.2942 0-2.342 1.0493-2.342 2.342v8.6279h-3.1223v-8.6279c0-1.2927-1.0488-2.342-2.3415-2.342-1.2942 0-2.342 1.0493-2.342 2.342v8.6279h-3.1223v-8.6279c0-1.2927-1.0493-2.342-2.342-2.342-1.2942 0-2.342 1.0493-2.342 2.342v8.6279h-3.1223v-8.6279c0-1.2927-1.0493-2.342-2.342-2.342zm-0.40876 17.27h55.46c2.77 0 5.0002 2.2297 5.0002 4.9997v55.46c0 2.77-2.2302 5.0002-5.0002 5.0002h-55.46c-2.77 0-4.9997-2.2302-4.9997-5.0002v-55.46c0-2.77 2.2297-4.9997 4.9997-4.9997z" stroke-width=".19515"/><path d="m28.298 66.857c-2.4002-0.3965-3.9921-1.5504-4.7471-3.441-0.64654-1.619-0.50117-25.466 0.16374-26.86 1.5179-3.1833 3.1857-3.705 11.547-3.6125 8.447 0.09351 9.3018 0.61066 9.5025 5.7491 0.12111 3.0994 0.18224 3.0461-3.4939 3.0461-3.362 0-3.3749-0.0039-3.3749-1.0336 0-1.5612-0.19292-1.6538-3.4448-1.6538-3.9847 0-3.7369-0.28496-3.813 4.3856-0.07623 4.6793-0.79677 4.2019 6.49 4.2996 9.7876 0.13124 10.934 1.1227 10.935 9.4544 2.85e-4 6.5317-1.1697 8.9118-4.7536 9.6704-1.2272 0.25974-13.434 0.2565-15.011-4e-3zm10.066-5.7178c2.6643-0.43723 3.1001-7.1622 0.51072-7.8815-1.3794-0.38318-7.5905-0.2465-7.9723 0.17545-0.5471 0.60454-0.37716 6.5508 0.2038 7.1312 0.6973 0.69668 4.6214 1.0074 7.2578 0.57479zm30.218 5.5706c-0.44765-0.36204-0.45433-0.42153-0.54914-4.8884-0.12414-5.8489 0.7508-5.1828-6.9648-5.3025-9.4275-0.14632-8.7728 0.8246-8.7744-13.014-0.0013-11.81-0.46305-10.597 4.0339-10.597 4.767 0 4.4111-0.78854 4.4111 9.7726 0 9.6784-0.43194 8.655 3.6532 8.655 3.7907 0 3.5215 0.29102 3.6411-3.9367 0.12519-4.4253-0.19803-4.1253 4.4449-4.1253 4.9416 0 4.4057-1.4824 4.3415 12.01-0.05256 11.059-0.05256 11.059-0.50572 11.425-0.68702 0.55619-7.044 0.5565-7.7316 3.72e-4z" stroke-width=".7255"/></g></svg>
