<?xml version="1.0" encoding="UTF-8"?>
<svg width="30.262mm" height="29.871mm" version="1.1" viewBox="0 0 30.262 29.871" xml:space="preserve" xmlns="http://www.w3.org/2000/svg"><g transform="translate(-7.8583 -5.7817)" fill="#4154bf"><path d="m13.97 5.7817v2.1699h-0.12506c-2.0645 0-3.7502 1.6856-3.7502 3.7502v0.03307h-2.236v2.4433h2.236v1.5529h-2.236v2.4453h2.236v1.326h-2.236v2.4438h2.236v1.525h-2.236v2.4438h2.236v1.4237h-2.236v2.4453h2.2366c0.0077 2.0581 1.6898 3.7362 3.7496 3.7362h0.11937v2.1327h2.4433v-2.1327h1.5529v2.1327h2.4453v-2.1327h1.326v2.1327h2.4433v-2.1327h1.5255v2.1327h2.4433v-2.1327h1.4237v2.1327h2.4453v-2.1379c2.0186-0.05345 3.6504-1.7139 3.6504-3.745v-0.05271h2.4572v-2.4453h-2.4572v-1.4237h2.4572v-2.4453h-2.4572v-1.5234h2.4572v-2.4433h-2.4572v-1.3281h2.4572v-2.4433h-2.4572v-1.5529h2.4572v-2.4453h-2.4588c-0.01888-2.0128-1.6387-3.6535-3.6427-3.7099v-2.1751h-2.4438v2.1699h-1.4258v-2.1699h-2.4433v2.1699h-1.5234v-2.1699h-2.4453v2.1699h-1.326v-2.1699h-2.4433v2.1699h-1.5549v-2.1699zm-0.12506 3.6701h18.069c1.2595 0 2.25 0.99052 2.25 2.25v18.068c0 1.2595-0.99052 2.25-2.25 2.25h-18.069c-1.2595 0-2.25-0.99052-2.25-2.25v-18.068c0-1.2595 0.99052-2.25 2.25-2.25z" fill-rule="evenodd" stroke-linecap="round" stroke-linejoin="round" style="paint-order:fill markers stroke"/><g stroke-width=".26458px" aria-label="ARM
64"><path d="m16.975 18.65h-1.9554l-0.26906 0.91708h-1.7546l2.0881-5.5556h1.8721l2.0881 5.5556h-1.7963zm-0.36001-1.2013-0.61392-1.9971-0.61013 1.9971zm3.0014 2.1184v-5.5556h2.8612q0.79582 0 1.2165 0.13643 0.42065 0.13642 0.67834 0.50781 0.25769 0.36759 0.25769 0.89814 0 0.46233-0.19706 0.79961-0.19706 0.33349-0.54191 0.54191-0.2198 0.13264-0.60255 0.2198 0.30696 0.10232 0.44717 0.20464 0.09474 0.06821 0.27285 0.2918 0.1819 0.22359 0.24254 0.34485l0.82992 1.6106h-1.9403l-0.91708-1.6977q-0.17432-0.3297-0.31075-0.42822-0.18569-0.12885-0.42065-0.12885h-0.15158v2.2548zm1.7243-3.3045h0.72381q0.11748 0 0.45475-0.07579 0.17053-0.03411 0.27664-0.17432 0.1099-0.14022 0.1099-0.32212 0-0.26906-0.17053-0.41307t-0.64044-0.144h-0.75413zm4.2709-2.251h2.2586l0.87161 3.3803 0.86782-3.3803h2.251v5.5556h-1.4022v-4.2368l-1.0876 4.2368h-1.2695l-1.0838-4.2368v4.2368h-1.4059z"/><path d="m22.297 23.023-1.5348 0.18948q-0.06063-0.32212-0.20464-0.45475-0.14022-0.13264-0.34864-0.13264-0.37517 0-0.5836 0.37896-0.15158 0.27285-0.22359 1.1672 0.27664-0.28043 0.56844-0.41307 0.2918-0.13642 0.67455-0.13642 0.74276 0 1.2544 0.53054 0.51539 0.53054 0.51539 1.3453 0 0.54949-0.26148 1.0042-0.25769 0.45475-0.72002 0.68971-0.45854 0.23117-1.152 0.23117-0.83371 0-1.3377-0.28422-0.50402-0.28422-0.80719-0.90572-0.29938-0.62528-0.29938-1.6523 0-1.5045 0.63286-2.2018 0.63286-0.70108 1.7546-0.70108 0.66318 0 1.0459 0.15537 0.38654 0.15158 0.64044 0.44717 0.2539 0.29559 0.38654 0.74276zm-2.8422 2.4746q0 0.45096 0.22738 0.70866 0.22738 0.2539 0.55707 0.2539 0.30317 0 0.50781-0.23116 0.20464-0.23117 0.20464-0.68971 0-0.46991-0.21222-0.71624-0.21222-0.24632-0.52676-0.24632-0.32212 0-0.54191 0.23874-0.21601 0.23874-0.21601 0.68213zm6.2036 0.79203h-2.8119v-1.2695l2.8119-3.3424h1.3453v3.4144h0.69729v1.1975h-0.69729v1.0384h-1.3453zm0-1.1975v-1.747l-1.4855 1.747z"/></g></g></svg>
