<svg viewBox="0 0 512 512" xmlns="http://www.w3.org/2000/svg"><text x="729.64" y="231.36"><tspan x="729.64" y="231.36"/></text><text transform="scale(4.0128 .2492)" x="378.91" y="579.26"/><text x="1310.91" y="151.36"><tspan x="1310.91" y="151.36"/></text><text transform="scale(4.0128 .2492)" x="523.76" y="258.22"/><text x="239.33" y="-29.9"><tspan x="239.33" y="-29.9"/></text><text transform="scale(4.0128 .2492)" x="256.72" y="-469.13"/><text x="1337.38" y="-246.37"><tspan x="1337.38" y="-246.37"/></text><text transform="scale(4.0128 .2492)" x="530.36" y="-1337.8"/><text x="1918.65" y="-326.37"><tspan x="1918.65" y="-326.37"/></text><text transform="scale(4.0128 .2492)" x="675.21" y="-1658.83"/><text x="1529.53" y="-798.77"><tspan x="1529.53" y="-798.77"/></text><text transform="scale(4.0128 .2492)" x="578.24" y="-3554.48"/><text x="2110.79" y="-878.78"><tspan x="2110.79" y="-878.78"/></text><text transform="scale(4.0128 .2492)" x="723.09" y="-3875.52"/><text x="277.99" y="535.94"><tspan x="277.99" y="535.94"/></text><text x="729.64" y="231.36"><tspan x="729.64" y="231.36"/></text><text transform="scale(4.0128 .2492)" x="378.91" y="579.26"/><text x="1310.91" y="151.36"><tspan x="1310.91" y="151.36"/></text><text transform="scale(4.0128 .2492)" x="523.76" y="258.22"/><text x="239.33" y="-29.9"><tspan x="239.33" y="-29.9"/></text><text transform="scale(4.0128 .2492)" x="256.72" y="-469.13"/><text x="1337.38" y="-246.37"><tspan x="1337.38" y="-246.37"/></text><text transform="scale(4.0128 .2492)" x="530.36" y="-1337.8"/><text x="1918.65" y="-326.37"><tspan x="1918.65" y="-326.37"/></text><text transform="scale(4.0128 .2492)" x="675.21" y="-1658.83"/><text x="1529.53" y="-798.77"><tspan x="1529.53" y="-798.77"/></text><text transform="scale(4.0128 .2492)" x="578.24" y="-3554.48"/><text x="2110.79" y="-878.78"><tspan x="2110.79" y="-878.78"/></text><text transform="scale(4.0128 .2492)" x="723.09" y="-3875.52"/><text x="277.99" y="535.94"><tspan x="277.99" y="535.94"/></text><text x="729.64" y="231.36"><tspan x="729.64" y="231.36"/></text><text transform="scale(4.0128 .2492)" x="378.91" y="579.26"/><text x="1310.91" y="151.36"><tspan x="1310.91" y="151.36"/></text><text transform="scale(4.0128 .2492)" x="523.76" y="258.22"/><text x="239.33" y="-29.9"><tspan x="239.33" y="-29.9"/></text><text transform="scale(4.0128 .2492)" x="256.72" y="-469.13"/><text x="1337.38" y="-246.37"><tspan x="1337.38" y="-246.37"/></text><text transform="scale(4.0128 .2492)" x="530.36" y="-1337.8"/><text x="1918.65" y="-326.37"><tspan x="1918.65" y="-326.37"/></text><text transform="scale(4.0128 .2492)" x="675.21" y="-1658.83"/><text x="1529.53" y="-798.77"><tspan x="1529.53" y="-798.77"/></text><text transform="scale(4.0128 .2492)" x="578.24" y="-3554.48"/><text x="2110.79" y="-878.78"><tspan x="2110.79" y="-878.78"/></text><text transform="scale(4.0128 .2492)" x="723.09" y="-3875.52"/><text x="277.99" y="535.94"><tspan x="277.99" y="535.94"/></text><text x="729.64" y="231.36"><tspan x="729.64" y="231.36"/></text><text transform="scale(4.0128 .2492)" x="378.91" y="579.26"/><text x="1310.91" y="151.36"><tspan x="1310.91" y="151.36"/></text><text transform="scale(4.0128 .2492)" x="523.76" y="258.22"/><text x="239.33" y="-29.9"><tspan x="239.33" y="-29.9"/></text><text transform="scale(4.0128 .2492)" x="256.72" y="-469.13"/><text x="1337.38" y="-246.37"><tspan x="1337.38" y="-246.37"/></text><text transform="scale(4.0128 .2492)" x="530.36" y="-1337.8"/><text x="1918.65" y="-326.37"><tspan x="1918.65" y="-326.37"/></text><text transform="scale(4.0128 .2492)" x="675.21" y="-1658.83"/><text x="1529.53" y="-798.77"><tspan x="1529.53" y="-798.77"/></text><text transform="scale(4.0128 .2492)" x="578.24" y="-3554.48"/><text x="2110.79" y="-878.78"><tspan x="2110.79" y="-878.78"/></text><text transform="scale(4.0128 .2492)" x="723.09" y="-3875.52"/><text x="277.99" y="535.94"><tspan x="277.99" y="535.94"/></text><text x="729.64" y="231.36"><tspan x="729.64" y="231.36"/></text><text transform="scale(4.0128 .2492)" x="378.91" y="579.26"/><text x="1310.91" y="151.36"><tspan x="1310.91" y="151.36"/></text><text transform="scale(4.0128 .2492)" x="523.76" y="258.22"/><text x="239.33" y="-29.9"><tspan x="239.33" y="-29.9"/></text><text transform="scale(4.0128 .2492)" x="256.72" y="-469.13"/><text x="1337.38" y="-246.37"><tspan x="1337.38" y="-246.37"/></text><text transform="scale(4.0128 .2492)" x="530.36" y="-1337.8"/><text x="1918.65" y="-326.37"><tspan x="1918.65" y="-326.37"/></text><text transform="scale(4.0128 .2492)" x="675.21" y="-1658.83"/><text x="1529.53" y="-798.77"><tspan x="1529.53" y="-798.77"/></text><text transform="scale(4.0128 .2492)" x="578.24" y="-3554.48"/><text x="2110.79" y="-878.78"><tspan x="2110.79" y="-878.78"/></text><text transform="scale(4.0128 .2492)" x="723.09" y="-3875.52"/><text x="277.99" y="535.94"><tspan x="277.99" y="535.94"/></text><text x="729.64" y="231.36"><tspan x="729.64" y="231.36"/></text><text transform="scale(4.0128 .2492)" x="378.91" y="579.26"/><text x="1310.91" y="151.36"><tspan x="1310.91" y="151.36"/></text><text transform="scale(4.0128 .2492)" x="523.76" y="258.22"/><text x="239.33" y="-29.9"><tspan x="239.33" y="-29.9"/></text><text transform="scale(4.0128 .2492)" x="256.72" y="-469.13"/><text x="1337.38" y="-246.37"><tspan x="1337.38" y="-246.37"/></text><text transform="scale(4.0128 .2492)" x="530.36" y="-1337.8"/><text x="1918.65" y="-326.37"><tspan x="1918.65" y="-326.37"/></text><text transform="scale(4.0128 .2492)" x="675.21" y="-1658.83"/><text x="1529.53" y="-798.77"><tspan x="1529.53" y="-798.77"/></text><text transform="scale(4.0128 .2492)" x="578.24" y="-3554.48"/><text x="2110.79" y="-878.78"><tspan x="2110.79" y="-878.78"/></text><text transform="scale(4.0128 .2492)" x="723.09" y="-3875.52"/><text x="277.99" y="535.94"><tspan x="277.99" y="535.94"/></text><text x="729.64" y="231.36"><tspan x="729.64" y="231.36"/></text><text transform="scale(4.0128 .2492)" x="378.91" y="579.26"/><text x="1310.91" y="151.36"><tspan x="1310.91" y="151.36"/></text><text transform="scale(4.0128 .2492)" x="523.76" y="258.22"/><text x="239.33" y="-29.9"><tspan x="239.33" y="-29.9"/></text><text transform="scale(4.0128 .2492)" x="256.72" y="-469.13"/><text x="1337.38" y="-246.37"><tspan x="1337.38" y="-246.37"/></text><text transform="scale(4.0128 .2492)" x="530.36" y="-1337.8"/><text x="1918.65" y="-326.37"><tspan x="1918.65" y="-326.37"/></text><text transform="scale(4.0128 .2492)" x="675.21" y="-1658.83"/><text x="1529.53" y="-798.77"><tspan x="1529.53" y="-798.77"/></text><text transform="scale(4.0128 .2492)" x="578.24" y="-3554.48"/><text x="2110.79" y="-878.78"><tspan x="2110.79" y="-878.78"/></text><text transform="scale(4.0128 .2492)" x="723.09" y="-3875.52"/><text x="277.99" y="535.94"><tspan x="277.99" y="535.94"/></text><text x="729.64" y="231.36"><tspan x="729.64" y="231.36"/></text><text transform="scale(4.0128 .2492)" x="378.91" y="579.25"/><text x="1310.91" y="151.36"><tspan x="1310.91" y="151.36"/></text><text transform="scale(4.0128 .2492)" x="523.76" y="258.22"/><text x="239.33" y="-29.901"><tspan x="239.33" y="-29.901"/></text><text transform="scale(4.0128 .2492)" x="256.72" y="-469.14"/><text x="1337.38" y="-246.37"><tspan x="1337.38" y="-246.37"/></text><text transform="scale(4.0128 .2492)" x="530.36" y="-1337.8"/><text x="1918.65" y="-326.38"><tspan x="1918.65" y="-326.38"/></text><text transform="scale(4.0128 .2492)" x="675.21" y="-1658.84"/><text x="1529.53" y="-798.78"><tspan x="1529.53" y="-798.78"/></text><text transform="scale(4.0128 .2492)" x="578.24" y="-3554.49"/><text x="2110.79" y="-878.78"><tspan x="2110.79" y="-878.78"/></text><text transform="scale(4.0128 .2492)" x="723.09" y="-3875.52"/><text x="277.99" y="535.94"><tspan x="277.99" y="535.94"/></text><text x="729.64" y="231.36"><tspan x="729.64" y="231.36"/></text><text transform="scale(4.0128 .2492)" x="378.91" y="579.26"/><text x="1310.91" y="151.36"><tspan x="1310.91" y="151.36"/></text><text transform="scale(4.0128 .2492)" x="523.76" y="258.22"/><text x="239.33" y="-29.9"><tspan x="239.33" y="-29.9"/></text><text transform="scale(4.0128 .2492)" x="256.72" y="-469.13"/><text x="1337.38" y="-246.37"><tspan x="1337.38" y="-246.37"/></text><text transform="scale(4.0128 .2492)" x="530.36" y="-1337.8"/><text x="1918.65" y="-326.37"><tspan x="1918.65" y="-326.37"/></text><text transform="scale(4.0128 .2492)" x="675.21" y="-1658.83"/><text x="1529.53" y="-798.77"><tspan x="1529.53" y="-798.77"/></text><text transform="scale(4.0128 .2492)" x="578.24" y="-3554.48"/><text x="2110.79" y="-878.78"><tspan x="2110.79" y="-878.78"/></text><text transform="scale(4.0128 .2492)" x="723.09" y="-3875.52"/><text x="277.99" y="535.94"><tspan x="277.99" y="535.94"/></text><text x="729.64" y="231.36"><tspan x="729.64" y="231.36"/></text><text transform="scale(4.0128 .2492)" x="378.91" y="579.26"/><text x="1310.91" y="151.36"><tspan x="1310.91" y="151.36"/></text><text transform="scale(4.0128 .2492)" x="523.76" y="258.22"/><text x="239.33" y="-29.9"><tspan x="239.33" y="-29.9"/></text><text transform="scale(4.0128 .2492)" x="256.72" y="-469.13"/><text x="1337.38" y="-246.37"><tspan x="1337.38" y="-246.37"/></text><text transform="scale(4.0128 .2492)" x="530.36" y="-1337.8"/><text x="1918.65" y="-326.37"><tspan x="1918.65" y="-326.37"/></text><text transform="scale(4.0128 .2492)" x="675.21" y="-1658.83"/><text x="1529.53" y="-798.77"><tspan x="1529.53" y="-798.77"/></text><text transform="scale(4.0128 .2492)" x="578.24" y="-3554.48"/><text x="2110.79" y="-878.78"><tspan x="2110.79" y="-878.78"/></text><text transform="scale(4.0128 .2492)" x="723.09" y="-3875.52"/><text x="277.99" y="535.94"><tspan x="277.99" y="535.94"/></text><text x="729.64" y="231.36"><tspan x="729.64" y="231.36"/></text><text transform="scale(4.0128 .2492)" x="378.91" y="579.26"/><text x="1310.91" y="151.36"><tspan x="1310.91" y="151.36"/></text><text transform="scale(4.0128 .2492)" x="523.76" y="258.22"/><text x="239.33" y="-29.9"><tspan x="239.33" y="-29.9"/></text><text transform="scale(4.0128 .2492)" x="256.72" y="-469.13"/><text x="1337.38" y="-246.37"><tspan x="1337.38" y="-246.37"/></text><text transform="scale(4.0128 .2492)" x="530.36" y="-1337.8"/><text x="1918.65" y="-326.37"><tspan x="1918.65" y="-326.37"/></text><text transform="scale(4.0128 .2492)" x="675.21" y="-1658.83"/><text x="1529.53" y="-798.77"><tspan x="1529.53" y="-798.77"/></text><text transform="scale(4.0128 .2492)" x="578.24" y="-3554.48"/><text x="2110.79" y="-878.78"><tspan x="2110.79" y="-878.78"/></text><text transform="scale(4.0128 .2492)" x="723.09" y="-3875.52"/><text x="277.99" y="535.94"><tspan x="277.99" y="535.94"/></text><text x="729.64" y="231.36"><tspan x="729.64" y="231.36"/></text><text transform="scale(4.0128 .2492)" x="378.91" y="579.25"/><text x="1310.91" y="151.36"><tspan x="1310.91" y="151.36"/></text><text transform="scale(4.0128 .2492)" x="523.76" y="258.22"/><text x="239.33" y="-29.901"><tspan x="239.33" y="-29.901"/></text><text transform="scale(4.0128 .2492)" x="256.72" y="-469.14"/><text x="1337.38" y="-246.37"><tspan x="1337.38" y="-246.37"/></text><text transform="scale(4.0128 .2492)" x="530.36" y="-1337.8"/><text x="1918.65" y="-326.38"><tspan x="1918.65" y="-326.38"/></text><text transform="scale(4.0128 .2492)" x="675.21" y="-1658.84"/><text x="1529.53" y="-798.78"><tspan x="1529.53" y="-798.78"/></text><text transform="scale(4.0128 .2492)" x="578.24" y="-3554.49"/><text x="2110.79" y="-878.78"><tspan x="2110.79" y="-878.78"/></text><text transform="scale(4.0128 .2492)" x="723.09" y="-3875.52"/><text x="277.99" y="535.94"><tspan x="277.99" y="535.94"/></text><text x="729.64" y="231.36"><tspan x="729.64" y="231.36"/></text><text transform="scale(4.0128 .2492)" x="378.91" y="579.26"/><text x="1310.91" y="151.36"><tspan x="1310.91" y="151.36"/></text><text transform="scale(4.0128 .2492)" x="523.76" y="258.22"/><text x="239.33" y="-29.9"><tspan x="239.33" y="-29.9"/></text><text transform="scale(4.0128 .2492)" x="256.72" y="-469.13"/><text x="1337.38" y="-246.37"><tspan x="1337.38" y="-246.37"/></text><text transform="scale(4.0128 .2492)" x="530.36" y="-1337.8"/><text x="1918.65" y="-326.37"><tspan x="1918.65" y="-326.37"/></text><text transform="scale(4.0128 .2492)" x="675.21" y="-1658.83"/><text x="1529.53" y="-798.77"><tspan x="1529.53" y="-798.77"/></text><text transform="scale(4.0128 .2492)" x="578.24" y="-3554.48"/><text x="2110.79" y="-878.78"><tspan x="2110.79" y="-878.78"/></text><text transform="scale(4.0128 .2492)" x="723.09" y="-3875.52"/><text x="277.99" y="535.94"><tspan x="277.99" y="535.94"/></text><text x="729.64" y="231.36"><tspan x="729.64" y="231.36"/></text><text transform="scale(4.0128 .2492)" x="378.91" y="579.26"/><text x="1310.91" y="151.36"><tspan x="1310.91" y="151.36"/></text><text transform="scale(4.0128 .2492)" x="523.76" y="258.22"/><text x="239.33" y="-29.9"><tspan x="239.33" y="-29.9"/></text><text transform="scale(4.0128 .2492)" x="256.72" y="-469.13"/><text x="1337.38" y="-246.37"><tspan x="1337.38" y="-246.37"/></text><text transform="scale(4.0128 .2492)" x="530.36" y="-1337.8"/><text x="1918.65" y="-326.37"><tspan x="1918.65" y="-326.37"/></text><text transform="scale(4.0128 .2492)" x="675.21" y="-1658.83"/><text x="1529.53" y="-798.77"><tspan x="1529.53" y="-798.77"/></text><text transform="scale(4.0128 .2492)" x="578.24" y="-3554.48"/><text x="2110.79" y="-878.78"><tspan x="2110.79" y="-878.78"/></text><text transform="scale(4.0128 .2492)" x="723.09" y="-3875.52"/><text x="277.99" y="535.94"><tspan x="277.99" y="535.94"/></text><text x="1400.21" y="254.18"><tspan x="1400.21" y="254.18"/></text><text transform="scale(4.0128 .2492)" x="546.02" y="670.84"/><text x="1981.48" y="174.18"><tspan x="1981.48" y="174.18"/></text><text transform="scale(4.0128 .2492)" x="690.87" y="349.8"/><text x="909.9" y="-7.08"><tspan x="909.9" y="-7.08"/></text><text transform="scale(4.0128 .2492)" x="423.83" y="-377.54"/><text x="2007.95" y="-223.55"><tspan x="2007.95" y="-223.55"/></text><text transform="scale(4.0128 .2492)" x="697.47" y="-1246.22"/><text x="2589.22" y="-303.55"><tspan x="2589.22" y="-303.55"/></text><text transform="scale(4.0128 .2492)" x="842.31" y="-1567.25"/><text x="2200.1" y="-775.95"><tspan x="2200.1" y="-775.95"/></text><text transform="scale(4.0128 .2492)" x="745.34" y="-3462.9"/><text x="2781.36" y="-855.96"><tspan x="2781.36" y="-855.96"/></text><text transform="scale(4.0128 .2492)" x="890.19" y="-3783.94"/><text x="948.56" y="558.76"><tspan x="948.56" y="558.76"/></text><text x="-25832.7" y="1355.95"><tspan x="-25832.7" y="1355.95"/></text><text transform="scale(4.0128 .2492)" x="956.76" y="-7658.9"/><text x="-25967.45" y="2268"><tspan x="-25967.45" y="2268"/></text><text transform="scale(4.0128 .2492)" x="923.22" y="-3999.05"/><g fill="#555753"><text transform="scale(1.0508 .95163)" x="-11566.28" y="-4779.66"><tspan x="-11566.28" y="-4779.66"/></text><text transform="scale(4.2168 .23715)" x="1656.58" y="-27220.93"/><text transform="scale(1.0508 .95163)" x="-2163.44" y="-5604.67"><tspan x="-2163.44" y="-5604.67"/></text><text transform="scale(4.2168 .23715)" x="1890.69" y="-26795.03"/><text x="-38167.25" y="-1757.71"><tspan x="-38167.25" y="-1757.71"/></text><text transform="scale(4.0128 .2492)" x="-2412.65" y="-19628.94"/></g><text stroke="#cd1d31" stroke-width="23.273" x="-23984.15" y="-13984.27"><tspan x="-23984.15" y="-13984.27"/></text><text transform="scale(4.0128 .2492)" x="1417.56" y="-69216.59"/><text stroke="#cd1d31" stroke-width="23.273" x="-24119.13" y="-13072.22"><tspan x="-24119.13" y="-13072.22"/></text><text transform="scale(4.0128 .2492)" x="1383.88" y="-65556.5"/><g fill="#555753"><g stroke="#cd1d31" stroke-width="23.273"><text transform="scale(1.0508 .95163)" x="-9807.11" y="-20899.68"><tspan x="-9807.11" y="-20899.68"/></text><text transform="scale(4.2168 .23715)" x="2095.02" y="-91907.86"/><text transform="scale(1.0508 .95163)" x="-404.5" y="-21724.46"><tspan x="-404.5" y="-21724.46"/></text><text transform="scale(4.2168 .23715)" x="2328.91" y="-91481.97"/><text x="-36318.69" y="-17097.93"><tspan x="-36318.69" y="-17097.93"/></text></g><text transform="scale(4.0128 .2492)" x="-1952.09" y="-81186.62"/></g><text stroke="#cd1d31" stroke-width="23.273" x="-7008.32" y="-20673.79"><tspan x="-7008.32" y="-20673.79"/></text><text transform="scale(4.0128 .2492)" x="5352.02" y="-95535.81"/><text stroke="#cd1d31" stroke-width="23.273" x="13928.29" y="-23555.42"><tspan x="13928.29" y="-23555.42"/></text><text transform="scale(4.0128 .2492)" x="10569.51" y="-107099.05"/><text x="-38471.66000000001" y="6656.54"><tspan x="-38471.66000000001" y="6656.54"/></text><text transform="scale(4.0128 .2492)" x="-2192.72" y="13611.8"/><text x="5516.6" y="-747.91"><tspan x="5516.6" y="-747.91"/></text><text transform="scale(4.0128 .2492)" x="5961.3" y="-11126.76"/><text x="19044.34" y="-2609.73"><tspan x="19044.34" y="-2609.73"/></text><text transform="scale(4.0128 .2492)" x="9332.34" y="-18598.2"/><text x="-5894.26" y="-6828.14"><tspan x="-5894.26" y="-6828.14"/></text><text transform="scale(4.0128 .2492)" x="3117.62" y="-35525.53"/><text x="19660.37" y="-11866.04"><tspan x="19660.37" y="-11866.04"/></text><text transform="scale(4.0128 .2492)" x="9485.94" y="-55741.98"/><text x="33187.87000000001" y="-13727.81"><tspan x="33187.87000000001" y="-13727.81"/></text><text transform="scale(4.0128 .2492)" x="12856.98" y="-63213.19"/><text x="24131.99" y="-24721.85"><tspan x="24131.99" y="-24721.85"/></text><text transform="scale(4.0128 .2492)" x="10600.23" y="-107330.14"/><text x="37659.73000000001" y="-26583.9"><tspan x="37659.73000000001" y="-26583.9"/></text><text transform="scale(4.0128 .2492)" x="13971.27" y="-114801.57"/><text x="-4994.77" y="6340.5"><tspan x="-4994.77" y="6340.5"/></text><text x="-26707.06" y="1355.01"><tspan x="-26707.06" y="1355.01"/></text><text transform="scale(4.0128 .2492)" x="738.93" y="-7662.86"/><text x="-26841.81" y="2267.07"><tspan x="-26841.81" y="2267.07"/></text><text transform="scale(4.0128 .2492)" x="705.34" y="-4002.78"/><g fill="#555753"><text transform="scale(1.0508 .95163)" x="-12398.28" y="-4780.82"><tspan x="-12398.28" y="-4780.82"/></text><text transform="scale(4.2168 .23715)" x="1449.2" y="-27225.12"/><text transform="scale(1.0508 .95163)" x="-2995.67" y="-5605.83"><tspan x="-2995.67" y="-5605.83"/></text><text transform="scale(4.2168 .23715)" x="1683.32" y="-26798.99"/><text x="-39041.61" y="-1758.64"><tspan x="-39041.61" y="-1758.64"/></text><text transform="scale(4.0128 .2492)" x="-2630.48" y="-19632.9"/></g><text stroke="#cd1d31" stroke-width="23.273" x="-24858.51" y="-13985.2"><tspan x="-24858.51" y="-13985.2"/></text><text transform="scale(4.0128 .2492)" x="1199.58" y="-69220.3"/><text stroke="#cd1d31" stroke-width="23.273" x="-24993.25" y="-13073.15"><tspan x="-24993.25" y="-13073.15"/></text><text transform="scale(4.0128 .2492)" x="1165.98" y="-65560.46"/><g fill="#555753"><g stroke="#cd1d31" stroke-width="23.273"><text transform="scale(1.0508 .95163)" x="-10639.1" y="-20900.61"><tspan x="-10639.1" y="-20900.61"/></text><text transform="scale(4.2168 .23715)" x="1887.61" y="-91912.05"/><text transform="scale(1.0508 .95163)" x="-1236.49" y="-21725.62"><tspan x="-1236.49" y="-21725.62"/></text><text transform="scale(4.2168 .23715)" x="2121.67" y="-91485.92"/><text x="-37193.06" y="-17098.87"><tspan x="-37193.06" y="-17098.87"/></text></g><text transform="scale(4.0128 .2492)" x="-2169.92" y="-81190.58"/></g><text stroke="#cd1d31" stroke-width="23.273" x="-7882.68" y="-20674.72"><tspan x="-7882.68" y="-20674.72"/></text><text transform="scale(4.0128 .2492)" x="5134.19" y="-95539.77"/><text stroke="#cd1d31" stroke-width="23.273" x="13053.93" y="-23556.35"><tspan x="13053.93" y="-23556.35"/></text><text transform="scale(4.0128 .2492)" x="10351.44" y="-107103.01"/><text x="-397.47" y="555.36"><tspan x="-397.47" y="555.36"/></text><text transform="scale(4.0128 .2492)" x="132.91" y="1817"/><text x="982.46" y="322.87"><tspan x="982.46" y="322.87"/></text><text transform="scale(4.0128 .2492)" x="388.72" y="1041.09"/><text x="1406.86" y="264.45"><tspan x="1406.86" y="264.45"/></text><text transform="scale(4.0128 .2492)" x="494.49" y="806.51"/><text x="624.48" y="132.27"><tspan x="624.48" y="132.27"/></text><text transform="scale(4.0128 .2492)" x="299.54" y="275.43"/><text x="1426.2" y="-25.757"><tspan x="1426.2" y="-25.757"/></text><text transform="scale(4.0128 .2492)" x="499.31" y="-358.75"/><text x="1850.58" y="-84.17"><tspan x="1850.58" y="-84.17"/></text><text transform="scale(4.0128 .2492)" x="605.11" y="-593.11"/><text x="1566.49" y="-429.07"><tspan x="1566.49" y="-429.07"/></text><text transform="scale(4.0128 .2492)" x="534.36" y="-1977.13"/><text x="1990.89" y="-487.49"><tspan x="1990.89" y="-487.49"/></text><text transform="scale(4.0128 .2492)" x="640.02" y="-2211.48"/><text x="652.71" y="545.36"><tspan x="652.71" y="545.36"/></text><text x="-25857.25" y="1367.3"><tspan x="-25857.25" y="1367.3"/></text><text transform="scale(4.0128 .2492)" x="950.64" y="-7613.32"/><text x="-25991.99" y="2279.36"><tspan x="-25991.99" y="2279.36"/></text><text transform="scale(4.0128 .2492)" x="917.11" y="-3953.47"/><g fill="#555753"><text transform="scale(1.0508 .95163)" x="-11589.64" y="-4767.72"><tspan x="-11589.64" y="-4767.72"/></text><text transform="scale(4.2168 .23715)" x="1650.76" y="-27173.03"/><text transform="scale(1.0508 .95163)" x="-2186.8" y="-5592.73"><tspan x="-2186.8" y="-5592.73"/></text><text transform="scale(4.2168 .23715)" x="1884.86" y="-26747.14"/><text x="-38191.79" y="-1746.35"><tspan x="-38191.79" y="-1746.35"/></text><text transform="scale(4.0128 .2492)" x="-2418.77" y="-19583.36"/></g><text stroke="#cd1d31" stroke-width="23.273" x="-24008.69" y="-13972.92"><tspan x="-24008.69" y="-13972.92"/></text><text transform="scale(4.0128 .2492)" x="1411.44" y="-69171.01"/><text stroke="#cd1d31" stroke-width="23.273" x="-24143.68" y="-13060.86"><tspan x="-24143.68" y="-13060.86"/></text><text transform="scale(4.0128 .2492)" x="1377.76" y="-65510.93"/><g fill="#555753"><g stroke="#cd1d31" stroke-width="23.273"><text transform="scale(1.0508 .95163)" x="-9830.46" y="-20887.74"><tspan x="-9830.46" y="-20887.74"/></text><text transform="scale(4.2168 .23715)" x="2089.2" y="-91859.96"/><text transform="scale(1.0508 .95163)" x="-427.85" y="-21712.52"><tspan x="-427.85" y="-21712.52"/></text><text transform="scale(4.2168 .23715)" x="2323.09" y="-91434.06"/><text x="-36343.24" y="-17086.57"><tspan x="-36343.24" y="-17086.57"/></text></g><text transform="scale(4.0128 .2492)" x="-1958.2" y="-81141.05"/></g><text stroke="#cd1d31" stroke-width="23.273" x="-7032.87" y="-20662.43"><tspan x="-7032.87" y="-20662.43"/></text><text transform="scale(4.0128 .2492)" x="5345.91" y="-95490.23"/><text stroke="#cd1d31" stroke-width="23.273" x="13903.75" y="-23544.06"><tspan x="13903.75" y="-23544.06"/></text><text transform="scale(4.0128 .2492)" x="10563.4" y="-107053.46"/><text x="-25391.16" y="1829.69"><tspan x="-25391.16" y="1829.69"/></text><text transform="scale(4.0128 .2492)" x="1066.79" y="-5757.79"/><text x="-25525.9" y="2741.75"><tspan x="-25525.9" y="2741.75"/></text><text transform="scale(4.0128 .2492)" x="1033.26" y="-2097.94"/><g fill="#555753"><text transform="scale(1.0508 .95163)" x="-11146.09" y="-4281.92"><tspan x="-11146.09" y="-4281.92"/></text><text transform="scale(4.2168 .23715)" x="1761.3" y="-25223.87"/><text transform="scale(1.0508 .95163)" x="-1743.25" y="-5106.94"><tspan x="-1743.25" y="-5106.94"/></text><text transform="scale(4.2168 .23715)" x="1995.4" y="-24797.75"/><text x="-37725.7" y="-1283.96"><tspan x="-37725.7" y="-1283.96"/></text><text transform="scale(4.0128 .2492)" x="-2302.62" y="-17727.82"/></g><text stroke="#cd1d31" stroke-width="23.273" x="-23542.6" y="-13510.53"><tspan x="-23542.6" y="-13510.53"/></text><text transform="scale(4.0128 .2492)" x="1527.59" y="-67315.48"/><text stroke="#cd1d31" stroke-width="23.273" x="-23677.58" y="-12598.47"><tspan x="-23677.58" y="-12598.47"/></text><text transform="scale(4.0128 .2492)" x="1493.91" y="-63655.39"/><g fill="#555753"><g stroke="#cd1d31" stroke-width="23.273"><text transform="scale(1.0508 .95163)" x="-9386.91" y="-20401.71"><tspan x="-9386.91" y="-20401.71"/></text><text transform="scale(4.2168 .23715)" x="2199.73" y="-89910.81"/><text transform="scale(1.0508 .95163)" x="15.696" y="-21226.73"><tspan x="15.696" y="-21226.73"/></text><text transform="scale(4.2168 .23715)" x="2433.63" y="-89484.69"/><text x="-35877.14" y="-16624.19"><tspan x="-35877.14" y="-16624.19"/></text></g><text transform="scale(4.0128 .2492)" x="-1842.05" y="-79285.51"/></g><text stroke="#cd1d31" stroke-width="23.273" x="-6566.77" y="-20200.04"><tspan x="-6566.77" y="-20200.04"/></text><text transform="scale(4.0128 .2492)" x="5462.06" y="-93634.7"/><text stroke="#cd1d31" stroke-width="23.273" x="14369.84" y="-23081.67"><tspan x="14369.84" y="-23081.67"/></text><text transform="scale(4.0128 .2492)" x="10679.55" y="-105197.94"/><g fill="#fff"><text x="556.67" y="795.2"><tspan x="556.67" y="795.2"/></text><text x="556.66" y="795.22"><tspan x="556.66" y="795.22"/></text></g><text x="1400.21" y="254.18"><tspan x="1400.21" y="254.18"/></text><text transform="scale(4.0128 .2492)" x="546.02" y="670.83"/><text x="1981.48" y="174.18"><tspan x="1981.48" y="174.18"/></text><text transform="scale(4.0128 .2492)" x="690.87" y="349.8"/><text x="909.9" y="-7.078"><tspan x="909.9" y="-7.078"/></text><text transform="scale(4.0128 .2492)" x="423.83" y="-377.55"/><text x="2007.95" y="-223.55"><tspan x="2007.95" y="-223.55"/></text><text transform="scale(4.0128 .2492)" x="697.47" y="-1246.22"/><text x="2589.22" y="-303.56"><tspan x="2589.22" y="-303.56"/></text><text transform="scale(4.0128 .2492)" x="842.31" y="-1567.26"/><text x="2200.1" y="-775.96"><tspan x="2200.1" y="-775.96"/></text><text transform="scale(4.0128 .2492)" x="745.34" y="-3462.91"/><text x="2781.36" y="-855.96"><tspan x="2781.36" y="-855.96"/></text><text transform="scale(4.0128 .2492)" x="890.19" y="-3783.94"/><text x="948.56" y="558.76"><tspan x="948.56" y="558.76"/></text><text x="2294.04" y="406.05"><tspan x="2294.04" y="406.05"/></text><text transform="scale(4.0128 .2492)" x="768.76" y="1280.23"/><text x="2875.31" y="326.05"><tspan x="2875.31" y="326.05"/></text><text transform="scale(4.0128 .2492)" x="913.61" y="959.21"/><text x="1803.73" y="144.79"><tspan x="1803.73" y="144.79"/></text><text transform="scale(4.0128 .2492)" x="646.57" y="231.85"/><text x="2901.78" y="-71.68"><tspan x="2901.78" y="-71.68"/></text><text transform="scale(4.0128 .2492)" x="920.21" y="-636.82"/><text x="3483.05" y="-151.69"><tspan x="3483.05" y="-151.69"/></text><text transform="scale(4.0128 .2492)" x="1065.06" y="-957.85"/><text x="3093.93" y="-624.09"><tspan x="3093.93" y="-624.09"/></text><text transform="scale(4.0128 .2492)" x="968.09" y="-2853.5"/><text x="3675.19" y="-704.09"><tspan x="3675.19" y="-704.09"/></text><text transform="scale(4.0128 .2492)" x="1112.94" y="-3174.53"/><text fill="#fff" x="1842.39" y="710.63"><tspan x="1842.39" y="710.63"/></text><text x="874.56" y="195"><tspan x="874.56" y="195"/></text><text transform="scale(4.0128 .2492)" x="415.03" y="433.32"/><text x="1455.83" y="115"><tspan x="1455.83" y="115"/></text><text transform="scale(4.0128 .2492)" x="559.87" y="112.3"/><text x="384.25" y="-66.26"><tspan x="384.25" y="-66.26"/></text><text transform="scale(4.0128 .2492)" x="292.84" y="-615.05"/><text x="1482.3" y="-282.73"><tspan x="1482.3" y="-282.73"/></text><text transform="scale(4.0128 .2492)" x="566.47" y="-1483.72"/><text x="2063.57" y="-362.74"><tspan x="2063.57" y="-362.74"/></text><text transform="scale(4.0128 .2492)" x="711.32" y="-1804.75"/><text x="1674.45" y="-835.14"><tspan x="1674.45" y="-835.14"/></text><text transform="scale(4.0128 .2492)" x="614.35" y="-3700.4"/><text x="2255.71" y="-915.14"><tspan x="2255.71" y="-915.14"/></text><text transform="scale(4.0128 .2492)" x="759.2" y="-4021.42"/><text x="422.91" y="499.58"><tspan x="422.91" y="499.58"/></text><text x="346.37" y="529.6"><tspan x="346.37" y="529.6"/></text><text transform="scale(4.0128 .2492)" x="283.4" y="1775.99"/><text x="927.64" y="449.59"><tspan x="927.64" y="449.59"/></text><text transform="scale(4.0128 .2492)" x="428.25" y="1454.97"/><text x="-143.94" y="268.33"><tspan x="-143.94" y="268.33"/></text><text transform="scale(4.0128 .2492)" x="161.21" y="727.61"/><text x="954.11" y="51.865"><tspan x="954.11" y="51.865"/></text><text transform="scale(4.0128 .2492)" x="434.84" y="-141.05"/><text x="1535.38" y="-28.14"><tspan x="1535.38" y="-28.14"/></text><text transform="scale(4.0128 .2492)" x="579.69" y="-462.08"/><text x="1146.26" y="-500.54"><tspan x="1146.26" y="-500.54"/></text><text transform="scale(4.0128 .2492)" x="482.72" y="-2357.73"/><text x="1727.52" y="-580.54"><tspan x="1727.52" y="-580.54"/></text><text transform="scale(4.0128 .2492)" x="627.57" y="-2678.75"/><text x="-105.28" y="834.18"><tspan x="-105.28" y="834.18"/></text><text x="1427.83" y="272.59"><tspan x="1427.83" y="272.59"/></text><text transform="scale(4.0128 .2492)" x="552.9" y="744.7"/><text x="2009.1" y="192.59"><tspan x="2009.1" y="192.59"/></text><text transform="scale(4.0128 .2492)" x="697.75" y="423.67"/><text x="937.52" y="11.33"><tspan x="937.52" y="11.33"/></text><text transform="scale(4.0128 .2492)" x="430.71" y="-303.68"/><text x="2035.57" y="-205.14"><tspan x="2035.57" y="-205.14"/></text><text transform="scale(4.0128 .2492)" x="704.35" y="-1172.35"/><text x="2616.84" y="-285.15"><tspan x="2616.84" y="-285.15"/></text><text transform="scale(4.0128 .2492)" x="849.2" y="-1493.39"/><text x="2227.72" y="-757.55"><tspan x="2227.72" y="-757.55"/></text><text transform="scale(4.0128 .2492)" x="752.23" y="-3389.04"/><text x="2808.98" y="-837.55"><tspan x="2808.98" y="-837.55"/></text><text transform="scale(4.0128 .2492)" x="897.08" y="-3710.07"/><text x="976.18" y="577.17"><tspan x="976.18" y="577.17"/></text><text x="-951.57" y="-30.16"><tspan x="-951.57" y="-30.16"/></text><text transform="scale(4.0128 .2492)" x="67.884" y="-661.41"/><text x="891.49" y="-346.18"><tspan x="891.49" y="-346.18"/></text><text transform="scale(4.0128 .2492)" x="419.24" y="-1738.33"/><text x="1472.76" y="-426.18"><tspan x="1472.76" y="-426.18"/></text><text transform="scale(4.0128 .2492)" x="564.09" y="-2059.35"/><text x="401.18" y="-607.44"><tspan x="401.18" y="-607.44"/></text><text transform="scale(4.0128 .2492)" x="297.05" y="-2786.7"/><text x="1499.23" y="-823.91"><tspan x="1499.23" y="-823.91"/></text><text transform="scale(4.0128 .2492)" x="570.69" y="-3655.37"/><text x="2080.5" y="-903.92"><tspan x="2080.5" y="-903.92"/></text><text transform="scale(4.0128 .2492)" x="715.54" y="-3976.4"/><text x="1691.38" y="-1376.32"><tspan x="1691.38" y="-1376.32"/></text><text transform="scale(4.0128 .2492)" x="618.57" y="-5872.04"/><text x="2272.64" y="-1456.32"><tspan x="2272.64" y="-1456.32"/></text><text transform="scale(4.0128 .2492)" x="763.42" y="-6193.06"/><text x="439.84" y="-41.597"><tspan x="439.84" y="-41.597"/></text><text x="-951.57" y="-30.16"><tspan x="-951.57" y="-30.16"/></text><text transform="scale(4.0128 .2492)" x="67.884" y="-661.41"/><text x="729.64" y="231.36"><tspan x="729.64" y="231.36"/></text><text transform="scale(4.0128 .2492)" x="378.91" y="579.25"/><text x="1310.91" y="151.36"><tspan x="1310.91" y="151.36"/></text><text transform="scale(4.0128 .2492)" x="523.76" y="258.22"/><text x="239.33" y="-29.901"><tspan x="239.33" y="-29.901"/></text><text transform="scale(4.0128 .2492)" x="256.72" y="-469.14"/><text x="1337.38" y="-246.37"><tspan x="1337.38" y="-246.37"/></text><text transform="scale(4.0128 .2492)" x="530.36" y="-1337.8"/><text x="1918.65" y="-326.38"><tspan x="1918.65" y="-326.38"/></text><text transform="scale(4.0128 .2492)" x="675.21" y="-1658.84"/><text x="1529.53" y="-798.78"><tspan x="1529.53" y="-798.78"/></text><text transform="scale(4.0128 .2492)" x="578.24" y="-3554.49"/><text x="2110.79" y="-878.78"><tspan x="2110.79" y="-878.78"/></text><text transform="scale(4.0128 .2492)" x="723.09" y="-3875.52"/><text x="277.99" y="535.94"><tspan x="277.99" y="535.94"/></text><text x="729.64" y="231.36"><tspan x="729.64" y="231.36"/></text><text transform="scale(4.0128 .2492)" x="378.91" y="579.26"/><text x="1310.91" y="151.36"><tspan x="1310.91" y="151.36"/></text><text transform="scale(4.0128 .2492)" x="523.76" y="258.22"/><text x="239.33" y="-29.9"><tspan x="239.33" y="-29.9"/></text><text transform="scale(4.0128 .2492)" x="256.72" y="-469.13"/><text x="1337.38" y="-246.37"><tspan x="1337.38" y="-246.37"/></text><text transform="scale(4.0128 .2492)" x="530.36" y="-1337.8"/><text x="1918.65" y="-326.37"><tspan x="1918.65" y="-326.37"/></text><text transform="scale(4.0128 .2492)" x="675.21" y="-1658.83"/><text x="1529.53" y="-798.77"><tspan x="1529.53" y="-798.77"/></text><text transform="scale(4.0128 .2492)" x="578.24" y="-3554.48"/><text x="2110.79" y="-878.78"><tspan x="2110.79" y="-878.78"/></text><text transform="scale(4.0128 .2492)" x="723.09" y="-3875.52"/><text x="277.99" y="535.94"><tspan x="277.99" y="535.94"/></text><text x="729.64" y="231.36"><tspan x="729.64" y="231.36"/></text><text transform="scale(4.0128 .2492)" x="378.91" y="579.26"/><text x="1310.91" y="151.36"><tspan x="1310.91" y="151.36"/></text><text transform="scale(4.0128 .2492)" x="523.76" y="258.22"/><text x="239.33" y="-29.9"><tspan x="239.33" y="-29.9"/></text><text transform="scale(4.0128 .2492)" x="256.72" y="-469.13"/><text x="1337.38" y="-246.37"><tspan x="1337.38" y="-246.37"/></text><text transform="scale(4.0128 .2492)" x="530.36" y="-1337.8"/><text x="1918.65" y="-326.37"><tspan x="1918.65" y="-326.37"/></text><text transform="scale(4.0128 .2492)" x="675.21" y="-1658.83"/><text x="1529.53" y="-798.77"><tspan x="1529.53" y="-798.77"/></text><text transform="scale(4.0128 .2492)" x="578.24" y="-3554.48"/><text x="2110.79" y="-878.78"><tspan x="2110.79" y="-878.78"/></text><text transform="scale(4.0128 .2492)" x="723.09" y="-3875.52"/><text x="277.99" y="535.94"><tspan x="277.99" y="535.94"/></text><text x="729.64" y="231.36"><tspan x="729.64" y="231.36"/></text><text transform="scale(4.0128 .2492)" x="378.91" y="579.26"/><text x="1310.91" y="151.36"><tspan x="1310.91" y="151.36"/></text><text transform="scale(4.0128 .2492)" x="523.76" y="258.22"/><text x="239.33" y="-29.9"><tspan x="239.33" y="-29.9"/></text><text transform="scale(4.0128 .2492)" x="256.72" y="-469.13"/><text x="1337.38" y="-246.37"><tspan x="1337.38" y="-246.37"/></text><text transform="scale(4.0128 .2492)" x="530.36" y="-1337.8"/><text x="1918.65" y="-326.37"><tspan x="1918.65" y="-326.37"/></text><text transform="scale(4.0128 .2492)" x="675.21" y="-1658.83"/><text x="1529.53" y="-798.77"><tspan x="1529.53" y="-798.77"/></text><text transform="scale(4.0128 .2492)" x="578.24" y="-3554.48"/><text x="2110.79" y="-878.78"><tspan x="2110.79" y="-878.78"/></text><text transform="scale(4.0128 .2492)" x="723.09" y="-3875.52"/><text x="277.99" y="535.94"><tspan x="277.99" y="535.94"/></text><text x="729.64" y="231.36"><tspan x="729.64" y="231.36"/></text><text transform="scale(4.0128 .2492)" x="378.91" y="579.26"/><text x="1310.91" y="151.36"><tspan x="1310.91" y="151.36"/></text><text transform="scale(4.0128 .2492)" x="523.76" y="258.22"/><text x="239.33" y="-29.9"><tspan x="239.33" y="-29.9"/></text><text transform="scale(4.0128 .2492)" x="256.72" y="-469.13"/><text x="1337.38" y="-246.37"><tspan x="1337.38" y="-246.37"/></text><text transform="scale(4.0128 .2492)" x="530.36" y="-1337.8"/><text x="1918.65" y="-326.37"><tspan x="1918.65" y="-326.37"/></text><text transform="scale(4.0128 .2492)" x="675.21" y="-1658.83"/><text x="1529.53" y="-798.77"><tspan x="1529.53" y="-798.77"/></text><text transform="scale(4.0128 .2492)" x="578.24" y="-3554.48"/><text x="2110.79" y="-878.78"><tspan x="2110.79" y="-878.78"/></text><text transform="scale(4.0128 .2492)" x="723.09" y="-3875.52"/><text x="277.99" y="535.94"><tspan x="277.99" y="535.94"/></text><text x="729.64" y="231.36"><tspan x="729.64" y="231.36"/></text><text transform="scale(4.0128 .2492)" x="378.91" y="579.26"/><text x="1310.91" y="151.36"><tspan x="1310.91" y="151.36"/></text><text transform="scale(4.0128 .2492)" x="523.76" y="258.22"/><text x="239.33" y="-29.9"><tspan x="239.33" y="-29.9"/></text><text transform="scale(4.0128 .2492)" x="256.72" y="-469.13"/><text x="1337.38" y="-246.37"><tspan x="1337.38" y="-246.37"/></text><text transform="scale(4.0128 .2492)" x="530.36" y="-1337.8"/><text x="1918.65" y="-326.37"><tspan x="1918.65" y="-326.37"/></text><text transform="scale(4.0128 .2492)" x="675.21" y="-1658.83"/><text x="1529.53" y="-798.77"><tspan x="1529.53" y="-798.77"/></text><text transform="scale(4.0128 .2492)" x="578.24" y="-3554.48"/><text x="2110.79" y="-878.78"><tspan x="2110.79" y="-878.78"/></text><text transform="scale(4.0128 .2492)" x="723.09" y="-3875.52"/><text x="277.99" y="535.94"><tspan x="277.99" y="535.94"/></text><text x="729.64" y="231.36"><tspan x="729.64" y="231.36"/></text><text transform="scale(4.0128 .2492)" x="378.91" y="579.26"/><text x="1310.91" y="151.36"><tspan x="1310.91" y="151.36"/></text><text transform="scale(4.0128 .2492)" x="523.76" y="258.22"/><text x="239.33" y="-29.9"><tspan x="239.33" y="-29.9"/></text><text transform="scale(4.0128 .2492)" x="256.72" y="-469.13"/><text x="1337.38" y="-246.37"><tspan x="1337.38" y="-246.37"/></text><text transform="scale(4.0128 .2492)" x="530.36" y="-1337.8"/><text x="1918.65" y="-326.37"><tspan x="1918.65" y="-326.37"/></text><text transform="scale(4.0128 .2492)" x="675.21" y="-1658.83"/><text x="1529.53" y="-798.77"><tspan x="1529.53" y="-798.77"/></text><text transform="scale(4.0128 .2492)" x="578.24" y="-3554.48"/><text x="2110.79" y="-878.78"><tspan x="2110.79" y="-878.78"/></text><text transform="scale(4.0128 .2492)" x="723.09" y="-3875.52"/><text x="277.99" y="535.94"><tspan x="277.99" y="535.94"/></text><text x="729.64" y="231.36"><tspan x="729.64" y="231.36"/></text><text transform="scale(4.0128 .2492)" x="378.91" y="579.26"/><text x="1310.91" y="151.36"><tspan x="1310.91" y="151.36"/></text><text transform="scale(4.0128 .2492)" x="523.76" y="258.22"/><text x="239.33" y="-29.9"><tspan x="239.33" y="-29.9"/></text><text transform="scale(4.0128 .2492)" x="256.72" y="-469.13"/><text x="1337.38" y="-246.37"><tspan x="1337.38" y="-246.37"/></text><text transform="scale(4.0128 .2492)" x="530.36" y="-1337.8"/><text x="1918.65" y="-326.37"><tspan x="1918.65" y="-326.37"/></text><text transform="scale(4.0128 .2492)" x="675.21" y="-1658.83"/><text x="1529.53" y="-798.77"><tspan x="1529.53" y="-798.77"/></text><text transform="scale(4.0128 .2492)" x="578.24" y="-3554.48"/><text x="2110.79" y="-878.78"><tspan x="2110.79" y="-878.78"/></text><text transform="scale(4.0128 .2492)" x="723.09" y="-3875.52"/><text x="277.99" y="535.94"><tspan x="277.99" y="535.94"/></text><text x="729.64" y="231.36"><tspan x="729.64" y="231.36"/></text><text transform="scale(4.0128 .2492)" x="378.91" y="579.26"/><text x="1310.91" y="151.36"><tspan x="1310.91" y="151.36"/></text><text transform="scale(4.0128 .2492)" x="523.76" y="258.22"/><text x="239.33" y="-29.9"><tspan x="239.33" y="-29.9"/></text><text transform="scale(4.0128 .2492)" x="256.72" y="-469.13"/><text x="1337.38" y="-246.37"><tspan x="1337.38" y="-246.37"/></text><text transform="scale(4.0128 .2492)" x="530.36" y="-1337.8"/><text x="1918.65" y="-326.37"><tspan x="1918.65" y="-326.37"/></text><text transform="scale(4.0128 .2492)" x="675.21" y="-1658.83"/><text x="1529.53" y="-798.77"><tspan x="1529.53" y="-798.77"/></text><text transform="scale(4.0128 .2492)" x="578.24" y="-3554.48"/><text x="2110.79" y="-878.78"><tspan x="2110.79" y="-878.78"/></text><text transform="scale(4.0128 .2492)" x="723.09" y="-3875.52"/><text x="277.99" y="535.94"><tspan x="277.99" y="535.94"/></text><text x="729.64" y="231.36"><tspan x="729.64" y="231.36"/></text><text transform="scale(4.0128 .2492)" x="378.91" y="579.25"/><text x="1310.91" y="151.36"><tspan x="1310.91" y="151.36"/></text><text transform="scale(4.0128 .2492)" x="523.76" y="258.22"/><text x="239.33" y="-29.901"><tspan x="239.33" y="-29.901"/></text><text transform="scale(4.0128 .2492)" x="256.72" y="-469.14"/><text x="1337.38" y="-246.37"><tspan x="1337.38" y="-246.37"/></text><text transform="scale(4.0128 .2492)" x="530.36" y="-1337.8"/><text x="1918.65" y="-326.38"><tspan x="1918.65" y="-326.38"/></text><text transform="scale(4.0128 .2492)" x="675.21" y="-1658.84"/><text x="1529.53" y="-798.78"><tspan x="1529.53" y="-798.78"/></text><text transform="scale(4.0128 .2492)" x="578.24" y="-3554.49"/><text x="2110.79" y="-878.78"><tspan x="2110.79" y="-878.78"/></text><text transform="scale(4.0128 .2492)" x="723.09" y="-3875.52"/><text x="277.99" y="535.94"><tspan x="277.99" y="535.94"/></text><text x="729.64" y="231.36"><tspan x="729.64" y="231.36"/></text><text transform="scale(4.0128 .2492)" x="378.91" y="579.26"/><text x="1310.91" y="151.36"><tspan x="1310.91" y="151.36"/></text><text transform="scale(4.0128 .2492)" x="523.76" y="258.22"/><text x="239.33" y="-29.9"><tspan x="239.33" y="-29.9"/></text><text transform="scale(4.0128 .2492)" x="256.72" y="-469.13"/><text x="1337.38" y="-246.37"><tspan x="1337.38" y="-246.37"/></text><text transform="scale(4.0128 .2492)" x="530.36" y="-1337.8"/><text x="1918.65" y="-326.37"><tspan x="1918.65" y="-326.37"/></text><text transform="scale(4.0128 .2492)" x="675.21" y="-1658.83"/><text x="1529.53" y="-798.77"><tspan x="1529.53" y="-798.77"/></text><text transform="scale(4.0128 .2492)" x="578.24" y="-3554.48"/><text x="2110.79" y="-878.78"><tspan x="2110.79" y="-878.78"/></text><text transform="scale(4.0128 .2492)" x="723.09" y="-3875.52"/><text x="277.99" y="535.94"><tspan x="277.99" y="535.94"/></text><text x="729.64" y="231.36"><tspan x="729.64" y="231.36"/></text><text transform="scale(4.0128 .2492)" x="378.91" y="579.26"/><text x="1310.91" y="151.36"><tspan x="1310.91" y="151.36"/></text><text transform="scale(4.0128 .2492)" x="523.76" y="258.22"/><text x="239.33" y="-29.9"><tspan x="239.33" y="-29.9"/></text><text transform="scale(4.0128 .2492)" x="256.72" y="-469.13"/><text x="1337.38" y="-246.37"><tspan x="1337.38" y="-246.37"/></text><text transform="scale(4.0128 .2492)" x="530.36" y="-1337.8"/><text x="1918.65" y="-326.37"><tspan x="1918.65" y="-326.37"/></text><text transform="scale(4.0128 .2492)" x="675.21" y="-1658.83"/><text x="1529.53" y="-798.77"><tspan x="1529.53" y="-798.77"/></text><text transform="scale(4.0128 .2492)" x="578.24" y="-3554.48"/><text x="2110.79" y="-878.78"><tspan x="2110.79" y="-878.78"/></text><text transform="scale(4.0128 .2492)" x="723.09" y="-3875.52"/><text x="277.99" y="535.94"><tspan x="277.99" y="535.94"/></text><text x="729.64" y="231.36"><tspan x="729.64" y="231.36"/></text><text transform="scale(4.0128 .2492)" x="378.91" y="579.26"/><text x="1310.91" y="151.36"><tspan x="1310.91" y="151.36"/></text><text transform="scale(4.0128 .2492)" x="523.76" y="258.22"/><text x="239.33" y="-29.9"><tspan x="239.33" y="-29.9"/></text><text transform="scale(4.0128 .2492)" x="256.72" y="-469.13"/><text x="1337.38" y="-246.37"><tspan x="1337.38" y="-246.37"/></text><text transform="scale(4.0128 .2492)" x="530.36" y="-1337.8"/><text x="1918.65" y="-326.37"><tspan x="1918.65" y="-326.37"/></text><text transform="scale(4.0128 .2492)" x="675.21" y="-1658.83"/><text x="1529.53" y="-798.77"><tspan x="1529.53" y="-798.77"/></text><text transform="scale(4.0128 .2492)" x="578.24" y="-3554.48"/><text x="2110.79" y="-878.78"><tspan x="2110.79" y="-878.78"/></text><text transform="scale(4.0128 .2492)" x="723.09" y="-3875.52"/><text x="277.99" y="535.94"><tspan x="277.99" y="535.94"/></text><text x="729.64" y="231.36"><tspan x="729.64" y="231.36"/></text><text transform="scale(4.0128 .2492)" x="378.91" y="579.25"/><text x="1310.91" y="151.36"><tspan x="1310.91" y="151.36"/></text><text transform="scale(4.0128 .2492)" x="523.76" y="258.22"/><text x="239.33" y="-29.901"><tspan x="239.33" y="-29.901"/></text><text transform="scale(4.0128 .2492)" x="256.72" y="-469.14"/><text x="1337.38" y="-246.37"><tspan x="1337.38" y="-246.37"/></text><text transform="scale(4.0128 .2492)" x="530.36" y="-1337.8"/><text x="1918.65" y="-326.38"><tspan x="1918.65" y="-326.38"/></text><text transform="scale(4.0128 .2492)" x="675.21" y="-1658.84"/><text x="1529.53" y="-798.78"><tspan x="1529.53" y="-798.78"/></text><text transform="scale(4.0128 .2492)" x="578.24" y="-3554.49"/><text x="2110.79" y="-878.78"><tspan x="2110.79" y="-878.78"/></text><text transform="scale(4.0128 .2492)" x="723.09" y="-3875.52"/><text x="277.99" y="535.94"><tspan x="277.99" y="535.94"/></text><text x="729.64" y="231.36"><tspan x="729.64" y="231.36"/></text><text transform="scale(4.0128 .2492)" x="378.91" y="579.26"/><text x="1310.91" y="151.36"><tspan x="1310.91" y="151.36"/></text><text transform="scale(4.0128 .2492)" x="523.76" y="258.22"/><text x="239.33" y="-29.9"><tspan x="239.33" y="-29.9"/></text><text transform="scale(4.0128 .2492)" x="256.72" y="-469.13"/><text x="1337.38" y="-246.37"><tspan x="1337.38" y="-246.37"/></text><text transform="scale(4.0128 .2492)" x="530.36" y="-1337.8"/><text x="1918.65" y="-326.37"><tspan x="1918.65" y="-326.37"/></text><text transform="scale(4.0128 .2492)" x="675.21" y="-1658.83"/><text x="1529.53" y="-798.77"><tspan x="1529.53" y="-798.77"/></text><text transform="scale(4.0128 .2492)" x="578.24" y="-3554.48"/><text x="2110.79" y="-878.78"><tspan x="2110.79" y="-878.78"/></text><text transform="scale(4.0128 .2492)" x="723.09" y="-3875.52"/><text x="277.99" y="535.94"><tspan x="277.99" y="535.94"/></text><text x="729.64" y="231.36"><tspan x="729.64" y="231.36"/></text><text transform="scale(4.0128 .2492)" x="378.91" y="579.26"/><text x="1310.91" y="151.36"><tspan x="1310.91" y="151.36"/></text><text transform="scale(4.0128 .2492)" x="523.76" y="258.22"/><text x="239.33" y="-29.9"><tspan x="239.33" y="-29.9"/></text><text transform="scale(4.0128 .2492)" x="256.72" y="-469.13"/><text x="1337.38" y="-246.37"><tspan x="1337.38" y="-246.37"/></text><text transform="scale(4.0128 .2492)" x="530.36" y="-1337.8"/><text x="1918.65" y="-326.37"><tspan x="1918.65" y="-326.37"/></text><text transform="scale(4.0128 .2492)" x="675.21" y="-1658.83"/><text x="1529.53" y="-798.77"><tspan x="1529.53" y="-798.77"/></text><text transform="scale(4.0128 .2492)" x="578.24" y="-3554.48"/><text x="2110.79" y="-878.78"><tspan x="2110.79" y="-878.78"/></text><text transform="scale(4.0128 .2492)" x="723.09" y="-3875.52"/><text x="277.99" y="535.94"><tspan x="277.99" y="535.94"/></text><text x="1400.21" y="254.18"><tspan x="1400.21" y="254.18"/></text><text transform="scale(4.0128 .2492)" x="546.02" y="670.84"/><text x="1981.48" y="174.18"><tspan x="1981.48" y="174.18"/></text><text transform="scale(4.0128 .2492)" x="690.87" y="349.8"/><text x="909.9" y="-7.08"><tspan x="909.9" y="-7.08"/></text><text transform="scale(4.0128 .2492)" x="423.83" y="-377.54"/><text x="2007.95" y="-223.55"><tspan x="2007.95" y="-223.55"/></text><text transform="scale(4.0128 .2492)" x="697.47" y="-1246.22"/><text x="2589.22" y="-303.55"><tspan x="2589.22" y="-303.55"/></text><text transform="scale(4.0128 .2492)" x="842.31" y="-1567.25"/><text x="2200.1" y="-775.95"><tspan x="2200.1" y="-775.95"/></text><text transform="scale(4.0128 .2492)" x="745.34" y="-3462.9"/><text x="2781.36" y="-855.96"><tspan x="2781.36" y="-855.96"/></text><text transform="scale(4.0128 .2492)" x="890.19" y="-3783.94"/><text x="948.56" y="558.76"><tspan x="948.56" y="558.76"/></text><text x="-25832.7" y="1355.95"><tspan x="-25832.7" y="1355.95"/></text><text transform="scale(4.0128 .2492)" x="956.76" y="-7658.9"/><text x="-25967.45" y="2268"><tspan x="-25967.45" y="2268"/></text><text transform="scale(4.0128 .2492)" x="923.22" y="-3999.05"/><g fill="#555753"><text transform="scale(1.0508 .95163)" x="-11566.28" y="-4779.66"><tspan x="-11566.28" y="-4779.66"/></text><text transform="scale(4.2168 .23715)" x="1656.58" y="-27220.93"/><text transform="scale(1.0508 .95163)" x="-2163.44" y="-5604.67"><tspan x="-2163.44" y="-5604.67"/></text><text transform="scale(4.2168 .23715)" x="1890.69" y="-26795.03"/><text x="-38167.25" y="-1757.71"><tspan x="-38167.25" y="-1757.71"/></text><text transform="scale(4.0128 .2492)" x="-2412.65" y="-19628.94"/></g><text stroke="#cd1d31" stroke-width="23.273" x="-23984.15" y="-13984.27"><tspan x="-23984.15" y="-13984.27"/></text><text transform="scale(4.0128 .2492)" x="1417.56" y="-69216.59"/><text stroke="#cd1d31" stroke-width="23.273" x="-24119.13" y="-13072.22"><tspan x="-24119.13" y="-13072.22"/></text><text transform="scale(4.0128 .2492)" x="1383.88" y="-65556.5"/><g fill="#555753"><g stroke="#cd1d31" stroke-width="23.273"><text transform="scale(1.0508 .95163)" x="-9807.11" y="-20899.68"><tspan x="-9807.11" y="-20899.68"/></text><text transform="scale(4.2168 .23715)" x="2095.02" y="-91907.86"/><text transform="scale(1.0508 .95163)" x="-404.5" y="-21724.46"><tspan x="-404.5" y="-21724.46"/></text><text transform="scale(4.2168 .23715)" x="2328.91" y="-91481.97"/><text x="-36318.69" y="-17097.93"><tspan x="-36318.69" y="-17097.93"/></text></g><text transform="scale(4.0128 .2492)" x="-1952.09" y="-81186.62"/></g><text stroke="#cd1d31" stroke-width="23.273" x="-7008.32" y="-20673.79"><tspan x="-7008.32" y="-20673.79"/></text><text transform="scale(4.0128 .2492)" x="5352.02" y="-95535.81"/><text stroke="#cd1d31" stroke-width="23.273" x="13928.29" y="-23555.42"><tspan x="13928.29" y="-23555.42"/></text><text transform="scale(4.0128 .2492)" x="10569.51" y="-107099.05"/><text x="-38471.66000000001" y="6656.54"><tspan x="-38471.66000000001" y="6656.54"/></text><text transform="scale(4.0128 .2492)" x="-2192.72" y="13611.8"/><text x="5516.6" y="-747.91"><tspan x="5516.6" y="-747.91"/></text><text transform="scale(4.0128 .2492)" x="5961.3" y="-11126.76"/><text x="19044.34" y="-2609.73"><tspan x="19044.34" y="-2609.73"/></text><text transform="scale(4.0128 .2492)" x="9332.34" y="-18598.2"/><text x="-5894.26" y="-6828.14"><tspan x="-5894.26" y="-6828.14"/></text><text transform="scale(4.0128 .2492)" x="3117.62" y="-35525.53"/><text x="19660.37" y="-11866.04"><tspan x="19660.37" y="-11866.04"/></text><text transform="scale(4.0128 .2492)" x="9485.94" y="-55741.98"/><text x="33187.87000000001" y="-13727.81"><tspan x="33187.87000000001" y="-13727.81"/></text><text transform="scale(4.0128 .2492)" x="12856.98" y="-63213.19"/><text x="24131.99" y="-24721.85"><tspan x="24131.99" y="-24721.85"/></text><text transform="scale(4.0128 .2492)" x="10600.23" y="-107330.14"/><text x="37659.73000000001" y="-26583.9"><tspan x="37659.73000000001" y="-26583.9"/></text><text transform="scale(4.0128 .2492)" x="13971.27" y="-114801.57"/><text x="-4994.77" y="6340.5"><tspan x="-4994.77" y="6340.5"/></text><text x="-26707.06" y="1355.01"><tspan x="-26707.06" y="1355.01"/></text><text transform="scale(4.0128 .2492)" x="738.93" y="-7662.86"/><text x="-26841.81" y="2267.07"><tspan x="-26841.81" y="2267.07"/></text><text transform="scale(4.0128 .2492)" x="705.34" y="-4002.78"/><g fill="#555753"><text transform="scale(1.0508 .95163)" x="-12398.28" y="-4780.82"><tspan x="-12398.28" y="-4780.82"/></text><text transform="scale(4.2168 .23715)" x="1449.2" y="-27225.12"/><text transform="scale(1.0508 .95163)" x="-2995.67" y="-5605.83"><tspan x="-2995.67" y="-5605.83"/></text><text transform="scale(4.2168 .23715)" x="1683.32" y="-26798.99"/><text x="-39041.61" y="-1758.64"><tspan x="-39041.61" y="-1758.64"/></text><text transform="scale(4.0128 .2492)" x="-2630.48" y="-19632.9"/></g><text stroke="#cd1d31" stroke-width="23.273" x="-24858.51" y="-13985.2"><tspan x="-24858.51" y="-13985.2"/></text><text transform="scale(4.0128 .2492)" x="1199.58" y="-69220.3"/><text stroke="#cd1d31" stroke-width="23.273" x="-24993.25" y="-13073.15"><tspan x="-24993.25" y="-13073.15"/></text><text transform="scale(4.0128 .2492)" x="1165.98" y="-65560.46"/><g fill="#555753"><g stroke="#cd1d31" stroke-width="23.273"><text transform="scale(1.0508 .95163)" x="-10639.1" y="-20900.61"><tspan x="-10639.1" y="-20900.61"/></text><text transform="scale(4.2168 .23715)" x="1887.61" y="-91912.05"/><text transform="scale(1.0508 .95163)" x="-1236.49" y="-21725.62"><tspan x="-1236.49" y="-21725.62"/></text><text transform="scale(4.2168 .23715)" x="2121.67" y="-91485.92"/><text x="-37193.06" y="-17098.87"><tspan x="-37193.06" y="-17098.87"/></text></g><text transform="scale(4.0128 .2492)" x="-2169.92" y="-81190.58"/></g><text stroke="#cd1d31" stroke-width="23.273" x="-7882.68" y="-20674.72"><tspan x="-7882.68" y="-20674.72"/></text><text transform="scale(4.0128 .2492)" x="5134.19" y="-95539.77"/><text stroke="#cd1d31" stroke-width="23.273" x="13053.93" y="-23556.35"><tspan x="13053.93" y="-23556.35"/></text><text transform="scale(4.0128 .2492)" x="10351.44" y="-107103.01"/><text x="-397.47" y="555.36"><tspan x="-397.47" y="555.36"/></text><text transform="scale(4.0128 .2492)" x="132.91" y="1817"/><text x="982.46" y="322.87"><tspan x="982.46" y="322.87"/></text><text transform="scale(4.0128 .2492)" x="388.72" y="1041.09"/><text x="1406.86" y="264.45"><tspan x="1406.86" y="264.45"/></text><text transform="scale(4.0128 .2492)" x="494.49" y="806.51"/><text x="624.48" y="132.27"><tspan x="624.48" y="132.27"/></text><text transform="scale(4.0128 .2492)" x="299.54" y="275.43"/><text x="1426.2" y="-25.757"><tspan x="1426.2" y="-25.757"/></text><text transform="scale(4.0128 .2492)" x="499.31" y="-358.75"/><text x="1850.58" y="-84.17"><tspan x="1850.58" y="-84.17"/></text><text transform="scale(4.0128 .2492)" x="605.11" y="-593.11"/><text x="1566.49" y="-429.07"><tspan x="1566.49" y="-429.07"/></text><text transform="scale(4.0128 .2492)" x="534.36" y="-1977.13"/><text x="1990.89" y="-487.49"><tspan x="1990.89" y="-487.49"/></text><text transform="scale(4.0128 .2492)" x="640.02" y="-2211.48"/><text x="652.71" y="545.36"><tspan x="652.71" y="545.36"/></text><text x="-25857.25" y="1367.3"><tspan x="-25857.25" y="1367.3"/></text><text transform="scale(4.0128 .2492)" x="950.64" y="-7613.32"/><text x="-25991.99" y="2279.36"><tspan x="-25991.99" y="2279.36"/></text><text transform="scale(4.0128 .2492)" x="917.11" y="-3953.47"/><g fill="#555753"><text transform="scale(1.0508 .95163)" x="-11589.64" y="-4767.72"><tspan x="-11589.64" y="-4767.72"/></text><text transform="scale(4.2168 .23715)" x="1650.76" y="-27173.03"/><text transform="scale(1.0508 .95163)" x="-2186.8" y="-5592.73"><tspan x="-2186.8" y="-5592.73"/></text><text transform="scale(4.2168 .23715)" x="1884.86" y="-26747.14"/><text x="-38191.79" y="-1746.35"><tspan x="-38191.79" y="-1746.35"/></text><text transform="scale(4.0128 .2492)" x="-2418.77" y="-19583.36"/></g><text stroke="#cd1d31" stroke-width="23.273" x="-24008.69" y="-13972.92"><tspan x="-24008.69" y="-13972.92"/></text><text transform="scale(4.0128 .2492)" x="1411.44" y="-69171.01"/><text stroke="#cd1d31" stroke-width="23.273" x="-24143.68" y="-13060.86"><tspan x="-24143.68" y="-13060.86"/></text><text transform="scale(4.0128 .2492)" x="1377.76" y="-65510.93"/><g fill="#555753"><g stroke="#cd1d31" stroke-width="23.273"><text transform="scale(1.0508 .95163)" x="-9830.46" y="-20887.74"><tspan x="-9830.46" y="-20887.74"/></text><text transform="scale(4.2168 .23715)" x="2089.2" y="-91859.96"/><text transform="scale(1.0508 .95163)" x="-427.85" y="-21712.52"><tspan x="-427.85" y="-21712.52"/></text><text transform="scale(4.2168 .23715)" x="2323.09" y="-91434.06"/><text x="-36343.24" y="-17086.57"><tspan x="-36343.24" y="-17086.57"/></text></g><text transform="scale(4.0128 .2492)" x="-1958.2" y="-81141.05"/></g><text stroke="#cd1d31" stroke-width="23.273" x="-7032.87" y="-20662.43"><tspan x="-7032.87" y="-20662.43"/></text><text transform="scale(4.0128 .2492)" x="5345.91" y="-95490.23"/><text stroke="#cd1d31" stroke-width="23.273" x="13903.75" y="-23544.06"><tspan x="13903.75" y="-23544.06"/></text><text transform="scale(4.0128 .2492)" x="10563.4" y="-107053.46"/><text x="-25391.16" y="1829.69"><tspan x="-25391.16" y="1829.69"/></text><text transform="scale(4.0128 .2492)" x="1066.79" y="-5757.79"/><text x="-25525.9" y="2741.75"><tspan x="-25525.9" y="2741.75"/></text><text transform="scale(4.0128 .2492)" x="1033.26" y="-2097.94"/><g fill="#555753"><text transform="scale(1.0508 .95163)" x="-11146.09" y="-4281.92"><tspan x="-11146.09" y="-4281.92"/></text><text transform="scale(4.2168 .23715)" x="1761.3" y="-25223.87"/><text transform="scale(1.0508 .95163)" x="-1743.25" y="-5106.94"><tspan x="-1743.25" y="-5106.94"/></text><text transform="scale(4.2168 .23715)" x="1995.4" y="-24797.75"/><text x="-37725.7" y="-1283.96"><tspan x="-37725.7" y="-1283.96"/></text><text transform="scale(4.0128 .2492)" x="-2302.62" y="-17727.82"/></g><text stroke="#cd1d31" stroke-width="23.273" x="-23542.6" y="-13510.53"><tspan x="-23542.6" y="-13510.53"/></text><text transform="scale(4.0128 .2492)" x="1527.59" y="-67315.48"/><text stroke="#cd1d31" stroke-width="23.273" x="-23677.58" y="-12598.47"><tspan x="-23677.58" y="-12598.47"/></text><text transform="scale(4.0128 .2492)" x="1493.91" y="-63655.39"/><g fill="#555753"><g stroke="#cd1d31" stroke-width="23.273"><text transform="scale(1.0508 .95163)" x="-9386.91" y="-20401.71"><tspan x="-9386.91" y="-20401.71"/></text><text transform="scale(4.2168 .23715)" x="2199.73" y="-89910.81"/><text transform="scale(1.0508 .95163)" x="15.696" y="-21226.73"><tspan x="15.696" y="-21226.73"/></text><text transform="scale(4.2168 .23715)" x="2433.63" y="-89484.69"/><text x="-35877.14" y="-16624.19"><tspan x="-35877.14" y="-16624.19"/></text></g><text transform="scale(4.0128 .2492)" x="-1842.05" y="-79285.51"/></g><text stroke="#cd1d31" stroke-width="23.273" x="-6566.77" y="-20200.04"><tspan x="-6566.77" y="-20200.04"/></text><text transform="scale(4.0128 .2492)" x="5462.06" y="-93634.7"/><text stroke="#cd1d31" stroke-width="23.273" x="14369.84" y="-23081.67"><tspan x="14369.84" y="-23081.67"/></text><text transform="scale(4.0128 .2492)" x="10679.55" y="-105197.94"/><g fill="#fff"><text x="556.67" y="795.2"><tspan x="556.67" y="795.2"/></text><text x="556.66" y="795.22"><tspan x="556.66" y="795.22"/></text></g><text x="1400.21" y="254.18"><tspan x="1400.21" y="254.18"/></text><text transform="scale(4.0128 .2492)" x="546.02" y="670.83"/><text x="1981.48" y="174.18"><tspan x="1981.48" y="174.18"/></text><text transform="scale(4.0128 .2492)" x="690.87" y="349.8"/><text x="909.9" y="-7.078"><tspan x="909.9" y="-7.078"/></text><text transform="scale(4.0128 .2492)" x="423.83" y="-377.55"/><text x="2007.95" y="-223.55"><tspan x="2007.95" y="-223.55"/></text><text transform="scale(4.0128 .2492)" x="697.47" y="-1246.22"/><text x="2589.22" y="-303.56"><tspan x="2589.22" y="-303.56"/></text><text transform="scale(4.0128 .2492)" x="842.31" y="-1567.26"/><text x="2200.1" y="-775.96"><tspan x="2200.1" y="-775.96"/></text><text transform="scale(4.0128 .2492)" x="745.34" y="-3462.91"/><text x="2781.36" y="-855.96"><tspan x="2781.36" y="-855.96"/></text><text transform="scale(4.0128 .2492)" x="890.19" y="-3783.94"/><text x="948.56" y="558.76"><tspan x="948.56" y="558.76"/></text><text x="2294.04" y="406.05"><tspan x="2294.04" y="406.05"/></text><text transform="scale(4.0128 .2492)" x="768.76" y="1280.23"/><text x="2875.31" y="326.05"><tspan x="2875.31" y="326.05"/></text><text transform="scale(4.0128 .2492)" x="913.61" y="959.21"/><text x="1803.73" y="144.79"><tspan x="1803.73" y="144.79"/></text><text transform="scale(4.0128 .2492)" x="646.57" y="231.85"/><text x="2901.78" y="-71.68"><tspan x="2901.78" y="-71.68"/></text><text transform="scale(4.0128 .2492)" x="920.21" y="-636.82"/><text x="3483.05" y="-151.69"><tspan x="3483.05" y="-151.69"/></text><text transform="scale(4.0128 .2492)" x="1065.06" y="-957.85"/><text x="3093.93" y="-624.09"><tspan x="3093.93" y="-624.09"/></text><text transform="scale(4.0128 .2492)" x="968.09" y="-2853.5"/><text x="3675.19" y="-704.09"><tspan x="3675.19" y="-704.09"/></text><text transform="scale(4.0128 .2492)" x="1112.94" y="-3174.53"/><text fill="#fff" x="1842.39" y="710.63"><tspan x="1842.39" y="710.63"/></text><text x="874.56" y="195"><tspan x="874.56" y="195"/></text><text transform="scale(4.0128 .2492)" x="415.03" y="433.32"/><text x="1455.83" y="115"><tspan x="1455.83" y="115"/></text><text transform="scale(4.0128 .2492)" x="559.87" y="112.3"/><text x="384.25" y="-66.26"><tspan x="384.25" y="-66.26"/></text><text transform="scale(4.0128 .2492)" x="292.84" y="-615.05"/><text x="1482.3" y="-282.73"><tspan x="1482.3" y="-282.73"/></text><text transform="scale(4.0128 .2492)" x="566.47" y="-1483.72"/><text x="2063.57" y="-362.74"><tspan x="2063.57" y="-362.74"/></text><text transform="scale(4.0128 .2492)" x="711.32" y="-1804.75"/><text x="1674.45" y="-835.14"><tspan x="1674.45" y="-835.14"/></text><text transform="scale(4.0128 .2492)" x="614.35" y="-3700.4"/><text x="2255.71" y="-915.14"><tspan x="2255.71" y="-915.14"/></text><text transform="scale(4.0128 .2492)" x="759.2" y="-4021.42"/><text x="422.91" y="499.58"><tspan x="422.91" y="499.58"/></text><text x="346.37" y="529.6"><tspan x="346.37" y="529.6"/></text><text transform="scale(4.0128 .2492)" x="283.4" y="1775.99"/><text x="927.64" y="449.59"><tspan x="927.64" y="449.59"/></text><text transform="scale(4.0128 .2492)" x="428.25" y="1454.97"/><text x="-143.94" y="268.33"><tspan x="-143.94" y="268.33"/></text><text transform="scale(4.0128 .2492)" x="161.21" y="727.61"/><text x="954.11" y="51.865"><tspan x="954.11" y="51.865"/></text><text transform="scale(4.0128 .2492)" x="434.84" y="-141.05"/><text x="1535.38" y="-28.14"><tspan x="1535.38" y="-28.14"/></text><text transform="scale(4.0128 .2492)" x="579.69" y="-462.08"/><text x="1146.26" y="-500.54"><tspan x="1146.26" y="-500.54"/></text><text transform="scale(4.0128 .2492)" x="482.72" y="-2357.73"/><text x="1727.52" y="-580.54"><tspan x="1727.52" y="-580.54"/></text><text transform="scale(4.0128 .2492)" x="627.57" y="-2678.75"/><text x="-105.28" y="834.18"><tspan x="-105.28" y="834.18"/></text><text x="1427.83" y="272.59"><tspan x="1427.83" y="272.59"/></text><text transform="scale(4.0128 .2492)" x="552.9" y="744.7"/><text x="2009.1" y="192.59"><tspan x="2009.1" y="192.59"/></text><text transform="scale(4.0128 .2492)" x="697.75" y="423.67"/><text x="937.52" y="11.33"><tspan x="937.52" y="11.33"/></text><text transform="scale(4.0128 .2492)" x="430.71" y="-303.68"/><text x="2035.57" y="-205.14"><tspan x="2035.57" y="-205.14"/></text><text transform="scale(4.0128 .2492)" x="704.35" y="-1172.35"/><text x="2616.84" y="-285.15"><tspan x="2616.84" y="-285.15"/></text><text transform="scale(4.0128 .2492)" x="849.2" y="-1493.39"/><text x="2227.72" y="-757.55"><tspan x="2227.72" y="-757.55"/></text><text transform="scale(4.0128 .2492)" x="752.23" y="-3389.04"/><text x="2808.98" y="-837.55"><tspan x="2808.98" y="-837.55"/></text><text transform="scale(4.0128 .2492)" x="897.08" y="-3710.07"/><text x="976.18" y="577.17"><tspan x="976.18" y="577.17"/></text><text x="-951.57" y="-30.16"><tspan x="-951.57" y="-30.16"/></text><text transform="scale(4.0128 .2492)" x="67.884" y="-661.41"/><text x="891.49" y="-346.18"><tspan x="891.49" y="-346.18"/></text><text transform="scale(4.0128 .2492)" x="419.24" y="-1738.33"/><text x="1472.76" y="-426.18"><tspan x="1472.76" y="-426.18"/></text><text transform="scale(4.0128 .2492)" x="564.09" y="-2059.35"/><text x="401.18" y="-607.44"><tspan x="401.18" y="-607.44"/></text><text transform="scale(4.0128 .2492)" x="297.05" y="-2786.7"/><text x="1499.23" y="-823.91"><tspan x="1499.23" y="-823.91"/></text><text transform="scale(4.0128 .2492)" x="570.69" y="-3655.37"/><text x="2080.5" y="-903.92"><tspan x="2080.5" y="-903.92"/></text><text transform="scale(4.0128 .2492)" x="715.54" y="-3976.4"/><text x="1691.38" y="-1376.32"><tspan x="1691.38" y="-1376.32"/></text><text transform="scale(4.0128 .2492)" x="618.57" y="-5872.04"/><text x="2272.64" y="-1456.32"><tspan x="2272.64" y="-1456.32"/></text><text transform="scale(4.0128 .2492)" x="763.42" y="-6193.06"/><text x="439.84" y="-41.597"><tspan x="439.84" y="-41.597"/></text><text x="-951.57" y="-30.16"><tspan x="-951.57" y="-30.16"/></text><text transform="scale(4.0128 .2492)" x="67.884" y="-661.41"/><text x="729.64" y="231.36"><tspan x="729.64" y="231.36"/></text><text transform="scale(4.0128 .2492)" x="378.91" y="579.25"/><text x="1310.91" y="151.36"><tspan x="1310.91" y="151.36"/></text><text transform="scale(4.0128 .2492)" x="523.76" y="258.22"/><text x="239.33" y="-29.901"><tspan x="239.33" y="-29.901"/></text><text transform="scale(4.0128 .2492)" x="256.72" y="-469.14"/><text x="1337.38" y="-246.37"><tspan x="1337.38" y="-246.37"/></text><text transform="scale(4.0128 .2492)" x="530.36" y="-1337.8"/><text x="1918.65" y="-326.38"><tspan x="1918.65" y="-326.38"/></text><text transform="scale(4.0128 .2492)" x="675.21" y="-1658.84"/><text x="1529.53" y="-798.78"><tspan x="1529.53" y="-798.78"/></text><text transform="scale(4.0128 .2492)" x="578.24" y="-3554.49"/><text x="2110.79" y="-878.78"><tspan x="2110.79" y="-878.78"/></text><text transform="scale(4.0128 .2492)" x="723.09" y="-3875.52"/><text x="277.99" y="535.94"><tspan x="277.99" y="535.94"/></text><text x="729.64" y="233.53"><tspan x="729.64" y="233.53"/></text><text transform="scale(4.0128 .2492)" x="378.91" y="587.96"/><text x="1310.91" y="153.53"><tspan x="1310.91" y="153.53"/></text><text transform="scale(4.0128 .2492)" x="523.76" y="266.93"/><text x="239.33" y="-27.731"><tspan x="239.33" y="-27.731"/></text><text transform="scale(4.0128 .2492)" x="256.72" y="-460.42"/><text x="1337.38" y="-244.2"><tspan x="1337.38" y="-244.2"/></text><text transform="scale(4.0128 .2492)" x="530.36" y="-1329.1"/><text x="1918.65" y="-324.2"><tspan x="1918.65" y="-324.2"/></text><text transform="scale(4.0128 .2492)" x="675.21" y="-1650.12"/><text x="1529.53" y="-796.6"><tspan x="1529.53" y="-796.6"/></text><text transform="scale(4.0128 .2492)" x="578.24" y="-3545.77"/><text x="2110.79" y="-876.61"><tspan x="2110.79" y="-876.61"/></text><text transform="scale(4.0128 .2492)" x="723.09" y="-3866.81"/><text x="277.99" y="538.11"><tspan x="277.99" y="538.11"/></text><text x="729.64" y="231.36"><tspan x="729.64" y="231.36"/></text><text transform="scale(4.0128 .2492)" x="378.91" y="579.26"/><text x="1310.91" y="151.36"><tspan x="1310.91" y="151.36"/></text><text transform="scale(4.0128 .2492)" x="523.76" y="258.22"/><text x="239.33" y="-29.9"><tspan x="239.33" y="-29.9"/></text><text transform="scale(4.0128 .2492)" x="256.72" y="-469.13"/><text x="1337.38" y="-246.37"><tspan x="1337.38" y="-246.37"/></text><text transform="scale(4.0128 .2492)" x="530.36" y="-1337.8"/><text x="1918.65" y="-326.37"><tspan x="1918.65" y="-326.37"/></text><text transform="scale(4.0128 .2492)" x="675.21" y="-1658.83"/><text x="1529.53" y="-798.77"><tspan x="1529.53" y="-798.77"/></text><text transform="scale(4.0128 .2492)" x="578.24" y="-3554.48"/><text x="2110.79" y="-878.78"><tspan x="2110.79" y="-878.78"/></text><text transform="scale(4.0128 .2492)" x="723.09" y="-3875.52"/><text x="277.99" y="535.94"><tspan x="277.99" y="535.94"/></text><text x="968.53" y="-503.34"><tspan x="968.53" y="-503.34"/></text><text transform="scale(4.0128 .2492)" x="438.44" y="-2368.97"/><text x="1549.8" y="-583.34"><tspan x="1549.8" y="-583.34"/></text><text transform="scale(4.0128 .2492)" x="583.29" y="-2690.01"/><text x="478.22" y="-764.6"><tspan x="478.22" y="-764.6"/></text><text transform="scale(4.0128 .2492)" x="316.25" y="-3417.36"/><text x="1576.27" y="-981.07"><tspan x="1576.27" y="-981.07"/></text><text transform="scale(4.0128 .2492)" x="589.89" y="-4286.02"/><text x="2157.54" y="-1061.07"><tspan x="2157.54" y="-1061.07"/></text><text transform="scale(4.0128 .2492)" x="734.74" y="-4607.05"/><text x="1768.42" y="-1533.47"><tspan x="1768.42" y="-1533.47"/></text><text transform="scale(4.0128 .2492)" x="637.77" y="-6502.69"/><text x="2349.68" y="-1613.48"><tspan x="2349.68" y="-1613.48"/></text><text transform="scale(4.0128 .2492)" x="782.62" y="-6823.73"/><text x="516.88" y="-198.76"><tspan x="516.88" y="-198.76"/></text><text x="729.64" y="231.36"><tspan x="729.64" y="231.36"/></text><text transform="scale(4.0128 .2492)" x="378.91" y="579.26"/><text x="1310.91" y="151.36"><tspan x="1310.91" y="151.36"/></text><text transform="scale(4.0128 .2492)" x="523.76" y="258.22"/><text x="239.33" y="-29.9"><tspan x="239.33" y="-29.9"/></text><text transform="scale(4.0128 .2492)" x="256.72" y="-469.13"/><text x="1337.38" y="-246.37"><tspan x="1337.38" y="-246.37"/></text><text transform="scale(4.0128 .2492)" x="530.36" y="-1337.8"/><text x="1918.65" y="-326.37"><tspan x="1918.65" y="-326.37"/></text><text transform="scale(4.0128 .2492)" x="675.21" y="-1658.83"/><text x="1529.53" y="-798.77"><tspan x="1529.53" y="-798.77"/></text><text transform="scale(4.0128 .2492)" x="578.24" y="-3554.48"/><text x="2110.79" y="-878.78"><tspan x="2110.79" y="-878.78"/></text><text transform="scale(4.0128 .2492)" x="723.09" y="-3875.52"/><text x="277.99" y="535.94"><tspan x="277.99" y="535.94"/></text><text x="729.64" y="231.36"><tspan x="729.64" y="231.36"/></text><text transform="scale(4.0128 .2492)" x="378.91" y="579.26"/><text x="1310.91" y="151.36"><tspan x="1310.91" y="151.36"/></text><text transform="scale(4.0128 .2492)" x="523.76" y="258.22"/><text x="239.33" y="-29.9"><tspan x="239.33" y="-29.9"/></text><text transform="scale(4.0128 .2492)" x="256.72" y="-469.13"/><text x="1337.38" y="-246.37"><tspan x="1337.38" y="-246.37"/></text><text transform="scale(4.0128 .2492)" x="530.36" y="-1337.8"/><text x="1918.65" y="-326.37"><tspan x="1918.65" y="-326.37"/></text><text transform="scale(4.0128 .2492)" x="675.21" y="-1658.83"/><text x="1529.53" y="-798.77"><tspan x="1529.53" y="-798.77"/></text><text transform="scale(4.0128 .2492)" x="578.24" y="-3554.48"/><text x="2110.79" y="-878.78"><tspan x="2110.79" y="-878.78"/></text><text transform="scale(4.0128 .2492)" x="723.09" y="-3875.52"/><text x="277.99" y="535.94"><tspan x="277.99" y="535.94"/></text><text x="968.53" y="-503.34"><tspan x="968.53" y="-503.34"/></text><text transform="scale(4.0128 .2492)" x="438.44" y="-2368.97"/><text x="1549.8" y="-583.34"><tspan x="1549.8" y="-583.34"/></text><text transform="scale(4.0128 .2492)" x="583.29" y="-2690.01"/><text x="478.22" y="-764.6"><tspan x="478.22" y="-764.6"/></text><text transform="scale(4.0128 .2492)" x="316.25" y="-3417.36"/><text x="1576.27" y="-981.07"><tspan x="1576.27" y="-981.07"/></text><text transform="scale(4.0128 .2492)" x="589.89" y="-4286.02"/><text x="2157.54" y="-1061.07"><tspan x="2157.54" y="-1061.07"/></text><text transform="scale(4.0128 .2492)" x="734.74" y="-4607.05"/><text x="1768.42" y="-1533.47"><tspan x="1768.42" y="-1533.47"/></text><text transform="scale(4.0128 .2492)" x="637.77" y="-6502.69"/><text x="2349.68" y="-1613.48"><tspan x="2349.68" y="-1613.48"/></text><text transform="scale(4.0128 .2492)" x="782.62" y="-6823.73"/><text x="516.88" y="-198.76"><tspan x="516.88" y="-198.76"/></text><text x="729.64" y="231.36"><tspan x="729.64" y="231.36"/></text><text transform="scale(4.0128 .2492)" x="378.91" y="579.26"/><text x="1310.91" y="151.36"><tspan x="1310.91" y="151.36"/></text><text transform="scale(4.0128 .2492)" x="523.76" y="258.22"/><text x="239.33" y="-29.9"><tspan x="239.33" y="-29.9"/></text><text transform="scale(4.0128 .2492)" x="256.72" y="-469.13"/><text x="1337.38" y="-246.37"><tspan x="1337.38" y="-246.37"/></text><text transform="scale(4.0128 .2492)" x="530.36" y="-1337.8"/><text x="1918.65" y="-326.37"><tspan x="1918.65" y="-326.37"/></text><text transform="scale(4.0128 .2492)" x="675.21" y="-1658.83"/><text x="1529.53" y="-798.77"><tspan x="1529.53" y="-798.77"/></text><text transform="scale(4.0128 .2492)" x="578.24" y="-3554.48"/><text x="2110.79" y="-878.78"><tspan x="2110.79" y="-878.78"/></text><text transform="scale(4.0128 .2492)" x="723.09" y="-3875.52"/><text x="277.99" y="535.94"><tspan x="277.99" y="535.94"/></text><text x="729.64" y="231.36"><tspan x="729.64" y="231.36"/></text><text transform="scale(4.0128 .2492)" x="378.91" y="579.26"/><text x="1310.91" y="151.36"><tspan x="1310.91" y="151.36"/></text><text transform="scale(4.0128 .2492)" x="523.76" y="258.22"/><text x="239.33" y="-29.9"><tspan x="239.33" y="-29.9"/></text><text transform="scale(4.0128 .2492)" x="256.72" y="-469.13"/><text x="1337.38" y="-246.37"><tspan x="1337.38" y="-246.37"/></text><text transform="scale(4.0128 .2492)" x="530.36" y="-1337.8"/><text x="1918.65" y="-326.37"><tspan x="1918.65" y="-326.37"/></text><text transform="scale(4.0128 .2492)" x="675.21" y="-1658.83"/><text x="1529.53" y="-798.77"><tspan x="1529.53" y="-798.77"/></text><text transform="scale(4.0128 .2492)" x="578.24" y="-3554.48"/><text x="2110.79" y="-878.78"><tspan x="2110.79" y="-878.78"/></text><text transform="scale(4.0128 .2492)" x="723.09" y="-3875.52"/><text x="277.99" y="535.94"><tspan x="277.99" y="535.94"/></text><text x="729.64" y="231.36"><tspan x="729.64" y="231.36"/></text><text transform="scale(4.0128 .2492)" x="378.91" y="579.26"/><text x="1310.91" y="151.36"><tspan x="1310.91" y="151.36"/></text><text transform="scale(4.0128 .2492)" x="523.76" y="258.22"/><text x="239.33" y="-29.9"><tspan x="239.33" y="-29.9"/></text><text transform="scale(4.0128 .2492)" x="256.72" y="-469.13"/><text x="1337.38" y="-246.37"><tspan x="1337.38" y="-246.37"/></text><text transform="scale(4.0128 .2492)" x="530.36" y="-1337.8"/><text x="1918.65" y="-326.37"><tspan x="1918.65" y="-326.37"/></text><text transform="scale(4.0128 .2492)" x="675.21" y="-1658.83"/><text x="1529.53" y="-798.77"><tspan x="1529.53" y="-798.77"/></text><text transform="scale(4.0128 .2492)" x="578.24" y="-3554.48"/><text x="2110.79" y="-878.78"><tspan x="2110.79" y="-878.78"/></text><text transform="scale(4.0128 .2492)" x="723.09" y="-3875.52"/><text x="277.99" y="535.94"><tspan x="277.99" y="535.94"/></text><text x="729.64" y="231.36"><tspan x="729.64" y="231.36"/></text><text transform="scale(4.0128 .2492)" x="378.91" y="579.26"/><text x="1310.91" y="151.36"><tspan x="1310.91" y="151.36"/></text><text transform="scale(4.0128 .2492)" x="523.76" y="258.22"/><text x="239.33" y="-29.9"><tspan x="239.33" y="-29.9"/></text><text transform="scale(4.0128 .2492)" x="256.72" y="-469.13"/><text x="1337.38" y="-246.37"><tspan x="1337.38" y="-246.37"/></text><text transform="scale(4.0128 .2492)" x="530.36" y="-1337.8"/><text x="1918.65" y="-326.37"><tspan x="1918.65" y="-326.37"/></text><text transform="scale(4.0128 .2492)" x="675.21" y="-1658.83"/><text x="1529.53" y="-798.77"><tspan x="1529.53" y="-798.77"/></text><text transform="scale(4.0128 .2492)" x="578.24" y="-3554.48"/><text x="2110.79" y="-878.78"><tspan x="2110.79" y="-878.78"/></text><text transform="scale(4.0128 .2492)" x="723.09" y="-3875.52"/><text x="277.99" y="535.94"><tspan x="277.99" y="535.94"/></text><text x="729.64" y="231.36"><tspan x="729.64" y="231.36"/></text><text transform="scale(4.0128 .2492)" x="378.91" y="579.26"/><text x="1310.91" y="151.36"><tspan x="1310.91" y="151.36"/></text><text transform="scale(4.0128 .2492)" x="523.76" y="258.22"/><text x="239.33" y="-29.9"><tspan x="239.33" y="-29.9"/></text><text transform="scale(4.0128 .2492)" x="256.72" y="-469.13"/><text x="1337.38" y="-246.37"><tspan x="1337.38" y="-246.37"/></text><text transform="scale(4.0128 .2492)" x="530.36" y="-1337.8"/><text x="1918.65" y="-326.37"><tspan x="1918.65" y="-326.37"/></text><text transform="scale(4.0128 .2492)" x="675.21" y="-1658.83"/><text x="1529.53" y="-798.77"><tspan x="1529.53" y="-798.77"/></text><text transform="scale(4.0128 .2492)" x="578.24" y="-3554.48"/><text x="2110.79" y="-878.78"><tspan x="2110.79" y="-878.78"/></text><text transform="scale(4.0128 .2492)" x="723.09" y="-3875.52"/><text x="277.99" y="535.94"><tspan x="277.99" y="535.94"/></text><text x="729.64" y="231.36"><tspan x="729.64" y="231.36"/></text><text transform="scale(4.0128 .2492)" x="378.91" y="579.26"/><text x="1310.91" y="151.36"><tspan x="1310.91" y="151.36"/></text><text transform="scale(4.0128 .2492)" x="523.76" y="258.22"/><text x="239.33" y="-29.9"><tspan x="239.33" y="-29.9"/></text><text transform="scale(4.0128 .2492)" x="256.72" y="-469.13"/><text x="1337.38" y="-246.37"><tspan x="1337.38" y="-246.37"/></text><text transform="scale(4.0128 .2492)" x="530.36" y="-1337.8"/><text x="1918.65" y="-326.37"><tspan x="1918.65" y="-326.37"/></text><text transform="scale(4.0128 .2492)" x="675.21" y="-1658.83"/><text x="1529.53" y="-798.77"><tspan x="1529.53" y="-798.77"/></text><text transform="scale(4.0128 .2492)" x="578.24" y="-3554.48"/><text x="2110.79" y="-878.78"><tspan x="2110.79" y="-878.78"/></text><text transform="scale(4.0128 .2492)" x="723.09" y="-3875.52"/><text x="277.99" y="535.94"><tspan x="277.99" y="535.94"/></text><path d="m471.95 253.05c0 120.9-98.01 218.91-218.91 218.91s-218.91-98.01-218.91-218.91 98.01-218.91 218.91-218.91 218.91 98.01 218.91 218.91" fill="#8255af" fill-rule="evenodd"/><path d="m234.41 113.56c-79.49.48-139.27 83.35-128.29 161.75 2.12 34.59 14 59.34 36.54 83.97 9.79 10.7 20.47 20.66 31.12 30.06 28.41 27.43 56.95 54.97 85.47 82.5 101.26-2.82 185.31-74.37 207.16-169.68-6.8-3.86-22.48-.66-32.82-1.69-105.49-101.99.44-.35-195.37-186.88-1.27-.03-2.55-.04-3.81-.03" opacity=".25"/><path d="m238.22 113.59c-76.72 0-138.88 63.761-138.88 142.41 0 78.65 62.18 142.41 138.91 142.41h178.47c7.425-8.355 14.222-17.294 20.312-26.719h-198.78c-62.33 0-112.88-51.792-112.88-115.69s50.54-115.72 112.88-115.72v-26.688h-.031zm.031 35.594c-57.54 0-104.16 47.829-104.16 106.81 0 58.984 46.615 106.78 104.16 106.78h204.22c4.962-8.548 9.368-17.457 13.156-26.688h-217.38c-43.16 0-78.16-35.852-78.16-80.09s34.994-80.12 78.16-80.12c10.486 0 20.461 2.162 29.594 6l9.875-24.75c-12.535-5.265-25.92-7.938-39.469-7.938zm0 35.594c-38.36 0-69.44 31.897-69.44 71.22 0 39.32 31.07 71.19 69.44 71.19h220.82c3.12-8.667 5.701-17.583 7.719-26.719h-228.53c-23.974 0-43.37-19.894-43.37-44.47 0-24.577 19.401-44.5 43.38-44.5 11.987 0 22.835 5.01 30.688 13.06l18.438-18.906c-13.03-13.352-30.701-20.875-49.12-20.875z" fill="#fff"/><g fill-rule="evenodd"><path d="m256 1c-140.83 0-255 114.17-255 255s114.17 255 255 255 255-114.17 255-255-114.17-255-255-255m8.827 44.931c120.9 0 218.9 98 218.9 218.9s-98 218.9-218.9 218.9-218.93-98-218.93-218.9 98.03-218.9 218.93-218.9" fill-opacity=".067"/><g fill-opacity=".129"><path d="m256 4.43c-138.94 0-251.57 112.63-251.57 251.57s112.63 251.57 251.57 251.57 251.57-112.63 251.57-251.57-112.63-251.57-251.57-251.57m5.885 38.556c120.9 0 218.9 98 218.9 218.9s-98 218.9-218.9 218.9-218.93-98-218.93-218.9 98.03-218.9 218.93-218.9"/><path d="m256 8.36c-136.77 0-247.64 110.87-247.64 247.64s110.87 247.64 247.64 247.64 247.64-110.87 247.64-247.64-110.87-247.64-247.64-247.64m2.942 31.691c120.9 0 218.9 98 218.9 218.9s-98 218.9-218.9 218.9-218.93-98-218.93-218.9 98.03-218.9 218.93-218.9"/></g><path d="m253.04 7.86c-135.42 0-245.19 109.78-245.19 245.19 0 135.42 109.78 245.19 245.19 245.19 135.42 0 245.19-109.78 245.19-245.19 0-135.42-109.78-245.19-245.19-245.19zm0 26.297c120.9 0 218.9 98 218.9 218.9s-98 218.9-218.9 218.9-218.93-98-218.93-218.9 98.03-218.9 218.93-218.9z" fill="#fff" stroke="#000" stroke-opacity=".31" stroke-width="4.904"/></g><text x="729.64" y="231.36"><tspan x="729.64" y="231.36"/></text><text transform="scale(4.0128 .2492)" x="378.91" y="579.26"/><text x="1310.91" y="151.36"><tspan x="1310.91" y="151.36"/></text><text transform="scale(4.0128 .2492)" x="523.76" y="258.22"/><text x="239.33" y="-29.9"><tspan x="239.33" y="-29.9"/></text><text transform="scale(4.0128 .2492)" x="256.72" y="-469.13"/><text x="1337.38" y="-246.37"><tspan x="1337.38" y="-246.37"/></text><text transform="scale(4.0128 .2492)" x="530.36" y="-1337.8"/><text x="1918.65" y="-326.37"><tspan x="1918.65" y="-326.37"/></text><text transform="scale(4.0128 .2492)" x="675.21" y="-1658.83"/><text x="1529.53" y="-798.77"><tspan x="1529.53" y="-798.77"/></text><text transform="scale(4.0128 .2492)" x="578.24" y="-3554.48"/><text x="2110.79" y="-878.78"><tspan x="2110.79" y="-878.78"/></text><text transform="scale(4.0128 .2492)" x="723.09" y="-3875.52"/><text x="277.99" y="535.94"><tspan x="277.99" y="535.94"/></text></svg>