<svg width="9.2mm" height="8.5mm" version="1.1" viewBox="0 0 9.2 8.5" xmlns="http://www.w3.org/2000/svg">
 <g transform="matrix(.26458 0 0 .26458 -3.8104 2.6205)" stop-color="#000000" stroke-width="1px" aria-label="co ">
  <path d="m30.393 13.201q-0.96354 0.5599-2.0703 0.83333-1.1068 0.28646-2.3828 0.28646-3.3724 0-5.2734-2.0313t-1.901-5.625q0-3.6068 1.9141-5.638 1.9141-2.0443 5.2865-2.0443 1.1719 0 2.2526 0.27344 1.0938 0.27344 2.1745 0.84636v3.4896q-0.83333-0.71615-1.8359-1.0938-0.98958-0.39063-2.0573-0.39063-1.862 0-2.8646 1.1849t-1.0026 3.3724 1.0026 3.3594 2.8646 1.1719q1.1068 0 2.0703-0.36458 0.96354-0.3776 1.8229-1.1328z"/>
  <path d="m37.824 2.1069q-1.3672 0-2.1484 1.2109-0.78125 1.1979-0.78125 3.3464t0.78125 3.3594q0.78125 1.1979 2.1484 1.1979 1.3802 0 2.1615-1.1979 0.78125-1.2109 0.78125-3.3594t-0.78125-3.3464q-0.78125-1.2109-2.1615-1.2109zm-6.7448 4.5573q0-3.5287 1.8229-5.5859 1.8359-2.0703 4.9219-2.0703 3.099 0 4.9219 2.0703 1.8359 2.0573 1.8359 5.5859 0 3.5287-1.8359 5.599-1.8229 2.0573-4.9219 2.0573-3.0859 0-4.9219-2.0573-1.8229-2.0703-1.8229-5.599z"/>
 </g>
 <g transform="translate(-.14601 -.13867)">
  <path d="m1.6085 0.20844-1.2011 4.1331 1.3498 4.2071" fill="none" stroke="#000" stroke-width=".5"/>
  <path d="m7.8436 0.20844 1.2011 4.1331-1.3498 4.2071" fill="none" stroke="#000" stroke-width=".5"/>
 </g>
</svg>
