<svg width="9.58mm" height="6.52mm" version="1.1" viewBox="0 0 9.58 6.52" xmlns="http://www.w3.org/2000/svg">
 <g transform="translate(-.10494 -.087492)" stroke-width="1px">
  <g transform="matrix(.26458 0 0 .26458 -4.8876 2.0553)" stop-color="#000000" aria-label="{CS ">
   <path d="m30.289 14.685v2.487h-1.9531q-3.2422 0-4.349-0.96354-1.0938-0.96354-1.0938-3.8412v-2.7995q0-1.9661-0.70313-2.7083-0.6901-0.75521-2.513-0.75521h-0.80729v-2.487h0.80729q1.8229 0 2.513-0.74219 0.70313-0.74219 0.70313-2.7214v-2.7995q0-2.8776 1.0938-3.8281 1.1068-0.96354 4.349-0.96354h1.9531v2.474h-1.6016q-1.3542 0-1.8099 0.54688t-0.45573 2.4089v2.7214q0 2.1484-0.63802 3.0208t-2.2786 1.1198q1.6406 0.27344 2.2786 1.1589 0.63802 0.88542 0.63802 3.0208v2.6693q0 1.875 0.45573 2.4219 0.45573 0.5599 1.8099 0.5599z"/>
   <path d="m40.938 13.383q-0.91146 0.46875-1.9141 0.70313-1.0026 0.23438-2.1094 0.23438-3.9323 0-6.0026-2.5911t-2.0703-7.487q0-4.9089 2.0703-7.5t6.0026-2.5911q1.1068 0 2.1224 0.23438t1.901 0.70313v4.2708q-0.98958-0.91146-1.9271-1.3281-0.92448-0.42969-1.9141-0.42969-2.1094 0-3.1901 1.6797-1.0677 1.6667-1.0677 4.9609 0 3.2813 1.0677 4.9609 1.0807 1.6667 3.1901 1.6667 0.98958 0 1.9141-0.41667 0.9375-0.42969 1.9271-1.3411z"/>
   <path d="m47.258 5.4142q-2.9036-1.1068-3.9323-2.3177-1.0286-1.224-1.0286-3.2813 0-2.6432 1.6927-4.1537 1.6927-1.5104 4.6484-1.5104 1.3411 0 2.6823 0.3125 1.3411 0.29948 2.6563 0.89844v3.75q-1.237-0.8724-2.513-1.3281-1.276-0.45573-2.526-0.45573-1.3932 0-2.1354 0.5599-0.74219 0.5599-0.74219 1.6016 0 0.80729 0.53386 1.3411 0.54688 0.52083 2.2656 1.1589l1.6536 0.625q2.3438 0.85938 3.4505 2.2786 1.1068 1.4193 1.1068 3.5807 0 2.9427-1.7448 4.401-1.7318 1.4453-5.2474 1.4453-1.4453 0-2.9036-0.35156-1.4453-0.33854-2.7995-1.0156v-3.9714q1.5365 1.0938 2.9688 1.6276 1.4453 0.53386 2.8516 0.53386 1.4193 0 2.2005-0.63802 0.78125-0.65104 0.78125-1.8099 0-0.8724-0.52083-1.5234-0.52083-0.66406-1.5104-1.0417z"/>
  </g>
 </g>
</svg>
