<svg width="9.2mm" height="8.5mm" version="1.1" viewBox="0 0 9.2 8.5" xmlns="http://www.w3.org/2000/svg">
 <g transform="translate(-.14601 -.13867)" fill="none" stroke="#000" stroke-width=".5">
  <path d="m1.6085 0.20844-1.2011 4.1331 1.3498 4.2071"/>
  <path d="m7.8436 0.20844 1.2011 4.1331-1.3498 4.2071"/>
 </g>
 <path transform="matrix(.26458 0 0 .26458 -1.1503 .56418)" d="m11.776 17.722c1.02 0.79333 2.04 1.2693 3.06 1.2693 2.516 0 4.76-2.1987 4.76-5.9387 0-3.4227-1.5187-5.6213-4.352-5.6213-1.292 0-2.516 0.70267-3.5133 1.5413h-0.068l-0.15867-1.2693h-1.5413v15.663h1.8587v-3.7173zm0.04533-1.4507v-5.78c1.088-0.97467 2.0173-1.496 2.9467-1.496 2.0853 0 2.9013 1.632 2.9013 4.0573 0 2.72-1.3373 4.3747-3.1507 4.3747-0.72534 0-1.7-0.31733-2.6973-1.156zm8.7513 2.448h1.8587v-7.072c0.748-1.8587 1.8587-2.5387 2.788-2.5387 0.45333 0 0.70267 0.068 1.0653 0.18133l0.36267-1.632c-0.36267-0.15867-0.70267-0.22667-1.1787-0.22667-1.2467 0-2.38 0.884-3.128 2.2667h-0.068l-0.15867-1.9947h-1.5413zm4.8526-5.4853c0 3.604 2.3347 5.7573 5.2813 5.7573 1.496 0 2.6747-0.52133 3.6267-1.1333l-0.65733-1.224c-0.816 0.52133-1.7 0.86134-2.7427 0.86134-2.108 0-3.536-1.496-3.672-3.876h7.4347c0.04533-0.272 0.068-0.63467 0.068-1.02 0-3.1507-1.5867-5.168-4.3973-5.168-2.516 0-4.9413 2.1987-4.9413 5.8027zm1.8133-0.83867c0.22667-2.2213 1.632-3.4907 3.1733-3.4907 1.7227 0 2.72 1.2467 2.72 3.4907z" stroke-width="1px" aria-label="pre"/>
</svg>
