<?xml version="1.0" encoding="UTF-8"?>
<svg width="35.975mm" height="42.323mm" version="1.1" viewBox="0 0 35.975 42.323" xmlns="http://www.w3.org/2000/svg">
 <g id="SVGRepo_iconCarrier" transform="scale(2.1162)" fill="#4d4d4d">
  <title>apple [#173]</title>
  <desc>Created with Sketch.</desc>
  <g fill="#4d4d4d" fill-rule="evenodd">
   <g id="Dribbble-Light-Preview" transform="translate(-102,-7439)" fill="#4d4d4d">
    <g id="icons" transform="translate(56,160)" fill="#4d4d4d">
     <path id="apple-[#173]" d="m57.571 7282.2c0.72907-0.845 1.2205-2.022 1.086-3.193-1.0506 0.04-2.3217 0.671-3.075 1.515-0.67649 0.749-1.267 1.9459-1.1083 3.0939 1.172 0.087 2.3682-0.57 3.0973-1.4159m2.6281 7.4318c0.02933 3.027 2.7707 4.034 2.801 4.047-0.02225 0.071-0.43785 1.435-1.444 2.8449-0.87064 1.218-1.7736 2.431-3.1964 2.457-1.3975 0.025-1.8475-0.794-3.4462-0.794-1.5977 0-2.0972 0.768-3.4199 0.819-1.3732 0.049-2.4198-1.318-3.2965-2.5319-1.7939-2.483-3.164-7.017-1.3237-10.077 0.91412-1.519 2.5472-2.482 4.3208-2.506 1.3479-0.025 2.621 0.869 3.4451 0.869s2.3713-1.075 3.9973-0.917c0.68054 0.027 2.5917 0.263 3.8183 1.984-0.0991 0.059-2.2802 1.275-2.256 3.8049" fill="#4d4d4d"/>
    </g>
   </g>
  </g>
 </g>
 <path d="m28.466 32.385a0.92904 0.92904 0 0 0-1.191 0.55557l-6.3323-2.305 6.3323-2.304a0.92904 0.92904 0 1 0 0.55557-1.191 0.92904 0.92904 0 1 0-1.1901-0.55464l-8.4134 3.0621-8.4134-3.0621a0.92887 0.92887 0 1 0-1.7457-0.63546 0.92718 0.92718 0 0 0 0.55557 1.1901 0.92718 0.92718 0 0 0-1.1901 0.5565 0.92871 0.92871 0 1 0 1.7457 0.63453l6.3323 2.304-6.3314 2.304a0.92904 0.92904 0 1 0-0.55556 1.1901 0.92904 0.92904 0 1 0 1.1901 0.55557l8.4125-3.0603 8.4125 3.0612a0.92904 0.92904 0 1 0 1.1901-0.55557 0.92904 0.92904 0 1 0 0.6364-1.7457z" fill="#fff" stroke-width=".92904"/>
 <path d="m18.228 15.771c-3.7162 0-5.5742 3.0092-5.5742 5.5742 0 1.2951 0.76832 2.2288 1.8581 2.8373v1.8079a0.92904 0.92904 0 1 0 1.8581 0v-1.1297c0.30658 0.06689 0.61781 0.11798 0.92904 0.1505v0.97921a0.92904 0.92904 0 1 0 1.8581 0v-0.97921c0.31124-0.03336 0.62246-0.0836 0.92904-0.1505v1.1297a0.92904 0.92904 0 1 0 1.8581 0v-1.8079c1.0898-0.6076 1.8581-1.5413 1.8581-2.8373 0-2.5651-1.8581-5.5742-5.5742-5.5742zm-2.3226 6.5033c-0.77018 0-1.3936 0-1.3936-1.3936a1.3936 1.3936 0 0 1 1.3936-1.3936c1.3936 0 1.3936 0.62338 1.3936 1.3936 0 0.77017-0.62339 1.3936-1.3936 1.3936zm2.3226 1.8581c-0.51283 0-0.92904-0.20812-0.92904-0.46452 0-0.25643 0.41621-0.46452 0.92904-0.46452 0.51283 0 0.92904 0.20812 0.92904 0.46452 0 0.25643-0.41621 0.46452-0.92904 0.46452zm2.3226-1.8581c-0.76925 0-1.3936-0.62339-1.3936-1.3936 0-0.77018 0-1.3936 1.3936-1.3936a1.3936 1.3936 0 0 1 1.3936 1.3936c0 1.3936-0.62432 1.3936-1.3936 1.3936z" fill="#fff" stroke-width=".92904"/>
</svg>
