<?xml version="1.0" encoding="UTF-8"?>
<svg width="30mm" height="30mm" version="1.1" viewBox="0 0 30 30" xmlns="http://www.w3.org/2000/svg">
 <path d="m10.814 0c-0.57797 0-1.0464 0.46848-1.0464 1.0464v1.8516c-0.36271 0.027656-0.70594 0.062765-1.0309 0.10645-1.6359 0.21995-2.9602 0.68332-4.0044 1.7275-1.0442 1.0442-1.5076 2.3685-1.7275 4.0044-0.043688 0.325-0.078798 0.66824-0.10645 1.0309h-1.8516c-0.57797 0-1.0464 0.46848-1.0464 1.0464 0 0.57797 0.46848 1.0464 1.0464 1.0464h1.7622c-0.012502 0.65023-0.01647 1.3475-0.01757 2.0934h-1.7446c-0.57797 0-1.0464 0.46849-1.0464 1.0464 0 0.57795 0.46848 1.0464 1.0464 1.0464h1.7446c0.001102 0.74595 0.005068 1.4427 0.01757 2.0929h-1.7622c-0.57797 0-1.0464 0.4685-1.0464 1.0464 0 0.57795 0.46848 1.0464 1.0464 1.0464h1.8516c0.027656 0.36265 0.062765 0.70648 0.10645 1.0315 0.21995 1.6359 0.68332 2.9601 1.7275 4.0044 1.0442 1.0441 2.3685 1.5075 4.0044 1.7275 0.325 0.043674 0.66824 0.078309 1.0309 0.10594v1.8516c0 0.57795 0.46848 1.047 1.0464 1.047 0.57797 0 1.0464-0.46901 1.0464-1.047v-1.7616c0.65023 0.0124 1.3475 0.015953 2.0934 0.017053v1.7446c0 0.57795 0.46849 1.047 1.0464 1.047 0.57795 0 1.0464-0.46901 1.0464-1.047v-1.7446c0.74595-0.00111 1.4427-0.004633 2.0929-0.017053v1.7616c0 0.57795 0.4685 1.047 1.0464 1.047s1.0464-0.46901 1.0464-1.047v-1.8516c0.36265-0.027626 0.70648-0.062267 1.0315-0.10594 1.6359-0.22005 2.9601-0.6834 4.0044-1.7275 1.0441-1.0443 1.5075-2.3685 1.7275-4.0044 0.043676-0.32498 0.078307-0.66881 0.10594-1.0315h1.8516c0.57795 0 1.047-0.4685 1.047-1.0464s-0.46901-1.0464-1.047-1.0464h-1.7616c0.0124-0.65023 0.015953-1.3469 0.017053-2.0929h1.7446c0.57795 0 1.047-0.4685 1.047-1.0464 0-0.57795-0.46901-1.0464-1.047-1.0464h-1.7446c-0.00111-0.74595-0.004633-1.4432-0.017053-2.0934h1.7616c0.57795 0 1.047-0.46848 1.047-1.0464 0-0.57797-0.46901-1.0464-1.047-1.0464h-1.8516c-0.027626-0.36271-0.062267-0.70594-0.10594-1.0309-0.22005-1.6359-0.6834-2.9602-1.7275-4.0044-1.0443-1.0442-2.3685-1.5076-4.0044-1.7275-0.32498-0.043688-0.66881-0.078798-1.0315-0.10645v-1.8516c0-0.57797-0.4685-1.0464-1.0464-1.0464-0.57795 0-1.0464 0.46848-1.0464 1.0464v1.7622c-0.65023-0.012502-1.3469-0.01647-2.0929-0.01757v-1.7446c0-0.57797-0.4685-1.0464-1.0464-1.0464-0.57795 0-1.0464 0.46848-1.0464 1.0464v1.7446c-0.74595 0.001102-1.4432 0.005068-2.0934 0.01757v-1.7622c0-0.57797-0.46848-1.0464-1.0464-1.0464zm4.1863 4.8839c2.6607 0 4.5506 0.0020249 5.9846 0.19482 1.4037 0.18873 2.2129 0.54274 2.8034 1.1333 0.59051 0.59053 0.9441 1.3991 1.1327 2.8029 0.19287 1.4339 0.19534 3.3245 0.19534 5.9852s-0.0025 4.5506-0.19534 5.9846c-0.18865 1.4037-0.54224 2.2129-1.1327 2.8034-0.59051 0.59051-1.3997 0.9441-2.8034 1.1327-1.434 0.19287-3.324 0.19534-5.9846 0.19534s-4.5512-0.0025-5.9852-0.19534c-1.4038-0.18865-2.2124-0.54224-2.8029-1.1327-0.59053-0.59051-0.94453-1.3997-1.1333-2.8034-0.19279-1.434-0.19482-3.324-0.19482-5.9846s0.0020249-4.5512 0.19482-5.9852c0.18873-1.4038 0.54274-2.2124 1.1333-2.8029 0.59053-0.59053 1.3991-0.94453 2.8029-1.1333 1.4339-0.19279 3.3245-0.19482 5.9852-0.19482zm7.3241 3.282v5.3604h1.2335v-5.3604h-1.2335zm-15.751 0.21704v5.1434h1.3265v-5.1434h-1.3265zm7.7065 0.18965v1.0955h-0.61288v0.8816h0.61288v1.6366c0 0.48691 0.10123 0.83274 0.30334 1.0371 0.20441 0.20211 0.55024 0.30282 1.0371 0.30282h1.0573v-0.8816h-0.63355c-0.2113 0-0.35255-0.031004-0.42375-0.093017-0.071198-0.064309-0.10697-0.18621-0.10697-0.36535v-1.6366h1.2712v-0.8816h-1.2712v-1.0955h-1.2335zm-2.6179 1.0025c-0.25264 0-0.48346 0.053801-0.69246 0.16175-0.209 0.10565-0.40669 0.27101-0.59273 0.49609v-0.56482h-1.2335v3.8582h1.2335v-1.8981c0-0.3514 0.073667-0.62569 0.22066-0.82321 0.14699-0.19982 0.34893-0.29972 0.60616-0.29972 0.10565 0 0.19999 0.022796 0.28267 0.06873 0.08268 0.043637 0.14814 0.10565 0.19637 0.18604 0.036747 0.059714 0.061668 0.15273 0.075448 0.27905 0.01608 0.12632 0.024288 0.35582 0.024288 0.68885v1.4159 0.3824h1.2402v-2.3492c0-0.52136-0.11581-0.91886-0.34778-1.1922-0.22967-0.27331-0.56729-0.40979-1.0129-0.40979zm7.7272 0c-0.66605 0-1.1897 0.17995-1.571 0.54054-0.37896 0.36059-0.56844 0.85588-0.56844 1.4852 0 0.64079 0.19292 1.139 0.57878 1.495 0.38815 0.3537 0.93115 0.53072 1.6294 0.53072 0.29168 0 0.58371-0.028879 0.8754-0.086299 0.29168-0.055122 0.5832-0.1378 0.87488-0.24805v-0.95085c-0.28709 0.15618-0.56746 0.27331-0.84078 0.3514-0.27101 0.075792-0.53629 0.11369-0.79582 0.11369-0.32154 0-0.57171-0.072347-0.75086-0.21704-0.17914-0.14469-0.28382-0.36173-0.31368-0.65112h2.8835v-0.3514c0-0.61093-0.18259-1.0988-0.54777-1.464-0.36288-0.36518-0.84732-0.54777-1.4537-0.54777zm-0.006718 0.81959c0.22049 0 0.39831 0.072347 0.53382 0.21704 0.1378 0.1424 0.20671 0.33107 0.20671 0.56534h-1.602c0.036748-0.25264 0.12977-0.44557 0.27905-0.57878 0.14929-0.13551 0.34353-0.2036 0.58239-0.2036zm0.27182 6.7882c-0.48518 0-0.86753 0.1579-1.1467 0.47439-0.27767 0.315-0.41651 0.74885-0.41651 1.3012 0 0.53893 0.11868 0.95544 0.35605 1.2495 0.23886 0.2926 0.57585 0.43873 1.0103 0.43873 0.39412 0 0.7082-0.10749 0.94258-0.32246 0.23438-0.21647 0.3514-0.50367 0.3514-0.86196 0-0.32395-0.10525-0.58595-0.31574-0.786-0.209-0.20004-0.48444-0.30024-0.82631-0.30024-0.13585 0-0.26125 0.019008-0.3762 0.056328-0.11495 0.035829-0.22135 0.090146-0.31988 0.1633 0.023886-0.28066 0.10732-0.49173 0.25063-0.63355 0.14332-0.14332 0.34319-0.21497 0.59996-0.21497 0.11943 0 0.24202 0.016253 0.36742 0.049093 0.1254 0.03135 0.25919 0.080615 0.40101 0.14779v-0.61805c-0.14182-0.047771-0.28514-0.0836-0.42995-0.10749-0.14481-0.023886-0.29427-0.035656-0.44804-0.035656zm-12.507 0.05581-1.2382 3.3435h0.86661l0.21291-0.60926h1.3477l0.21084 0.60926h0.86661l-1.2387-3.3435h-1.0278zm2.7099 0v3.3435h0.817v-2.4453l0.7705 1.8025h0.54622l0.7705-1.8025v2.4453h0.81494v-3.3435h-1.095l-0.76584 1.789-0.76119-1.789h-1.0971zm4.5635 0v3.3435h0.90899c0.5016 0 0.87781-0.035829 1.1286-0.10749 0.2508-0.07315 0.46578-0.19631 0.64492-0.36949 0.15675-0.15078 0.2732-0.32487 0.34933-0.52193 0.076137-0.19855 0.1142-0.42415 0.1142-0.67644 0-0.24931-0.038068-0.47215-0.1142-0.66921-0.076136-0.19706-0.19258-0.37115-0.34933-0.52193-0.17765-0.17317-0.39096-0.29576-0.64027-0.36742-0.24782-0.073151-0.62569-0.10955-1.1333-0.10955h-0.90899zm8.122 0-1.3389 1.9952v0.73897h1.4821v0.60926h0.81545v-0.60926h0.47697v-0.62477h-0.47697v-2.1094h-0.9586zm-7.26 0.65164h0.30902c0.35381 0 0.62362 0.086759 0.80874 0.25993 0.18512 0.17317 0.2775 0.42512 0.2775 0.75654 0 0.33291-0.093477 0.58704-0.28009 0.76171-0.18512 0.17467-0.45383 0.262-0.80615 0.262h-0.30902v-2.0402zm7.4032 0.058394v1.3994h-0.94464l0.94464-1.3994zm-15.023 0.073898 0.45682 1.3302h-0.91571l0.45889-1.3302zm11.803 0.90899c0.15227 0 0.2659 0.049265 0.34055 0.1478 0.076137 0.097037 0.1142 0.24317 0.1142 0.43873 0 0.19557-0.038068 0.34279-0.1142 0.44132-0.074643 0.097037-0.18827 0.14573-0.34055 0.14573-0.15078 0-0.26441-0.048691-0.34055-0.14573-0.074644-0.09853-0.11162-0.24575-0.11162-0.44132 0-0.19557 0.036978-0.3417 0.11162-0.43873 0.076136-0.09853 0.18977-0.1478 0.34055-0.1478z" fill="#ffa614" stroke-width="1.3954"/>
</svg>
