<svg width="69.023mm" height="51.183mm" version="1.1" viewBox="0 0 69.023 51.183" xmlns="http://www.w3.org/2000/svg">
 <path class="c" d="m57.741 0c-15.526 6e-3 -31.053 0.01-46.579 0.0155-2.7077 0-3.4107 1.505-3.5522 2.6572l-0.015 29.075 2e-3 3.5248c-2.0635 3.1284-4.1342 6.252-6.212 9.3705-0.48471 0.72998-1.1286 1.4752-1.3069 2.3549-0.078 0.49511-0.13541 1.6332 0.0212 2.3952 0.29925 1.0529 1.2577 1.7819 2.3523 1.789 21.375 3e-3 42.751 0 64.126 0 1.0618-8e-3 1.9996-0.69397 2.328-1.7038 0.0936-0.36019 0.13037-0.73278 0.10903-1.1043 0.0269-0.4611-0.0137-0.92366-0.1204-1.373l-7.4508-11.709c2e-5 0.0624-2e-5 0.12471 0 0.18707l-0.0868-0.3204 0.0868 0.13333-0.0108-30.69c-2.7e-4 -0.77443 0.0986-1.6355-0.10852-2.3885-0.48001-1.7128-1.997-2.212-3.5827-2.2133zm-46.372 2.7373h46.199c0.5713 0 0.99994 0.42864 0.99994 0.99994v29.059c0 0.57129-0.42864 0.99994-0.99994 0.99994h-46.199c-0.5713 0-0.99994-0.42865-0.99994-0.99994v-29.059c0-0.5713 0.42864-0.99994 0.99994-0.99994zm-2.6128 33.058h51.462l7.415 11.433c1e-3 5e-3 8e-3 0.0155 3e-3 0.0155l-22.609-0.0202c-0.3278-1.5794-0.67583-3.1552-1.0284-4.7294-0.0721-0.25267-0.29228-0.43488-0.55397-0.45837l-17.683-5e-3c-0.28902-4e-3 -0.545 0.18586-0.62529 0.46354-0.35091 1.5679-0.69986 3.1371-1.0247 4.7108l-22.847-0.0201c2.4921-3.8182 4.9956-7.5737 7.4915-11.389zm17.611 7.0032h16.403l0.96115 4.424-18.326-0.0165c0.4609-2.2087 0.96222-4.4075 0.96222-4.4075zm41.378 5.7066c-4.5e-4 0.228-0.0202 0.4554-0.0811 0.67593-0.16349 0.40724-0.54209 0.68795-0.97927 0.72605-21.41-0.27861-42.836 0.38601-64.244 3e-3 -0.30553-5.6e-4 -0.59859-0.1212-0.81597-0.3359-0.31749-0.31502-0.3688-0.65688-0.36793-1.0671 22.163 0.18771 66.488-2e-3 66.488-2e-3z" fill="#211715" stroke-width=".26458"/>
 <g transform="matrix(1.0771 0 0 1.0786 -160.85 -771.5)" fill="#00b92e">
  <g fill="#00b92e" stroke-width=".2849px" aria-label="Kicksecure">
   <path d="m162.61 728.66h1.1533l0.31758-1.5962 0.82736-0.89422 0.86915 2.4904h1.1951l-1.2202-3.2092 1.9806-2.2397h-1.2536l-2.0475 2.2397h-0.0251l0.44293-2.2397h-1.1449z"/>
   <path d="m167.54 728.66h1.1449l0.82736-4.1452h-1.1366zm1.6213-4.7636c0.40114 0 0.71036-0.28415 0.71036-0.67694 0-0.35935-0.30086-0.55157-0.61843-0.55157-0.39279 0-0.71036 0.30922-0.71036 0.67693 0 0.36772 0.30921 0.55158 0.61843 0.55158z"/>
   <path d="m169.88 727.05c0 1.0781 0.70201 1.7049 1.6213 1.7049 0.65186 0 1.0781-0.25072 1.3873-0.48472l-0.47637-0.702c-0.1755 0.13371-0.37607 0.26743-0.66021 0.26743-0.46801 0-0.70201-0.30922-0.70201-0.81065 0-0.92765 0.53486-1.6965 1.1951-1.6965 0.234 0 0.38443 0.0919 0.55158 0.26743l0.63514-0.67694c-0.20893-0.25907-0.59336-0.50979-1.1115-0.50979-1.3622 0-2.4403 1.2034-2.4403 2.6409z"/>
   <path d="m173.46 728.66h1.1449l0.20057-0.99451 0.67694-0.67693 0.62679 1.6714h1.1449l-0.98615-2.3317 1.6965-1.8135h-1.2703l-1.5628 1.6798h-0.0334l0.68529-3.393h-1.1449z"/>
   <path d="m177.66 727.96c0.34265 0.51814 0.9778 0.80229 1.4876 0.80229 1.0029 0 1.7216-0.55158 1.7216-1.3622 0-0.56828-0.37608-0.89422-0.86915-1.1616-0.33429-0.19221-0.68529-0.31757-0.68529-0.57664 0-0.21729 0.21729-0.39279 0.53486-0.39279 0.2925 0 0.53486 0.16714 0.73543 0.37607l0.62679-0.59336c-0.34264-0.35936-0.79393-0.63515-1.3622-0.63515-0.88586 0-1.6046 0.56829-1.6046 1.3539 0 0.51815 0.36771 0.88586 0.83572 1.1449 0.468 0.26743 0.71872 0.37607 0.71872 0.61843 0 0.22564-0.26743 0.39279-0.58501 0.39279-0.30086 0-0.60172-0.16715-0.89422-0.51815z"/>
   <path d="m181.51 726.99c0 1.1032 0.69365 1.7717 1.6965 1.7717 0.64351 0 1.1533-0.20057 1.4876-0.43458l-0.40114-0.71872c-0.20893 0.14208-0.50979 0.29251-0.76886 0.29251-0.54322 0-0.96108-0.29251-0.92765-0.98615h2.3567c0.0669-0.12536 0.21728-0.55158 0.21728-0.94437 0-0.86079-0.36771-1.5544-1.3539-1.5544-1.1032 0-2.3066 1.0363-2.3066 2.574zm1.1784-0.77722c0.18385-0.61007 0.59336-0.91929 0.98615-0.91929 0.41786 0 0.55993 0.27579 0.55993 0.61008 0 0.117-0.0167 0.22564-0.0418 0.30921z"/>
   <path d="m185.66 727.05c0 1.0781 0.702 1.7049 1.6213 1.7049 0.65187 0 1.0781-0.25072 1.3873-0.48472l-0.47636-0.702c-0.1755 0.13371-0.37607 0.26743-0.66022 0.26743-0.468 0-0.702-0.30922-0.702-0.81065 0-0.92765 0.53486-1.6965 1.1951-1.6965 0.234 0 0.38443 0.0919 0.55157 0.26743l0.63515-0.67694c-0.20893-0.25907-0.59336-0.50979-1.1115-0.50979-1.3622 0-2.4403 1.2034-2.4403 2.6409z"/>
   <path d="m193.54 724.51h-1.1449l-0.53486 2.7328c-0.32593 0.36772-0.585 0.53487-0.82736 0.53487-0.26743 0-0.41786-0.14208-0.41786-0.42622 0-0.10865 0.0251-0.22565 0.0669-0.39279l0.48471-2.4487h-1.1366l-0.51814 2.5907c-0.0418 0.20893-0.0669 0.40115-0.0669 0.58501 0 0.69364 0.2925 1.0697 0.97779 1.0697 0.50143 0 0.97779-0.30922 1.3539-0.66022h0.0334l-0.0167 0.55993h0.92765z"/>
   <path d="m193.79 728.66h1.1449l0.468-2.3985c0.32593-0.58501 0.66857-0.84408 1.0363-0.84408 0.13372 0 0.30086 8e-3 0.4095 0.0669l0.37608-0.98615c-0.0919-0.0501-0.22565-0.0836-0.43458-0.0836-0.47636 0-0.94436 0.38444-1.2703 0.90258h-0.0334l0.0501-0.80229h-0.92765z"/>
   <path d="m197.04 726.99c0 1.1032 0.69365 1.7717 1.6965 1.7717 0.6435 0 1.1533-0.20057 1.4876-0.43458l-0.40114-0.71872c-0.20893 0.14208-0.50979 0.29251-0.76887 0.29251-0.54321 0-0.96107-0.29251-0.92765-0.98615h2.3567c0.0669-0.12536 0.21729-0.55158 0.21729-0.94437 0-0.86079-0.36771-1.5544-1.3539-1.5544-1.1032 0-2.3066 1.0363-2.3066 2.574zm1.1784-0.77722c0.18386-0.61007 0.59336-0.91929 0.98615-0.91929 0.41786 0 0.55994 0.27579 0.55994 0.61008 0 0.117-0.0167 0.22564-0.0418 0.30921z"/>
  </g>
 </g>
 <g transform="matrix(.58501 0 0 .58501 27.741 13.267)" fill="#00b92e">
  <title>check</title>
  <path d="m19.375 5.063-9.5 13.625-6.563-4.875-3.313 4.594 11.188 8.531 12.813-18.375z" fill="#00b92e"/>
 </g>
</svg>
