<?xml version="1.0" encoding="UTF-8" standalone="no"?>
<!-- Created with Inkscape (http://www.inkscape.org/) -->

<svg
   width="85.428001mm"
   height="51.182999mm"
   viewBox="0 0 85.428001 51.182999"
   version="1.1"
   id="svg1"
   xmlns="http://www.w3.org/2000/svg"
   xmlns:svg="http://www.w3.org/2000/svg">
  <defs
     id="defs1" />
  <g
     id="layer1">
    <path
       id="path5-3-9-6-7"
       style="fill:#211715;stroke-width:0.264583"
       class="c"
       d="m 57.741118,0 c -15.52631,0.006 -31.05276,0.01 -46.57907,0.0155 -2.7076799,0 -3.4107299,1.50497 -3.5522399,2.65721 l -0.015,29.07471 0.002,3.52485 c -2.06346,3.12841 -4.13415,6.25203 -6.21202,9.37049 -0.48472003,0.72998 -1.12857003,1.47516 -1.30690003,2.35489 -0.0780000009,0.49511 -0.1354,1.63316 0.0212,2.39521 0.29925,1.05293 1.25770003,1.78187 2.35231003,1.78903 21.3751599,0.003 42.7510099,0 64.1263199,0 1.06184,-0.008 1.99963,-0.69397 2.32803,-1.70377 0.0936,-0.36019 0.13037,-0.73278 0.10903,-1.10432 0.0269,-0.4611 -0.0137,-0.92366 -0.1204,-1.37305 l -7.45076,-11.70884 c 2e-5,0.0624 -2e-5,0.12471 0,0.18707 l -0.0868,-0.3204 0.0868,0.13333 -0.0108,-30.69012 C 61.432548,3.82736 61.531418,2.96631 61.324298,2.2133 60.844288,0.50051 59.327258,0.00127 57.741568,0 Z m -46.37184,2.7373 h 46.19924 c 0.5713,0 0.99994,0.42865 0.99994,0.99994 v 29.0587 c 0,0.57129 -0.42864,0.99994 -0.99994,0.99994 h -46.19924 c -0.5713,0 -0.99995,-0.42865 -0.99995,-0.99994 V 3.73724 c 0,-0.57129 0.42865,-0.99994 0.99995,-0.99994 z M 8.7565081,35.79575 H 60.218488 l 7.41505,11.4329 c 0.001,0.005 0.008,0.0155 0.003,0.0155 l -22.60947,-0.0202 c -0.3278,-1.5794 -0.67583,-3.15517 -1.02836,-4.72943 -0.0721,-0.25267 -0.29228,-0.43488 -0.55397,-0.45837 l -17.68316,-0.005 c -0.28902,-0.004 -0.545,0.18586 -0.62529,0.46354 -0.35091,1.56789 -0.69986,3.13711 -1.02474,4.71082 L 1.2648781,47.18541 c 2.49213,-3.81821 4.99558,-7.57374 7.49153,-11.38949 z m 17.6113299,7.0032 h 16.40262 l 0.96115,4.42402 -18.32602,-0.0165 c 0.4609,-2.20873 0.96222,-4.40749 0.96222,-4.40749 z m 41.37784,5.70662 c -4.5e-4,0.228 -0.0202,0.4554 -0.0811,0.67593 -0.16349,0.40724 -0.54209,0.68795 -0.97927,0.72605 -21.40964,-0.27861 -42.83649,0.38601 -64.2441399,0.003 -0.30553,-5.6e-4 -0.5986,-0.1212 -0.81597,-0.3359 -0.3175,-0.31502 -0.3688,-0.65688 -0.36794,-1.06712 22.1625999,0.18771 66.4884499,-0.002 66.4884499,-0.002 z" />
    <g
       id="SVGRepo_iconCarrier-8-5-6"
       transform="matrix(-0.03338822,-0.03338822,-0.03338822,0.03338822,95.646678,24.34856)"
       style="fill:#000000;fill-opacity:1"> <style
   type="text/css"
   id="style1-9-2-8"> .st0{fill:#000000;} </style>
 <g
   id="g2-7-5-9"
   style="fill:#000000;fill-opacity:1"> <path
   id="path1-3-4-0"
   class="st0"
   d="M 214.29174,91.765158 420.22688,297.7003 216.38893,501.53824 c -6.74799,6.74799 -15.74459,10.46275 -25.33658,10.46275 -9.69699,0 -18.81508,-3.78649 -25.67708,-10.64848 L 10.639522,346.61676 c -14.1169856,-14.11699 -14.1929763,-37.00041 -0.17799,-51.0214 z m -13.49633,54.867542 -97.63946,97.63946 c -6.477008,6.47423 -2.70445,15.32321 0.91317,18.63484 4.56567,4.56763 12.66484,6.40825 18.39494,0.67327 l 97.63946,-97.63946 c 7.90689,-7.90689 2.42555,-15.32707 -0.76614,-18.51876 -4.45391,-4.45012 -12.62335,-6.70293 -18.54197,-0.78935 z m -40.68247,126.53585 c -9.06558,9.06558 -13.24896,20.91191 -13.01653,31.8371 l 11.38366,1.16855 c 0.23248,-9.06559 3.14101,-17.55051 10.11451,-24.52401 8.60067,-8.60068 18.60309,-9.99923 25.4604,-3.14192 7.32217,7.32217 3.37053,16.85214 0,25.33657 l -6.28384,15.57031 c -4.99776,12.66855 -6.62289,24.76537 4.65097,36.03923 12.08744,12.08745 31.72431,11.73636 47.76339,-4.30273 10.69276,-10.69275 15.57832,-24.41443 15.34589,-37.89652 l -12.55221,-0.92865 c 0.23243,11.15767 -3.48791,22.55613 -11.50748,30.57569 -9.99536,9.99537 -20.91626,10.92084 -28.35468,3.48243 -7.78708,-7.78709 -4.64812,-15.8049 -0.69648,-26.26523 l 6.16002,-15.69412 c 4.06788,-10.11161 6.97102,-23.93744 -4.18665,-35.09511 -11.62253,-11.62253 -30.45016,-9.9924 -44.28097,3.83841 z m 91.22406,-88.43812 -9.76627,9.76627 44.97746,44.97745 c 18.3636,18.3636 16.38739,31.96415 6.50826,41.84327 -10.1116,10.1116 -23.94399,12.31966 -42.30759,-6.04394 l -44.97746,-44.97745 -9.2942,9.2942 44.74529,44.74529 c 24.52356,24.52357 44.74138,21.03776 60.3156,5.46354 15.57417,-15.57417 19.06777,-35.79977 -5.4558,-60.32334 z m -123.1695,123.1695 -22.66672,22.66672 c -15.45798,15.45798 -21.034971,31.49548 -7.669074,44.86137 7.554654,7.55466 18.589754,9.99129 29.979814,3.25027 l 0.46432,0.46432 c -9.41421,12.90103 -9.87987,25.45513 0.5804,35.91541 14.99307,14.99307 34.17631,10.46064 51.14522,-6.50827 l 24.40793,-24.40793 z m -2.0972,17.43534 24.87226,24.87226 -11.26758,11.26758 c -12.90103,12.90103 -23.01217,13.7158 -31.4966,5.23137 -8.252001,-8.252 -5.58649,-17.89279 6.15228,-29.63156 z m 32.07701,32.07701 28.82674,28.82674 -13.24869,13.24869 c -13.01723,13.01722 -25.4553,15.91592 -35.79933,5.57188 -9.41426,-9.41426 -6.39331,-21.03272 6.97258,-34.39862 z"
   style="fill:#000000;fill-opacity:1" />
 <path
   class="st0"
   d="M 508.677,153.909 358.086,3.318 C 355.946,1.178 353.109,0 350.102,0 c -3.016,0 -5.856,1.178 -7.997,3.318 l -101.415,101.415 23.598,23.594 85.807,-85.806 119.382,119.38 -85.809,85.809 23.597,23.594 101.413,-101.411 c 2.133,-2.133 3.312,-4.962 3.322,-7.966 0.006,-3.018 -1.173,-5.866 -3.323,-8.018 z"
   id="path2-6-7-6"
   style="fill:#000000;fill-opacity:1" />
 <rect
   x="311.35501"
   y="98.494003"
   transform="matrix(-0.7071,-0.7071,0.7071,-0.7071,486.2986,446.7168)"
   class="st0"
   width="48.618999"
   height="48.304001"
   id="rect2-4-8"
   style="fill:#000000;fill-opacity:1" />
 <polygon
   class="st0"
   points="389.407,210.207 423.562,176.051 389.407,141.9 355.249,176.051 "
   id="polygon2-4-7"
   style="fill:#000000;fill-opacity:1" />
 </g>
 </g>
    <path
       d="m 62.901638,28.88314 1.94552,-1.94549 -1.94552,-1.92365 1.94552,-1.92366 1.92362,1.92366 1.92366,-1.92366 1.9455,1.92366 -1.9455,1.92365 1.9455,1.94549 -1.9455,1.92367 -1.92366,-1.92367 -1.92362,1.92367 z"
       id="path1-4"
       style="fill:#ff2a2a;fill-opacity:1;stroke-width:0.683112" />
    <g
       id="SVGRepo_iconCarrier-86-7"
       transform="matrix(0.04232596,0.01016487,-0.01016487,0.04232596,26.688968,4.85147)"
       style="stroke-width:45.9459;stroke-dasharray:none"> <style
   type="text/css"
   id="style1-8-0"> .st0{fill:#000000;} </style>
 <g
   id="g4-8"
   style="stroke-width:45.9459;stroke-dasharray:none"> <path
   class="st0"
   d="m 268.149,12.153 v 56.789 c 51.745,0.016 98.326,20.886 132.272,54.782 33.896,33.954 54.783,80.534 54.783,132.28 0,51.745 -20.887,98.326 -54.783,132.271 -33.945,33.896 -80.526,54.767 -132.272,54.783 -51.746,-0.016 -98.326,-20.886 -132.272,-54.783 -18.239,-18.264 -27.22397,-34.72153 -29.82625,-63.59744 L 192.2618,341.20062 77.124219,194.45521 -39.193511,341.55454 43.496447,324.04289 C 55.452363,436.30971 159.899,499.838 268.149,499.846 402.84,499.839 511.984,390.688 512,256.004 511.984,121.313 402.84,12.161 268.149,12.153 Z"
   id="path1-8-6"
   style="fill:#00b92e;fill-opacity:1;stroke-width:45.9459;stroke-dasharray:none" />
 <path
   class="st0"
   d="m 135.95121,133.01223 c 3.054,-4.532 6.335,-8.941 9.794,-13.237 l -44.144,-35.707001 c -4.466001,5.522 -8.722001,11.23 -12.717001,17.167001 l 47.052001,31.777 z"
   id="path2-4-2"
   style="fill:#00b92e;fill-opacity:1;stroke-width:45.9459;stroke-dasharray:none" />
 <path
   class="st0"
   d="m 208.27164,80.529058 c 9.079,-3.938 27.81576,-9.375773 39.42306,-10.32768 l -9.41694,-55.774902 c -15.52915,0.435297 -36.18597,4.455173 -48.04197,9.603173 z"
   id="path3-4"
   style="fill:#00b92e;fill-opacity:1;stroke-width:45.9459;stroke-dasharray:none" />
 <path
   class="st0"
   d="m 186.80315,87.599052 -30.664,-47.807 c -10.996,7.041 -21.374,14.95 -31.054,23.615 l 37.86,42.317998 c 7.438,-6.650998 15.413,-12.725998 23.858,-18.125998 z"
   id="path4-7"
   style="fill:#00b92e;fill-opacity:1;stroke-width:45.9459;stroke-dasharray:none" />
 </g>
 </g>
  </g>
</svg>
