<svg width="69.023mm" height="51.183mm" version="1.1" viewBox="0 0 69.023 51.183" xmlns="http://www.w3.org/2000/svg">
 <path class="c" d="m57.742 0c-15.526 0.0061-31.053 0.0098-46.579 0.0155-2.7077 0-3.4107 1.505-3.5522 2.6572l-0.01499 29.075 0.0016 3.5248c-2.0635 3.1284-4.1342 6.252-6.212 9.3705-0.48472 0.72998-1.1286 1.4752-1.3069 2.3549-0.07802 0.49511-0.1354 1.6332 0.02119 2.3952 0.29925 1.0529 1.2577 1.7819 2.3523 1.789 21.375 3e-3 42.751 0 64.126 0 1.0618-8e-3 1.9996-0.69397 2.328-1.7038 0.09359-0.36019 0.13038-0.73278 0.10904-1.1043 0.02687-0.4611-0.01369-0.92366-0.12041-1.373l-7.4508-11.709c1.8e-5 0.0624-1.8e-5 0.12471 0 0.18707l-0.08682-0.3204 0.08682 0.13333-0.01085-30.69c-2.75e-4 -0.77443 0.09865-1.6355-0.10852-2.3885-0.48001-1.7128-1.997-2.212-3.5827-2.2133zm-46.372 2.7373h46.199c0.5713 0 0.99994 0.42864 0.99994 0.99994v29.059c0 0.57129-0.42864 0.99994-0.99994 0.99994h-46.199c-0.5713 0-0.99994-0.42865-0.99994-0.99994v-29.059c0-0.57129 0.42864-0.99994 0.99994-0.99994zm-2.6128 33.058h51.462l7.4151 11.433c0.0015 5e-3 0.0084 0.0155 0.0031 0.0155l-22.609-0.0202c-0.3278-1.5794-0.67583-3.1552-1.0284-4.7294-0.07206-0.25267-0.29228-0.43488-0.55397-0.45837l-17.683-5e-3c-0.28902-4e-3 -0.545 0.18586-0.62528 0.46354-0.35092 1.5679-0.69986 3.1371-1.0247 4.7108l-22.847-0.0201c2.4921-3.8182 4.9956-7.5737 7.4915-11.389zm17.611 7.0032h16.403l0.96115 4.424-18.326-0.0165c0.4609-2.2087 0.96222-4.4075 0.96222-4.4075zm41.378 5.7066c-4.47e-4 0.228-0.0202 0.4554-0.08113 0.67593-0.16349 0.40724-0.54209 0.68795-0.97927 0.72605-21.41-0.27861-42.836 0.38601-64.244 3e-3 -0.30553-5.6e-4 -0.5986-0.1212-0.81597-0.3359-0.31749-0.31502-0.3688-0.65688-0.36794-1.0671 22.163 0.18771 66.488-2e-3 66.488-2e-3z" fill="#211715" stroke-width=".26458"/>
 <g id="SVGRepo_iconCarrier" transform="matrix(.043918 0 0 .043918 33.291 5.5503)" fill="#00b92e">
  <g fill="#00b92e">
   <path d="m412.59 309.44c0-27.254-13.057-50.676-36.703-50.676-23.203 0-36.703 22.072-36.703 51.572 0 29.721 13.954 50.667 36.925 50.667 23.202 0 36.481-22.064 36.481-51.563z"/>
   <path d="m488.43 197.02h-13.226v-63.825c0-0.398-0.063-0.799-0.116-1.203-0.021-2.533-0.827-5.022-2.562-6.995l-106.2-121.3c-0.032-0.031-0.063-0.042-0.085-0.074-0.633-0.709-1.371-1.297-2.151-1.803-0.231-0.158-0.464-0.288-0.706-0.422-0.676-0.369-1.393-0.675-2.131-0.896-0.2-0.056-0.38-0.135-0.58-0.19-0.802-0.19-1.635-0.309-2.479-0.309h-260.99c-11.918 0-21.6 9.695-21.6 21.601v175.42h-13.225c-17.041 0-30.871 13.819-30.871 30.871v160.54c0 17.043 13.83 30.87 30.871 30.87h13.226v109.9c0 11.907 9.682 21.601 21.6 21.601h356.4c11.907 0 21.6-9.693 21.6-21.601v-109.89h13.226c17.055 0 30.871-13.833 30.871-30.876v-160.54c-1e-3 -17.057-13.818-30.871-30.872-30.871zm-34.825 326.33h-356.4v-104.04h356.4v104.04zm-329.5-137.58v-151.77h34.446v151.77zm102.01-63.724c-25.217-8.775-41.66-22.739-41.66-44.804 0-25.9 21.621-45.721 57.428-45.721 17.118 0 29.721 3.597 38.728 7.646l-7.657 27.72c-6.075-2.942-16.875-7.214-31.746-7.214s-22.075 6.75-22.075 14.639c0 9.679 8.554 13.951 28.149 21.397 26.8 9.903 39.403 23.857 39.403 45.257 0 25.449-19.585 47.076-61.246 47.076-17.339 0-34.457-4.52-43.01-9.245l6.982-28.381c9.239 4.746 23.425 9.471 38.064 9.471 15.757 0 24.089-6.539 24.089-16.442 0-9.46-7.203-14.86-25.449-21.399zm76.802-11.032c0-45.476 29.057-79.492 73.87-79.492 46.612 0 72.062 34.902 72.062 76.792 0 49.771-30.174 79.95-74.54 79.95-45.036 0-71.392-34.019-71.392-77.25zm150.68-113.99h-356.4v-175.42h250.19v110.51c0 5.967 4.841 10.8 10.8 10.8h95.407v54.107z"/>
  </g>
 </g>
 <g transform="matrix(.028118 0 0 .028118 12.45 11.535)">
  <style type="text/css">.st0{fill:#000000;}</style>
  <path class="st0" d="m255.99 6e-3c-141.39 7e-3 -255.98 114.61-255.99 255.99 0.012 141.39 114.61 255.99 255.99 255.99 141.4-8e-3 256-114.61 256.01-255.99-8e-3 -141.39-114.61-255.99-256.01-255.99zm-158.39 97.606c23.34-23.328 51.761-41.475 83.455-52.725-15.183 18.375-27.84 41.906-37.757 69.116h-60.533c4.68-5.695 9.624-11.179 14.835-16.391zm-31.995 40.391h69.986c-9.008 31.929-14.41 67.834-15.363 106h-87.908c2.047-38.804 13.973-74.912 33.285-106zm0 235.99c-19.312-31.085-31.238-67.193-33.285-106h87.991c0.961 38.124 6.21 74.092 15.206 106h-69.912zm31.995 40.389c-5.211-5.211-10.156-10.695-14.836-16.39h60.573c4.28 11.774 9.019 22.944 14.312 33.21 6.954 13.438 14.758 25.468 23.348 35.89-31.672-11.25-60.073-29.397-83.397-52.71zm146.39 65.281c-3.746-0.196-7.469-0.477-11.164-0.86-5.89-2.64-11.722-6.25-17.5-10.961-17.632-14.359-33.976-38.671-46.398-69.85h75.061v81.671zm0-105.67h-83.436c-9.477-31.171-15.316-67.311-16.328-106h99.763v106zm0-130h-99.688c1.008-38.71 6.875-74.819 16.359-106h83.33v106zm0-130h-74.951c3.109-7.79 6.367-15.312 9.934-22.195 10.64-20.625 23.17-36.89 36.354-47.656 5.777-4.71 11.609-8.32 17.5-10.96 3.695-0.382 7.417-0.664 11.164-0.859v81.67zm202.39 24c19.312 31.085 31.234 67.194 33.281 106h-87.991c-0.961-38.124-6.21-74.092-15.21-106zm-31.999-40.391c5.211 5.211 10.156 10.696 14.836 16.391h-60.577c-4.281-11.773-9.023-22.945-14.312-33.21-6.953-13.437-14.758-25.468-23.347-35.89 31.675 11.257 60.072 29.398 83.4 52.709zm-146.4-65.279c3.746 0.195 7.469 0.484 11.16 0.859 5.89 2.649 11.723 6.25 17.504 10.96 17.636 14.359 33.976 38.671 46.397 69.85h-75.061zm0 105.67h83.436c9.476 31.171 15.32 67.31 16.328 106h-99.764zm0 130h99.685c-1.007 38.71-6.874 74.818-16.359 106h-83.326zm28.663 199.85c-5.781 4.711-11.614 8.313-17.504 10.961-3.691 0.375-7.414 0.664-11.16 0.86v-81.67h74.951c-3.109 7.789-6.367 15.312-9.933 22.195-10.639 20.624-23.17 36.889-36.354 47.654zm117.73-53.46c-23.336 23.328-51.764 41.476-83.459 52.725 15.187-18.375 27.835-41.905 37.757-69.115h60.538c-4.681 5.696-9.625 11.18-14.836 16.39zm31.999-40.389h-69.998c9.008-31.929 14.414-67.842 15.367-106h87.912c-2.047 38.805-13.969 74.913-33.281 106z"/>
 </g>
 <path transform="matrix(.43274 -.43274 .43274 .43274 -27.755 -6.824)" d="m41.999 99.517-9.6729-2.5918 7.081-7.081 1.2959 4.8364z" fill="#00b92e" fill-rule="evenodd" style="paint-order:fill markers stroke"/>
</svg>
