<?xml version="1.0" encoding="UTF-8"?>
<svg width="85.119mm" height="51.183mm" version="1.1" viewBox="0 0 85.119 51.183" xmlns="http://www.w3.org/2000/svg">
 <path class="c" d="m57.742 0c-15.526 0.0061-31.053 0.0098-46.579 0.0155-2.7077 0-3.4107 1.505-3.5522 2.6572l-0.01499 29.075 0.0016 3.5248c-2.0635 3.1284-4.1342 6.252-6.212 9.3705-0.48472 0.72998-1.1286 1.4752-1.3069 2.3549-0.07802 0.49511-0.1354 1.6332 0.02119 2.3952 0.29925 1.0529 1.2577 1.7819 2.3523 1.789 21.375 3e-3 42.751 0 64.126 0 1.0618-8e-3 1.9996-0.69397 2.328-1.7038 0.0936-0.36019 0.13037-0.73278 0.10903-1.1043 0.0269-0.4611-0.0137-0.92366-0.1204-1.373l-7.4508-11.709c2e-5 0.0624-2e-5 0.12471 0 0.18707l-0.0868-0.3204 0.0868 0.13333-0.0108-30.69c-2.7e-4 -0.77443 0.0986-1.6355-0.10852-2.3885-0.48001-1.7128-1.997-2.212-3.5827-2.2133zm-46.372 2.7373h46.199c0.5713 0 0.99994 0.42864 0.99994 0.99994v29.059c0 0.57129-0.42864 0.99994-0.99994 0.99994h-46.199c-0.5713 0-0.99994-0.42865-0.99994-0.99994v-29.059c0-0.57129 0.42864-0.99994 0.99994-0.99994zm-2.6128 33.058h51.462l7.415 11.433c1e-3 5e-3 8e-3 0.0155 3e-3 0.0155l-22.609-0.0202c-0.3278-1.5794-0.67583-3.1552-1.0284-4.7294-0.0721-0.25267-0.29228-0.43488-0.55397-0.45837l-17.683-5e-3c-0.28902-4e-3 -0.545 0.18586-0.62529 0.46354-0.35091 1.5679-0.69986 3.1371-1.0247 4.7108l-22.847-0.0201c2.4921-3.8182 4.9956-7.5737 7.4915-11.389zm17.611 7.0032h16.403l0.96115 4.424-18.326-0.0165c0.4609-2.2087 0.96222-4.4075 0.96222-4.4075zm41.378 5.7066c-4.5e-4 0.228-0.0202 0.4554-0.0811 0.67593-0.16349 0.40724-0.54209 0.68795-0.97927 0.72605-21.41-0.27861-42.836 0.38601-64.244 3e-3 -0.30553-5.6e-4 -0.5986-0.1212-0.81597-0.3359-0.31749-0.31502-0.3688-0.65688-0.36794-1.0671 22.163 0.18771 66.488-2e-3 66.488-2e-3z" fill="#211715" stroke-width=".26458"/>
 <g transform="matrix(.043918 0 0 .043918 22.714 5.7078)" fill="#211715">
  <g fill="#211715">
   <path d="m412.59 309.44c0-27.254-13.057-50.676-36.703-50.676-23.203 0-36.703 22.072-36.703 51.572 0 29.721 13.954 50.667 36.925 50.667 23.202 0 36.481-22.064 36.481-51.563z"/>
   <path d="m488.43 197.02h-13.226v-63.825c0-0.398-0.063-0.799-0.116-1.203-0.021-2.533-0.827-5.022-2.562-6.995l-106.2-121.3c-0.032-0.031-0.063-0.042-0.085-0.074-0.633-0.709-1.371-1.297-2.151-1.803-0.231-0.158-0.464-0.288-0.706-0.422-0.676-0.369-1.393-0.675-2.131-0.896-0.2-0.056-0.38-0.135-0.58-0.19-0.802-0.19-1.635-0.309-2.479-0.309h-260.99c-11.918 0-21.6 9.695-21.6 21.601v175.42h-13.225c-17.041 0-30.871 13.819-30.871 30.871v160.54c0 17.043 13.83 30.87 30.871 30.87h13.226v109.9c0 11.907 9.682 21.601 21.6 21.601h356.4c11.907 0 21.6-9.693 21.6-21.601v-109.89h13.226c17.055 0 30.871-13.833 30.871-30.876v-160.54c-1e-3 -17.057-13.818-30.871-30.872-30.871zm-34.825 326.33h-356.4v-104.04h356.4v104.04zm-329.5-137.58v-151.77h34.446v151.77zm102.01-63.724c-25.217-8.775-41.66-22.739-41.66-44.804 0-25.9 21.621-45.721 57.428-45.721 17.118 0 29.721 3.597 38.728 7.646l-7.657 27.72c-6.075-2.942-16.875-7.214-31.746-7.214s-22.075 6.75-22.075 14.639c0 9.679 8.554 13.951 28.149 21.397 26.8 9.903 39.403 23.857 39.403 45.257 0 25.449-19.585 47.076-61.246 47.076-17.339 0-34.457-4.52-43.01-9.245l6.982-28.381c9.239 4.746 23.425 9.471 38.064 9.471 15.757 0 24.089-6.539 24.089-16.442 0-9.46-7.203-14.86-25.449-21.399zm76.802-11.032c0-45.476 29.057-79.492 73.87-79.492 46.612 0 72.062 34.902 72.062 76.792 0 49.771-30.174 79.95-74.54 79.95-45.036 0-71.392-34.019-71.392-77.25zm150.68-113.99h-356.4v-175.42h250.19v110.51c0 5.967 4.841 10.8 10.8 10.8h95.407v54.107z"/>
  </g>
 </g>
 <g transform="matrix(-.033388 .033388 .033388 .033388 73.901 12.48)">
  <style type="text/css">.st0{fill:#000000;}</style>
  <g>
   <path class="st0" d="m214.29 91.765 205.94 205.94-203.84 203.84c-6.748 6.748-15.745 10.463-25.337 10.463-9.697 0-18.815-3.7865-25.677-10.648l-154.74-154.74c-14.117-14.117-14.193-37-0.17799-51.021zm-13.496 54.868-97.639 97.639c-6.477 6.4742-2.7044 15.323 0.91317 18.635 4.5657 4.5676 12.665 6.4082 18.395 0.67327l97.639-97.639c7.9069-7.9069 2.4256-15.327-0.76614-18.519-4.4539-4.4501-12.623-6.7029-18.542-0.78935zm-40.682 126.54c-9.0656 9.0656-13.249 20.912-13.017 31.837l11.384 1.1686c0.23248-9.0656 3.141-17.551 10.115-24.524 8.6007-8.6007 18.603-9.9992 25.46-3.1419 7.3222 7.3222 3.3705 16.852 0 25.337l-6.2838 15.57c-4.9978 12.669-6.6229 24.765 4.651 36.039 12.087 12.087 31.724 11.736 47.763-4.3027 10.693-10.693 15.578-24.414 15.346-37.897l-12.552-0.92865c0.23243 11.158-3.4879 22.556-11.507 30.576-9.9954 9.9954-20.916 10.921-28.355 3.4824-7.7871-7.7871-4.6481-15.805-0.69648-26.265l6.16-15.694c4.0679-10.112 6.971-23.937-4.1866-35.095-11.623-11.623-30.45-9.9924-44.281 3.8384zm91.224-88.438-9.7663 9.7663 44.977 44.977c18.364 18.364 16.387 31.964 6.5083 41.843-10.112 10.112-23.944 12.32-42.308-6.0439l-44.977-44.977-9.2942 9.2942 44.745 44.745c24.524 24.524 44.741 21.038 60.316 5.4635 15.574-15.574 19.068-35.8-5.4558-60.323zm-123.17 123.17-22.667 22.667c-15.458 15.458-21.035 31.495-7.6691 44.861 7.5547 7.5547 18.59 9.9913 29.98 3.2503l0.46432 0.46432c-9.4142 12.901-9.8799 25.455 0.5804 35.915 14.993 14.993 34.176 10.461 51.145-6.5083l24.408-24.408zm-2.0972 17.435 24.872 24.872-11.268 11.268c-12.901 12.901-23.012 13.716-31.497 5.2314-8.252-8.252-5.5865-17.893 6.1523-29.632zm32.077 32.077 28.827 28.827-13.249 13.249c-13.017 13.017-25.455 15.916-35.799 5.5719-9.4143-9.4143-6.3933-21.033 6.9726-34.399z"/>
   <path class="st0" d="m508.68 153.91-150.59-150.59c-2.14-2.14-4.977-3.318-7.984-3.318-3.016 0-5.856 1.178-7.997 3.318l-101.42 101.42 23.598 23.594 85.807-85.806 119.38 119.38-85.809 85.809 23.597 23.594 101.41-101.41c2.133-2.133 3.312-4.962 3.322-7.966 6e-3 -3.018-1.173-5.866-3.323-8.018z"/>
   <rect class="st0" transform="matrix(-.7071 -.7071 .7071 -.7071 486.3 446.72)" x="311.36" y="98.494" width="48.619" height="48.304"/>
   <polygon class="st0" points="389.41 141.9 355.25 176.05 389.41 210.21 423.56 176.05"/>
  </g>
 </g>
 <path d="m41.961 5.9082v2h27.244c1.3896 0 2.1045 0.35487 2.5469 0.85547s0.67969 1.2889 0.67969 2.3711v5.1758h2v-5.1758c0-1.3735-0.29919-2.6967-1.1816-3.6953s-2.281-1.5312-4.0449-1.5312z" color="#000000" fill="#00b92e" fill-rule="evenodd" style="-inkscape-stroke:none"/>
 <g fill="#00b92e" fill-rule="evenodd">
  <path d="m73.432 20.926-4-6.92h8z" color="#000000" style="-inkscape-stroke:none"/>
  <path d="m68.508 13.473 4.9238 8.5195 4.9258-8.5195zm1.8496 1.0664h6.1504l-3.0742 5.3203z" color="#000000" style="-inkscape-stroke:none"/>
 </g>
</svg>
