<svg width="60mm" height="60mm" viewBox="0 0 60 60" xml:space="preserve" xmlns="http://www.w3.org/2000/svg"><defs><linearGradient id="b" x1="367.28" x2="344.3" y1="1629" y2="1576.6" gradientTransform="matrix(.88057 0 0 .88687 -280.28 -1390.9)" gradientUnits="userSpaceOnUse"><stop stop-color="#ffe647" offset="0"/><stop stop-color="#fff3bd" offset=".326"/><stop stop-color="#fff3bd" offset=".656"/><stop stop-color="#ffe647" offset="1"/></linearGradient><linearGradient id="c" x1="-10.232" x2="-7.618" y1="1398.7" y2="1416.3" gradientTransform="translate(335.53 730.02) scale(.61469)" gradientUnits="userSpaceOnUse"><stop stop-color="#a3cfff" offset="0"/><stop stop-color="#54a2f9" offset="1"/></linearGradient><linearGradient id="d" x1="36.553" x2="60.53" y1="845.73" y2="845.73" gradientTransform="rotate(-90 724.18 901.12) scale(.61469)" gradientUnits="userSpaceOnUse"><stop stop-color="#2e57a7" offset="0"/><stop stop-color="#4268be" offset=".132"/><stop stop-color="#366cca" offset=".898"/><stop stop-color="#2e57a7" offset="1"/></linearGradient><filter id="e" x="-.435" y="-.427" width="2.034" height="2.016" color-interpolation-filters="sRGB"><feFlood flood-opacity=".251" result="flood"/><feComposite in="flood" in2="SourceGraphic" operator="in" result="composite1"/><feGaussianBlur in="composite1" result="blur" stdDeviation="1.1"/><feOffset dx="1" dy="1" result="offset"/><feComposite in="SourceGraphic" in2="offset" result="composite2"/></filter><filter id="f" x="-.421" y="-.197" width="2.002" height="1.468" color-interpolation-filters="sRGB"><feFlood flood-opacity=".251" result="flood"/><feComposite in="flood" in2="SourceGraphic" operator="in" result="composite1"/><feGaussianBlur in="composite1" result="blur" stdDeviation="1.1"/><feOffset dx="1" dy="1" result="offset"/><feComposite in="SourceGraphic" in2="offset" result="composite2"/></filter><filter id="g" x="-.173" y="-.167" width="1.412" height="1.397" color-interpolation-filters="sRGB"><feFlood flood-opacity=".251" result="flood"/><feComposite in="flood" in2="SourceGraphic" operator="in" result="composite1"/><feGaussianBlur in="composite1" result="blur" stdDeviation="1.1"/><feOffset dx="1" dy="1" result="offset"/><feComposite in="SourceGraphic" in2="offset" result="composite2"/></filter><radialGradient id="a" cx="826.52" cy="34" r="37.11" gradientTransform="matrix(.88685 0 0 .90136 -701.89 2.49)" gradientUnits="userSpaceOnUse"><stop stop-color="#3861ce" offset=".643"/><stop stop-color="#3f6ed8" offset=".898"/><stop stop-color="#2e57a7" offset="1"/></radialGradient></defs><g transform="translate(-.35 -.9) scale(.98375)"><rect x=".356" y=".915" width="60.991" height="60.991" rx="3.7" ry="3.7" fill="url(#a)" style="paint-order:fill markers stroke"/><rect x="2.907" y="3.466" width="55.889" height="55.889" rx="2.642" ry="2.661" fill="url(#b)" style="paint-order:fill markers stroke"/><path d="M9.125 52.874h1.36l.374-1.881.975-1.054 1.024 2.935h1.409l-1.438-3.782 2.334-2.64h-1.477l-2.414 2.64h-.03l.523-2.64h-1.35zm5.811 0h1.35l.975-4.886h-1.34zm1.911-5.615c.473 0 .838-.335.838-.798 0-.423-.355-.65-.73-.65-.462 0-.837.365-.837.798s.365.65.73.65zm.848 3.718c0 1.27.827 2.01 1.91 2.01.77 0 1.271-.296 1.636-.572l-.561-.828c-.207.158-.444.316-.779.316-.551 0-.827-.365-.827-.956 0-1.094.63-2 1.408-2 .276 0 .454.108.65.315l.75-.798a1.68 1.68 0 0 0-1.31-.6c-1.607 0-2.877 1.418-2.877 3.112zm4.22 1.897h1.35l.236-1.172.798-.798.738 1.97h1.35l-1.162-2.748 2-2.138h-1.498l-1.842 1.98h-.04l.808-4h-1.35zm4.951-.824c.404.61 1.152.945 1.753.945 1.182 0 2.03-.65 2.03-1.606 0-.67-.444-1.054-1.025-1.37-.394-.226-.808-.373-.808-.679 0-.256.256-.463.63-.463.345 0 .631.197.868.443l.738-.699c-.404-.424-.935-.749-1.605-.749-1.045 0-1.892.67-1.892 1.596 0 .611.434 1.044.985 1.35.552.315.847.443.847.729 0 .266-.315.463-.69.463-.354 0-.708-.197-1.053-.611zm4.538-1.144c0 1.3.818 2.088 2 2.088.758 0 1.36-.236 1.753-.512l-.472-.847c-.247.167-.601.345-.907.345-.64 0-1.133-.345-1.093-1.163h2.778c.079-.148.256-.65.256-1.113 0-1.015-.433-1.832-1.596-1.832-1.3 0-2.719 1.221-2.719 3.034zm1.389-.916c.217-.72.7-1.084 1.162-1.084.493 0 .66.325.66.72 0 .137-.02.265-.049.364zm3.503.987c0 1.27.828 2.01 1.911 2.01.769 0 1.27-.296 1.636-.572l-.562-.828c-.207.158-.443.316-.778.316-.552 0-.828-.365-.828-.956 0-1.094.63-2 1.409-2 .276 0 .453.108.65.315l.749-.798c-.246-.305-.7-.6-1.31-.6-1.606 0-2.877 1.418-2.877 3.112zm9.289-2.995h-1.35l-.63 3.222c-.384.433-.69.63-.975.63-.316 0-.493-.167-.493-.502 0-.128.03-.266.079-.463l.571-2.887h-1.34l-.61 3.054c-.05.247-.08.473-.08.69 0 .817.346 1.26 1.153 1.26.591 0 1.153-.364 1.596-.777h.04l-.02.66h1.093zm.295 4.892h1.35l.55-2.827c.385-.69.789-.995 1.223-.995.157 0 .354.01.482.079l.444-1.163c-.109-.059-.266-.098-.513-.098-.561 0-1.113.453-1.497 1.064h-.04l.06-.946h-1.094zm3.83-1.968c0 1.3.818 2.088 2 2.088.76 0 1.36-.236 1.754-.512l-.473-.847c-.246.167-.6.345-.906.345-.64 0-1.133-.345-1.094-1.163h2.778c.08-.148.257-.65.257-1.113 0-1.015-.434-1.832-1.596-1.832-1.3 0-2.72 1.221-2.72 3.034zm1.39-.916c.216-.72.7-1.084 1.162-1.084.493 0 .66.325.66.72 0 .137-.02.265-.05.364z" fill="#2e57a7" aria-label="Kicksecure"/><g stroke-linecap="round" stroke-linejoin="round"><path transform="translate(-478.11 -2368.9) scale(1.5036)" d="M336.92 1588c-.398.513.017 1.54 0 2.48l-4.31.015a4.538 4.538 0 1 0 0 9.076v0h4.31c.053 1.004-.319 1.734 0 2.496l-4.31.297c-4.477 0-6.075-1.688-7.182-3.551-1.256-2.176-1.22-5.12.036-7.297 1.256-2.176 3.349-3.795 7.145-3.795z" fill="url(#c)" stroke="#2e57a7" stroke-width=".615" style="paint-order:fill markers stroke"/><path d="M12.41 26.936c-.329-2.582 1.374-5.368 4.538-5.394-1.953.389-4.202 3.47-4.539 5.394z" fill="#fff" fill-rule="evenodd" stroke="#fff" stroke-width=".462"/><path transform="translate(-478.11 -2368.9) scale(1.5036)" d="M349.98 1589.5v11.203c0 1.412-1.089 2.523-2.441 2.549l-10.97.204c-4.56-.967-4.1-16.645 0-16.774l10.97.27c1.352.032 2.441 1.136 2.441 2.548z" fill="url(#d)" stroke="#2e57a6" stroke-width=".369" style="paint-order:fill markers stroke"/></g><g fill-rule="evenodd"><path transform="translate(26.558 -1271.3) scale(.92425)" d="m14.312 1409-1.742 3.649 1.444 1.706c.305.383.932.825 1.972.825h2.008c.7 0 .812-.583.442-1z" fill="#a3cfff" filter="url(#e)"/><path transform="translate(26.558 -1271.3) scale(.92425)" d="m8.283 1398.9-3.21 2.087c-.449.322-.654.458-.85 1.231l-1.165 9.957 6.205-12.647c.311-.723-.618-.97-.98-.628z" fill="#a3cfff" filter="url(#f)"/><path transform="translate(26.558 -1271.3) scale(.92425)" d="m16.844 1399.5-5.202 6.418-3.031-3.511-5.812 11.796c-.214.766.82 1.023 1.098.642l5.113-6.112 2.967 3.598 5.949-12.158c.338-.693-.55-1.37-1.082-.673z" fill="#fff215" filter="url(#g)"/></g><path d="M5.854 7.537H7.25V9.12h1.527V7.537h1.404v4.523H8.78v-1.83H7.25v1.83H5.854zm8.039 3.776h-1.592l-.219.747h-1.428l1.7-4.523h1.524l1.7 4.523h-1.463zm-.293-.978-.5-1.626-.497 1.626zm2.444 1.725V7.537h2.33q.647 0 .99.111.342.112.552.414.21.3.21.731 0 .376-.161.65-.16.272-.441.442-.18.108-.49.179.25.083.363.167.077.055.222.237.149.182.198.28l.675 1.312h-1.579l-.747-1.382q-.141-.269-.253-.349-.15-.105-.342-.105h-.123v1.836zm1.404-2.69h.589q.096 0 .37-.062.139-.028.225-.142.09-.114.09-.262 0-.219-.139-.336-.139-.117-.521-.117h-.614zm3.51-1.833h2.076q.614 0 .99.167.38.167.627.478.247.312.358.725.11.414.11.876 0 .725-.166 1.126-.163.398-.457.67-.293.268-.629.358-.46.123-.833.123h-2.076zm1.397 1.025v2.47h.343q.438 0 .623-.095.185-.099.29-.34.105-.243.105-.786 0-.719-.234-.984-.235-.265-.778-.265zm3.496-1.025h3.745v.966h-2.345v.719h2.175v.922h-2.174v.892h2.412v1.024H25.85zm4.575 0h1.305l1.703 2.502V7.537h1.317v4.523h-1.317L31.74 9.577v2.483h-1.314zm5.25 0h3.745v.966h-2.344v.719h2.174v.922h-2.174v.892h2.412v1.024h-3.813zm4.584 0h2.076q.614 0 .99.167.38.167.627.478.247.312.358.725.11.414.11.876 0 .725-.166 1.126-.163.398-.457.67-.293.268-.629.358-.46.123-.833.123H40.26zm1.397 1.025v2.47H42q.438 0 .623-.095.185-.099.29-.34.105-.243.105-.786 0-.719-.234-.984-.235-.265-.778-.265zm5.609-1.025h2.616q.654 0 1.003.324.351.324.351.802 0 .401-.25.688-.166.192-.487.303.487.117.716.404.231.284.231.716 0 .351-.163.632-.164.28-.448.444-.176.102-.53.148-.472.062-.627.062h-2.412zm1.41 1.774h.608q.327 0 .453-.11.13-.115.13-.328 0-.197-.13-.308-.126-.111-.444-.111h-.617zm0 1.777h.712q.361 0 .51-.126.148-.13.148-.346 0-.2-.149-.32-.145-.124-.512-.124h-.71zm3.045-3.551h1.552l.913 1.527.913-1.527h1.542l-1.758 2.629v1.894h-1.4v-1.894z" fill="#2e57a7" aria-label="HARDENED BY"/></g></svg>