<?xml version="1.0" encoding="UTF-8"?>
<svg xmlns="http://www.w3.org/2000/svg" xmlns:xlink="http://www.w3.org/1999/xlink" width="500pt" height="500pt" viewBox="0 0 500 500" version="1.1">
<g id="surface1">
<path style=" stroke:none;fill-rule:evenodd;fill:rgb(0%,0%,0%);fill-opacity:1;" d="M 113.785156 399.785156 C 129.039062 378.625 118.058594 333.425781 118.058594 237.464844 C 115.109375 154.300781 169.078125 123.375 212.628906 122.390625 C 333.933594 119.4375 364.292969 180.175781 366.507812 261.128906 C 377.554688 455.40625 442.246094 409.71875 461.632812 499.832031 L 50.863281 499.816406 C 62.675781 460.449219 91.640625 432.757812 113.785156 399.789062 Z M 113.785156 399.785156 "/>
<path style=" stroke:none;fill-rule:evenodd;fill:rgb(96.470588%,82.745099%,18.82353%);fill-opacity:1;" d="M 206.777344 294.703125 C 181.480469 293.753906 167.109375 317.386719 151.796875 328.171875 C 110.933594 359.085938 148.992188 373.714844 161.976562 386.375 C 161.976562 386.375 176.75 413.027344 204.609375 413.4375 C 251.214844 413.171875 277.328125 394.667969 300.179688 378.769531 C 311.296875 368.285156 297.777344 366.539062 306.824219 349.488281 C 322.4375 320.679688 295.257812 325.375 285.910156 324.882812 C 253.5 318.335938 245.320312 296.285156 206.777344 294.703125 Z M 206.777344 294.703125 "/>
<path style=" stroke:none;fill-rule:evenodd;fill:rgb(0%,0%,0%);fill-opacity:1;" d="M 215.941406 307.941406 C 218.769531 309.753906 221.21875 317.574219 229.257812 316.75 C 231.199219 316.601562 237.582031 308.320312 215.941406 307.941406 Z M 215.941406 307.941406 "/>
<path style=" stroke:none;fill-rule:evenodd;fill:rgb(0%,0%,0%);fill-opacity:1;" d="M 192.898438 307.496094 C 190.066406 309.308594 187.617188 317.128906 179.578125 316.304688 C 177.640625 316.15625 171.257812 307.875 192.898438 307.496094 Z M 192.898438 307.496094 "/>
<path style="fill:none;stroke-width:2.194682;stroke-linecap:round;stroke-linejoin:miter;stroke:rgb(0%,0%,0%);stroke-opacity:1;stroke-miterlimit:4;" d="M 38.510305 265.469092 C 55.173888 270.532349 76.256839 258.104166 76.256839 258.104166 " transform="matrix(3.779527,0,0,3.779527,0.0000288355,-622.519584)"/>
<path style=" stroke:none;fill-rule:evenodd;fill:rgb(100%,100%,100%);fill-opacity:1;" d="M 151.8125 320.28125 C 133.542969 313.84375 133.894531 270.347656 145.550781 251.382812 C 158.597656 234.507812 179.300781 241.121094 184.871094 251.382812 C 194.613281 270.695312 192.6875 293.183594 192.6875 293.183594 C 174.417969 299.273438 151.8125 320.28125 151.8125 320.28125 Z M 151.8125 320.28125 "/>
<path style="fill-rule:evenodd;fill:rgb(100%,100%,100%);fill-opacity:1;stroke-width:0.580676;stroke-linecap:butt;stroke-linejoin:miter;stroke:rgb(100%,100%,100%);stroke-opacity:1;stroke-miterlimit:4;" d="M 60.933743 242.2364 C 58.816043 235.147427 63.973351 227.22853 69.359069 227.091071 C 75.705969 227.091071 78.861332 229.441315 80.426094 234.643065 C 81.714904 240.166242 83.389221 246.529678 79.660249 248.692854 C 73.400166 251.270475 64.62344 242.156819 60.933743 242.2364 Z M 60.933743 242.2364 " transform="matrix(3.779527,0,0,3.779527,0.0000288355,-622.519584)"/>
<path style=" stroke:none;fill-rule:nonzero;fill:rgb(0%,0%,0%);fill-opacity:1;" d="M 184.898438 260.253906 C 185.84375 272.527344 178.867188 282.746094 169.316406 283.085938 C 159.765625 283.421875 151.257812 273.742188 150.3125 261.472656 C 149.367188 249.199219 156.34375 238.976562 165.894531 238.640625 C 175.445312 238.304688 183.953125 247.980469 184.898438 260.253906 Z M 184.898438 260.253906 "/>
<path style=" stroke:none;fill-rule:nonzero;fill:rgb(0%,0%,0%);fill-opacity:1;" d="M 287.691406 257.726562 C 287.691406 271.785156 276.851562 283.179688 263.484375 283.179688 C 250.113281 283.179688 239.277344 271.785156 239.277344 257.726562 C 239.277344 243.671875 250.113281 232.277344 263.484375 232.277344 C 276.851562 232.277344 287.691406 243.671875 287.691406 257.726562 Z M 287.691406 257.726562 "/>
<path style="fill:none;stroke-width:1.289235;stroke-linecap:round;stroke-linejoin:miter;stroke:rgb(100%,100%,100%);stroke-opacity:1;stroke-miterlimit:4;" d="M 45.57654 230.652611 C 46.807473 230.98334 46.962502 234.033283 46.962502 234.033283 " transform="matrix(3.779527,0,0,3.779527,0.0000288355,-622.519584)"/>
<path style="fill:none;stroke-width:1.698926;stroke-linecap:round;stroke-linejoin:miter;stroke:rgb(100%,100%,100%);stroke-opacity:1;stroke-miterlimit:4;" d="M 73.758801 232.642153 C 73.758801 232.642153 74.154642 229.846458 71.157409 229.043407 " transform="matrix(3.779527,0,0,3.779527,0.0000288355,-622.519584)"/>
<path style=" stroke:none;fill-rule:evenodd;fill:rgb(100%,100%,100%);fill-opacity:1;" d="M 286.625 161.949219 C 272.191406 165.320312 321.140625 177.308594 334.035156 205.566406 C 337.875 211.601562 328.917969 154.828125 286.625 161.949219 Z M 286.625 161.949219 "/>
<path style=" stroke:none;fill-rule:evenodd;fill:rgb(100%,100%,100%);fill-opacity:1;" d="M 350.414062 351.1875 C 344.894531 357.164062 342.152344 363.113281 342.332031 371.539062 C 342.441406 376.75 362.359375 384.285156 362.242188 380.941406 C 361.917969 371.945312 353.894531 347.417969 350.414062 351.1875 Z M 350.414062 351.1875 "/>
<path style=" stroke:none;fill-rule:evenodd;fill:rgb(100%,100%,100%);fill-opacity:1;" d="M 110.679688 499.832031 C 116.585938 450.621094 151.914062 414.203125 161.019531 408.300781 C 174.550781 419.863281 192.265625 422.816406 210.226562 423.800781 C 238.769531 424.046875 286.503906 405.347656 303.234375 394.273438 C 330.546875 396.242188 404.125 470.796875 404.371094 499.832031 Z M 110.679688 499.832031 "/>
<path style=" stroke:none;fill-rule:evenodd;fill:rgb(0%,0%,0%);fill-opacity:1;" d="M 50.863281 499.816406 C 50.863281 499.816406 5.339844 466.070312 6.324219 403.082031 C 13.214844 308.597656 81.484375 246.496094 81.484375 246.496094 C 115.929688 229.273438 65.144531 334.730469 91.226562 398.210938 C 99.101562 417.402344 97.492188 460.84375 97.492188 460.84375 Z M 50.863281 499.816406 "/>
<path style=" stroke:none;fill-rule:evenodd;fill:rgb(0%,0%,0%);fill-opacity:1;" d="M 461.632812 499.832031 C 461.632812 499.832031 492.886719 468.546875 491.902344 405.558594 C 485.011719 311.074219 439.375 278.5 419.199219 272.101562 C 378.847656 262.753906 441.9375 334.746094 415.855469 398.226562 C 407.980469 417.417969 415.003906 460.859375 415.003906 460.859375 Z M 461.632812 499.832031 "/>
<path style="fill-rule:nonzero;fill:rgb(1.176471%,66.666669%,98.039216%);fill-opacity:1;stroke-width:1.536277;stroke-linecap:round;stroke-linejoin:round;stroke:rgb(10.196079%,10.196079%,10.196079%);stroke-opacity:1;stroke-miterlimit:4;" d="M 153.258343 127.576689 C 153.258581 134.611921 147.555476 140.315633 140.520244 140.315872 C 133.483613 140.315683 127.780813 134.612092 127.780575 127.57686 C 127.779851 120.540715 133.484354 114.83743 140.519587 114.837191 C 147.554819 114.836953 153.259017 120.540971 153.258343 127.576689 Z M 153.258343 127.576689 " transform="matrix(3.336383,1.775774,-1.775774,3.336383,0.0000288355,-622.519584)"/>
<path style="fill-rule:nonzero;fill:rgb(89.803922%,4.313726%,52.156866%);fill-opacity:1;stroke-width:1.536277;stroke-linecap:round;stroke-linejoin:round;stroke:rgb(0%,0%,0%);stroke-opacity:1;stroke-miterlimit:4;" d="M 125.123508 159.551389 C 125.124232 166.587534 119.420641 172.290333 112.384496 172.291057 C 105.349264 172.291296 99.645066 166.587278 99.64574 159.55156 C 99.645502 152.516328 105.348607 146.812615 112.384752 146.811891 C 119.42047 146.812565 125.124182 152.515671 125.123508 159.551389 Z M 125.123508 159.551389 " transform="matrix(3.336383,1.775774,-1.775774,3.336383,0.0000288355,-622.519584)"/>
<path style="fill-rule:nonzero;fill:rgb(47.058824%,81.960785%,4.313726%);fill-opacity:1;stroke-width:1.536277;stroke-linecap:round;stroke-linejoin:round;stroke:rgb(0%,0%,0%);stroke-opacity:1;stroke-miterlimit:4;" d="M 192.444826 123.719941 C 192.44555 130.756086 186.741959 136.458886 179.705814 136.45961 C 172.670582 136.459848 166.966384 130.75583 166.967058 123.720112 C 166.96682 116.68488 172.669925 110.981168 179.706556 110.981356 C 186.741788 110.981118 192.4455 116.684223 192.444826 123.719941 Z M 192.444826 123.719941 " transform="matrix(3.336383,1.775774,-1.775774,3.336383,0.0000288355,-622.519584)"/>
<path style=" stroke:none;fill-rule:nonzero;fill:rgb(0%,0%,0%);fill-opacity:1;" d="M 235.832031 462.996094 L 246.835938 462.996094 L 246.835938 476.449219 L 258.375 462.996094 L 272.996094 462.996094 L 260.027344 476.425781 L 273.578125 498.601562 L 260.027344 498.601562 L 252.519531 483.957031 L 246.835938 489.90625 L 246.835938 498.601562 L 235.832031 498.601562 Z M 235.832031 462.996094 "/>
<path style=" stroke:none;fill-rule:nonzero;fill:rgb(0%,0%,0%);fill-opacity:1;" d="M 275.417969 462.996094 L 286.929688 462.996094 L 294.945312 488.621094 L 302.839844 462.996094 L 314.015625 462.996094 L 300.800781 498.601562 L 288.875 498.601562 Z M 275.417969 462.996094 "/>
<path style=" stroke:none;fill-rule:nonzero;fill:rgb(0%,0%,0%);fill-opacity:1;" d="M 319.15625 462.996094 L 333.632812 462.996094 L 339.21875 484.660156 L 344.78125 462.996094 L 359.210938 462.996094 L 359.210938 498.601562 L 350.222656 498.601562 L 350.222656 471.445312 L 343.25 498.601562 L 335.113281 498.601562 L 328.167969 471.445312 L 328.167969 498.601562 L 319.15625 498.601562 Z M 319.15625 462.996094 "/>
</g>
</svg>
