<svg width="546" height="154" viewBox="0 0 546 154" fill="none" xmlns="http://www.w3.org/2000/svg">
<path d="M118.83 50.6179V68.2118H89.4478L68.2118 46.9759L63.8133 42.5598L59.4148 38.1613L55.0163 42.5598L50.6179 46.9759L29.3819 68.2118H0V50.6179H38.1789L11.1898 23.6287L23.6287 11.1722L50.6179 38.1613V0H68.2118V38.1613L95.201 11.1722L107.64 23.6287L80.6508 50.6179H118.83Z" fill="white"/>
<path d="M107.64 95.2009L95.2009 107.64L68.2118 80.6507V118.83H50.6178V80.6507L23.6286 107.64L11.1897 95.2009L15.5882 90.8024L38.1788 68.2118L50.6178 55.7728L55.7552 50.6178L59.4148 46.9583L63.0743 50.6178L68.2118 55.7728L107.64 95.2009Z" fill="#D1FF10"/>
<path d="M118.83 136.125H0V153.718H118.83V136.125Z" fill="#D1FF10"/>
<path d="M172.738 4.97909C174.127 3.41323 178.737 0 185.845 0C199.78 0 209.562 10.5212 209.562 25.3881C209.562 40.255 200.694 50.8642 186.672 50.8642C179.283 50.8642 174.761 47.1694 173.758 45.973V66.9275H158.346V1.19639H172.738V4.97909ZM183.716 37.2816C189.997 37.2816 194.149 32.3905 194.149 25.2825C194.149 18.1746 189.909 13.477 183.716 13.477C177.066 13.477 173.283 18.8255 173.283 25.2825C173.283 32.9359 177.629 37.2816 183.716 37.2816Z" fill="white"/>
<path d="M239.841 0C255.447 0 266.426 10.6971 266.426 25.3881C266.426 40.0791 255.165 50.8642 239.841 50.8642C224.517 50.8642 213.538 40.1494 213.538 25.5816C213.538 11.0138 224.886 0 239.841 0ZM239.841 37.2816C246.21 37.2816 251.013 32.3025 251.013 25.3705C251.013 18.4385 246.122 13.565 239.841 13.565C233.56 13.565 228.95 18.4561 228.95 25.564C228.95 32.672 233.56 37.2816 239.841 37.2816Z" fill="white"/>
<path d="M306.856 22.2389L299.942 49.6503H282.594L269.012 1.19653H285.814L292.359 32.8481L299.66 1.19653H314.052L321.336 32.8481L327.881 1.19653H344.683L331.118 49.6503H313.771L306.856 22.2389Z" fill="white"/>
<path d="M363.157 29.4347C363.527 33.7804 367.679 37.4576 373.397 37.4576C379.115 37.4576 382.634 33.6749 383.549 32.2849L393.7 40.1318C392.311 42.9997 385.678 50.8466 373.115 50.8466C357.14 50.8466 347.358 39.8679 347.358 25.564C347.358 11.2601 356.964 0 371.18 0C386.592 0 394.985 9.87022 394.985 26.391C394.985 27.3058 394.985 28.3263 394.897 29.4347H363.14H363.157ZM363.615 19.6525H379.309C379.133 15.7818 376.265 12.4565 371.462 12.4565C366.377 12.4565 363.984 16.2392 363.615 19.6525Z" fill="white"/>
<path d="M429.047 15.6938C428.396 15.6059 427.657 15.5179 426.548 15.5179C419.071 15.5179 416.572 20.972 416.572 28.2559V49.6678H401.16V1.19639H416.203V7.65338C418.508 2.93819 423.029 0 429.029 0V15.6938H429.047Z" fill="white"/>
<path d="M457.812 30.0858C457.812 34.6075 460.487 37.0003 464.181 37.0003C468.422 37.0003 470.832 33.9565 470.832 30.0858V1.19653H486.244V49.6503H471.201V44.6712C469.354 47.539 465.114 50.8643 459.026 50.8643C443.896 50.8643 442.418 37.9503 442.418 28.0625V1.19653H457.83V30.0858H457.812Z" fill="#D1FF10"/>
<path d="M509.134 4.97909C510.524 3.41323 515.134 0 522.242 0C536.176 0 545.958 10.5212 545.958 25.3881C545.958 40.255 537.091 50.8642 523.068 50.8642C515.679 50.8642 511.157 47.1694 510.155 45.973V66.9275H494.742V1.19639H509.134V4.97909ZM520.113 37.2816C526.394 37.2816 530.546 32.3905 530.546 25.2825C530.546 18.1746 526.306 13.477 520.113 13.477C513.462 13.477 509.679 18.8255 509.679 25.2825C509.679 32.9359 514.025 37.2816 520.113 37.2816Z" fill="#D1FF10"/>
<path d="M172.738 92.0516C174.127 90.4857 178.737 87.0725 185.845 87.0725C199.78 87.0725 209.562 97.5937 209.562 112.461C209.562 127.328 200.694 137.937 186.672 137.937C179.283 137.937 174.761 134.242 173.758 133.046V154H158.346V88.2865H172.738V92.0692V92.0516ZM183.716 124.354C189.997 124.354 194.149 119.463 194.149 112.355C194.149 105.247 189.909 100.549 183.716 100.549C177.066 100.549 173.283 105.898 173.283 112.355C173.283 120.008 177.629 124.354 183.716 124.354Z" fill="white"/>
<path d="M243.905 102.766C243.254 102.678 242.515 102.59 241.407 102.59C233.929 102.59 231.431 108.045 231.431 115.328V136.74H216.019V88.2865H231.062V94.7435C233.366 90.0283 237.888 87.0901 243.888 87.0901V102.784L243.905 102.766Z" fill="white"/>
<path d="M249.078 77.0088C249.078 72.1176 252.773 68.6165 257.664 68.6165C262.555 68.6165 266.338 72.1176 266.338 77.0088C266.338 81.8999 262.555 85.3131 257.664 85.3131C252.773 85.3131 249.078 81.8119 249.078 77.0088ZM265.511 136.723H250.098V88.2689H265.511V136.723Z" fill="white"/>
<path d="M295.86 120.395L304.992 88.2688H321.055L304.71 136.723H286.799L270.191 88.2688H286.711L295.843 120.395H295.86Z" fill="white"/>
<path d="M342.115 105.617C346.355 105.617 349.68 106.637 351.44 107.376V105.617C351.44 102.661 349.047 100.356 344.05 100.356C339.81 100.356 335.658 101.552 331.875 103.4L326.157 93.0545C331.33 89.6412 337.875 87.0549 345.915 87.0549C362.629 87.0549 366.87 95.6408 366.87 106.707V136.705H353.111L352.284 134.031C349.786 136.529 346.285 137.902 341.306 137.902C331.805 137.902 323.307 132.183 323.307 121.662C323.307 111.968 330.696 105.599 342.132 105.599L342.115 105.617ZM345.247 126.114C348.941 126.114 351.704 124.354 351.704 121.134C351.704 117.915 348.836 115.962 345.141 115.962C341.446 115.962 338.684 117.985 338.684 121.134C338.684 124.284 341.64 126.114 345.229 126.114H345.247Z" fill="white"/>
<path d="M409.113 120.941L413.177 133.591C409.94 135.808 405.048 137.937 398.961 137.937C383.549 137.937 372.658 127.415 372.658 112.549C372.658 97.6817 383.918 87.0725 398.873 87.0725C405.154 87.0725 409.852 89.0958 413.265 91.5062L409.113 104.526C406.438 102.309 403.025 100.919 399.418 100.919C392.134 100.919 388.07 106.004 388.07 112.461C388.07 119.569 392.873 124.372 399.981 124.372C403.588 124.372 407.001 122.718 409.113 120.958V120.941Z" fill="white"/>
<path d="M441.609 153.243H427.023L433.568 135.157L415.481 88.2688H432.002L440.588 116.138L449.543 88.2688H465.607L441.609 153.243Z" fill="white"/>
</svg>
