<?xml version="1.0" encoding="UTF-8"?>
<svg width="30mm" height="30mm" version="1.1" viewBox="0 0 30 30" xml:space="preserve" xmlns="http://www.w3.org/2000/svg"><g id="SVGRepo_iconCarrier" transform="matrix(1.5789 0 0 1.5789 0 -1.5789)" fill="#860092" stroke-width="1.0001"><path d="m4 1v2h-2v2h-2v1h2v1h-2v1h2v1h-2v1h2v1h-2v1h2v1h-2v1h2v1h-2v1h2v2h2v2h1v-2h1v2h1v-2h1v2h1v-2h1v2h1v-2h1v2h1v-2h1v2h1v-2h2v-2h2v-1h-2v-1h2v-1h-2v-1h2v-1h-2v-1h2v-1h-2v-1h2v-1h-2v-1h2v-1h-2v-0.5l-1.5-1.5h-0.5v-2h-1v2h-1v-2h-1v2h-1v-2h-1v2h-1v-2h-1v2h-1v-2h-1v2h-1v-2zm-1 3h12l1 1v12h-13z" fill="#860092" stroke-width="1.0001"/></g><g fill="#860092" stroke-width=".26458px" aria-label="ppc 64"><path d="m12.366 11.772q0 1.9499-1.3505 1.9499-0.84749 0-1.1403-0.6339h-0.017225q0.01378 0.02756 0.01378 0.57189v1.4573h-0.62356v-4.4201q0-0.58567-0.020671-0.7717h0.60289q0.00345 0.01378 0.010335 0.10335 0.00689 0.08613 0.01378 0.25838 0.010335 0.16881 0.010335 0.25149h0.01378q0.17226-0.36174 0.43753-0.52365 0.26872-0.16537 0.69936-0.16537 0.68213 0 1.0163 0.47198 0.33417 0.46853 0.33417 1.4504zm-0.64079 0q0-0.77859-0.21015-1.1093-0.21015-0.33418-0.66146-0.33418-0.52021 0-0.75103 0.37896-0.23082 0.37552-0.23082 1.1403 0 0.7338 0.23082 1.0749 0.23082 0.34106 0.74414 0.34106 0.4582 0 0.66835-0.34796t0.21015-1.1438zm4.8748 0q0 1.9499-1.3505 1.9499-0.84749 0-1.1403-0.6339h-0.01723q0.01378 0.02756 0.01378 0.57189v1.4573h-0.62356v-4.4201q0-0.58567-0.02067-0.7717h0.60289q0.0034 0.01378 0.01034 0.10335 0.0069 0.08613 0.01378 0.25838 0.01034 0.16881 0.01034 0.25149h0.01378q0.17226-0.36174 0.43753-0.52365 0.26872-0.16537 0.69936-0.16537 0.68213 0 1.0163 0.47198 0.33417 0.46853 0.33417 1.4504zm-0.64079 0q0-0.77859-0.21015-1.1093-0.21015-0.33418-0.66146-0.33418-0.52021 0-0.75103 0.37896-0.23082 0.37552-0.23082 1.1403 0 0.7338 0.23082 1.0749t0.74414 0.34106q0.4582 0 0.66835-0.34796t0.21015-1.1438zm1.5675 0.01378q0-0.93018 0.44442-1.4297 0.44442-0.49954 1.285-0.49954 0.62701 0 1.0335 0.30317 0.40652 0.29972 0.50298 0.8096l-0.66146 0.04823q-0.05512-0.3135-0.27561-0.49265-0.22049-0.18259-0.62701-0.18259-0.54433 0-0.79926 0.33762-0.25149 0.33762-0.25149 1.0921 0 0.76481 0.25149 1.1197 0.25494 0.3514 0.79582 0.3514 0.37207 0 0.61667-0.18259t0.30317-0.55811l0.65457 0.04134q-0.04479 0.33073-0.25149 0.60289-0.20326 0.26872-0.54088 0.42375-0.33762 0.15158-0.75448 0.15158-0.84405 0-1.285-0.49609-0.44097-0.49609-0.44097-1.4401z"/><path d="m14.504 19.207q0 0.73036-0.4203 1.1679-0.41686 0.43753-1.1472 0.43753-0.81304 0-1.2506-0.59256-0.43753-0.596-0.43753-1.6881 0-1.1989 0.45475-1.8535 0.45475-0.65457 1.2816-0.65457 1.099 0 1.3849 0.98874l-0.59256 0.1068q-0.18259-0.59256-0.79926-0.59256-0.5271 0-0.81993 0.47887t-0.29283 1.3436q0.16881-0.3135 0.47542-0.47542 0.30661-0.16536 0.7028-0.16536 0.66146 0 1.0611 0.40997 0.39963 0.40652 0.39963 1.0886zm-0.63045 0.02756q0-0.49609-0.26527-0.7717-0.26183-0.27561-0.71314-0.27561-0.25494 0-0.48231 0.11713-0.22738 0.11369-0.35829 0.32039-0.12747 0.20326-0.12747 0.46164 0 0.52366 0.27561 0.87506 0.27905 0.3514 0.71314 0.3514 0.43753 0 0.69591-0.28939 0.26183-0.28939 0.26183-0.78893zm4.3167 0.40997v1.099h-0.62012v-1.099h-2.2531v-0.48231l2.1876-3.0661h0.68558v3.0592h0.64768v0.4892zm-0.62012-2.8767-1.7225 2.3875h1.7225z"/></g></svg>
