<?xml version="1.0" encoding="UTF-8"?>
<svg width="100mm" height="100mm" version="1.1" viewBox="0 0 100 100" xmlns="http://www.w3.org/2000/svg">
 <g>
  <title>RISC-V</title>
  <desc>Open-source CPU instruction set architecture</desc>
  <style type="text/css">.st0{fill:#F5B21B;}
	.st1{fill:#283272;}</style>
  <g transform="matrix(1.1618 0 0 1.1618 -7.1191 -2.858)" stroke-width=".26458">
   <path class="st0" d="m51.547 30.684c0 6.059-3.6777 11.536-10.821 12.832l10.081 11.906 0.89958-1.27 18.15-25.665v-10.821h-29.501c7.5142 0.74083 11.192 6.9585 11.192 13.018z"/>
   <path class="st1" d="m30.83 38.013h6.9585c5.1329 0 7.6994-3.6512 7.6994-7.329s-2.5665-7.1438-7.6994-7.1438h-9.525v35.745h17.78l-15.214-18.336zm25.85 19.42 13.388-18.706v20.532h-14.711z"/>
  </g>
  <g transform="translate(-1.8703 3.5535)">
   <g stroke-width=".091501">
    <rect class="st1" x="32.638" y="66.876" width="2.0954" height="9.8272"/>
    <path class="st1" d="m47.196 74.553-10.889-0.0092v2.1594h10.971c0.82351 0 1.5189-0.32025 2.0954-0.88756 0.56731-0.5673 0.88756-1.2719 0.88756-2.0954 0-0.82351-0.32025-1.5189-0.88756-2.0954-0.56731-0.56731-1.2719-0.88756-2.0954-0.88756l-7.9789-0.04574c-0.46665 0-0.85096-0.3843-0.85096-0.85096 0-0.4758 0.3843-0.85096 0.86011-0.85096l10.953-0.0092v-2.1045h-10.971c-0.82351 0-1.5189 0.32025-2.0954 0.88756-0.5673 0.56731-0.88756 1.2719-0.88756 2.0954 0 0.82351 0.32025 1.5189 0.88756 2.0954 0.5673 0.5673 1.2627 0.8235 2.0954 0.8235h7.9697c0.47581 0 0.86011 0.38431 0.85096 0.86011 0.0092 0.50325-0.4026 0.915-0.91501 0.915z"/>
    <path class="st1" d="m56.154 66.876h9.0677v2.0954h-9.0677c-0.75946 0-1.3908 0.24705-1.9673 0.8235-0.56731 0.56731-0.82351 1.2078-0.82351 1.9673 0 0.75945 0.2562 1.3908 0.82351 1.9673 0.57646 0.56731 1.2078 0.8235 1.9673 0.8235h9.0677v2.1594h-9.0586c-1.3268 0-2.4797-0.51241-3.4313-1.464-0.95161-0.95161-1.3908-2.0954-1.3908-3.4221 0-1.3268 0.4392-2.4705 1.3908-3.4221 0.95161-1.0157 2.0954-1.5281 3.4221-1.5281z"/>
    <path class="st1" d="m28.008 70.829-8.7475-0.01831v-1.7751l8.839-0.01831c0.4758 0 0.86011 0.3843 0.86926 0.8601-0.0091 0.52156-0.4392 0.95161-0.96076 0.95161zm3.111 5.8744-2.7908-3.8705c0.75946-0.06405 1.3908-0.32026 1.9032-0.88756 0.5673-0.57646 0.88756-1.2719 0.88756-2.0954 0-0.8235-0.32025-1.5189-0.88756-2.0954-0.56731-0.57646-1.2719-0.88756-2.0954-0.88756h-10.971v9.8272h2.0954v-3.8705h6.4691l2.7908 3.8705h2.5986z"/>
   </g>
   <polyline class="st0" transform="matrix(.091501 0 0 .091501 -2.9281 64.469)" points="859.1 133.7 796.3 26.3 823.2 26.3 872.3 111.5 921.3 26.3 947.8 26.3 885.4 133.7"/>
   <rect class="st0" x="66.494" y="70.874" width="4.1175" height="1.9032" stroke-width=".091501"/>
   <path class="st1" d="m87.822 68.44c0 0.85096-0.66795 1.5281-1.5464 1.5281-0.86011 0-1.5555-0.66796-1.5555-1.5281 0-0.83266 0.68626-1.5098 1.5555-1.5098 0.86926 0.0092 1.5464 0.6771 1.5464 1.5098zm-2.7176 0c0 0.66795 0.4941 1.2078 1.1804 1.2078 0.65881 0 1.1529-0.53071 1.1529-1.1987s-0.48495-1.217-1.1621-1.217c-0.67711 0.0091-1.1712 0.54901-1.1712 1.2078zm0.93331 0.79606h-0.3477v-1.5098c0.13725-0.02743 0.3294-0.04574 0.57646-0.04574 0.28365 0 0.41175 0.04574 0.52155 0.1098 0.08236 0.06405 0.1464 0.183 0.1464 0.3294 0 0.16471-0.1281 0.29281-0.3111 0.34771v0.02743c0.1464 0.05493 0.22875 0.1647 0.27451 0.366 0.04574 0.22875 0.0732 0.32025 0.1098 0.37515h-0.37515c-0.04574-0.05493-0.0732-0.19215-0.11896-0.366-0.02743-0.1647-0.11895-0.2379-0.3111-0.2379h-0.1647zm0.0092-0.8601h0.1647c0.19215 0 0.3477-0.06405 0.3477-0.21961 0-0.13725-0.10065-0.22875-0.32025-0.22875-0.0915 0-0.15555 0.0092-0.19215 0.01831z" stroke-width=".091501"/>
  </g>
  <path d="m93.333 16.667a3.3333 3.3333 0 0 0-0.97667-2.3567l-6.6667-6.6667a3.3333 3.3333 0 0 0-2.3567-0.97667h-3.3333v-6.6667h-6.6667v6.6667h-6.6667v-6.6667h-6.6667v6.6667h-6.6667v-6.6667h-6.6667v6.6667h-6.6667v-6.6667h-6.6667v6.6667h-6.6667v-6.6667h-6.6667v6.6667h-3.3333a3.3333 3.3333 0 0 0-2.3567 0.97667l-6.6667 6.6667a3.3333 3.3333 0 0 0-0.97667 2.3567v3.3333h-6.6667v6.6667h6.6667v6.6667h-6.6667v6.6667h6.6667v6.6667h-6.6667v6.6667h6.6667v6.6667h-6.6667v6.6667h6.6667v6.6667h-6.6667v6.6667h6.6667v3.3333a3.3333 3.3333 0 0 0 0.97667 2.3567l6.6667 6.6667a3.3333 3.3333 0 0 0 2.3567 0.97667h3.3333v6.6667h6.6667v-6.6667h6.6667v6.6667h6.6667v-6.6667h6.6667v6.6667h6.6667v-6.6667h6.6667v6.6667h6.6667v-6.6667h6.6667v6.6667h6.6667v-6.6667h3.3333a3.3333 3.3333 0 0 0 2.3567-0.97667l6.6667-6.6667a3.3333 3.3333 0 0 0 0.97667-2.3567v-3.3333h6.6667v-6.6667h-6.6667v-6.6667h6.6667v-6.6667h-6.6667v-6.6667h6.6667v-6.6667h-6.6667v-6.6667h6.6667v-6.6667h-6.6667v-6.6667h6.6667v-6.6667h-6.6667zm-6.6667 65.285-4.715 4.715h-63.903l-4.715-4.715v-63.903l4.715-4.715h63.903l4.715 4.715z" fill="#283272" stroke-width="1.6667"/>
 </g>
</svg>
