<?xml version="1.0" encoding="UTF-8"?>
<svg width="65mm" height="50mm" version="1.1" viewBox="0 0 65 50" xml:space="preserve" xmlns="http://www.w3.org/2000/svg"><g transform="matrix(1.0034 0 0 1.0048 -60.904 -30.976)"><g><g fill-rule="evenodd"><path d="m70.32 60.77 23.597 9.3427 30.757-30.149-24.258-7.5527z" fill="#a0d1e0"/><path d="m124.9 40.284-30.539 29.577-5.4673 3.9028 6.5673 5.7542 29.142-28.11c-3.3062-1.9837 0.2972-11.124 0.2972-11.124z" fill="#fff6d5" stroke="#0d355c" stroke-linecap="round" stroke-width=".5"/><path d="m66.582 59.118c-7.8552-0.37406-4.3291 8.2837-0.1447 9.4049l29.951 10.997-0.13021 0.08691c-3.3062-1.9837-3.8951-5.7696-2.1494-8.7933z" fill="#c8c4b7" stroke="#0d355c" stroke-linecap="round" stroke-width=".5"/><path d="m70.32 60.77 30.137-28.331s-6.3114-2.1159-7.3377-1.4967c-1.3593 0.61116-31.403 28.976-31.403 28.976 1.7288-2.303 8.6033 0.85144 8.6033 0.85144z" fill="#14599a"/></g><path d="m86.623 57.459c-3.1799-8.7302 5.676-18.899 15.571-17.88 9.9162 1.0214 9.5939 14.083-0.41802 16.942-6.8767 1.9638-11.352-4.4294-6.4595-9.2279 3.0954-2.8715 7.2253-0.74612 7.4352 0.43336-2.7546-0.8076-4.2445-1.7742-6.2619 0.98954-3.6858 5.0494 4.1872 8.2616 8.3992 3.4269 4.1696-4.786 1.1764-10.649-5.2585-10.3-10.794 0.58535-16.385 14.6-8.1143 20.339 0.81592 0.56618 0.8698 0.74873 0.11761 0.39847-2.3884-1.1122-4.2399-3.0045-5.0111-5.1217z" fill="#d70751" stroke-width=".41261"/></g><path d="m124.72 40.514-30.819 29.951s-25.83-11.141-27.781-11.141c-7.2473-0.5377-5.1006 7.4889-0.14469 9.4049l29.951 10.997 28.496-28.087" fill="none" stroke="#0d355c" stroke-linecap="round" stroke-width="1.5"/></g></svg>
