<?xml version="1.0" encoding="UTF-8" standalone="no"?>
<!-- Created with Inkscape (http://www.inkscape.org/) -->

<svg
   xmlns:dc="http://purl.org/dc/elements/1.1/"
   xmlns:cc="http://creativecommons.org/ns#"
   xmlns:rdf="http://www.w3.org/1999/02/22-rdf-syntax-ns#"
   xmlns:svg="http://www.w3.org/2000/svg"
   xmlns="http://www.w3.org/2000/svg"
   xmlns:sodipodi="http://sodipodi.sourceforge.net/DTD/sodipodi-0.dtd"
   xmlns:inkscape="http://www.inkscape.org/namespaces/inkscape"
   width="100"
   height="100"
   viewBox="0 0 26.458333 26.458332"
   version="1.1"
   id="svg17089"
   inkscape:version="0.92.4 (5da689c313, 2019-01-14)"
   sodipodi:docname="logo.svg">
  <defs
     id="defs17083">
    <inkscape:path-effect
       effect="bspline"
       id="path-effect17883"
       is_visible="true"
       weight="33.333333"
       steps="2"
       helper_size="0"
       apply_no_weight="true"
       apply_with_weight="true"
       only_selected="false" />
    <inkscape:path-effect
       effect="simplify"
       id="path-effect17881"
       is_visible="true"
       steps="1"
       threshold="0.000408163"
       smooth_angles="360"
       helper_size="0"
       simplify_individual_paths="false"
       simplify_just_coalesce="false"
       simplifyindividualpaths="false"
       simplifyJustCoalesce="false" />
    <inkscape:path-effect
       effect="bspline"
       id="path-effect17807"
       is_visible="true"
       weight="33.333333"
       steps="2"
       helper_size="0"
       apply_no_weight="true"
       apply_with_weight="true"
       only_selected="false" />
    <inkscape:path-effect
       effect="simplify"
       id="path-effect17805"
       is_visible="true"
       steps="1"
       threshold="0.000408163"
       smooth_angles="360"
       helper_size="0"
       simplify_individual_paths="false"
       simplify_just_coalesce="false"
       simplifyindividualpaths="false"
       simplifyJustCoalesce="false" />
    <inkscape:path-effect
       effect="bspline"
       id="path-effect17801"
       is_visible="true"
       weight="33.333333"
       steps="2"
       helper_size="0"
       apply_no_weight="true"
       apply_with_weight="true"
       only_selected="false" />
    <inkscape:path-effect
       effect="simplify"
       id="path-effect17799"
       is_visible="true"
       steps="1"
       threshold="0.000408163"
       smooth_angles="360"
       helper_size="0"
       simplify_individual_paths="false"
       simplify_just_coalesce="false"
       simplifyindividualpaths="false"
       simplifyJustCoalesce="false" />
    <inkscape:path-effect
       effect="bspline"
       id="path-effect17347"
       is_visible="true"
       weight="33.333333"
       steps="2"
       helper_size="0"
       apply_no_weight="true"
       apply_with_weight="true"
       only_selected="false" />
    <inkscape:path-effect
       effect="simplify"
       id="path-effect17345"
       is_visible="true"
       steps="1"
       threshold="0.000408163"
       smooth_angles="360"
       helper_size="0"
       simplify_individual_paths="false"
       simplify_just_coalesce="false"
       simplifyindividualpaths="false"
       simplifyJustCoalesce="false" />
    <inkscape:path-effect
       effect="bspline"
       id="path-effect17341"
       is_visible="true"
       weight="33.333333"
       steps="2"
       helper_size="0"
       apply_no_weight="true"
       apply_with_weight="true"
       only_selected="false" />
    <inkscape:path-effect
       effect="simplify"
       id="path-effect17339"
       is_visible="true"
       steps="1"
       threshold="0.000408163"
       smooth_angles="360"
       helper_size="0"
       simplify_individual_paths="false"
       simplify_just_coalesce="false"
       simplifyindividualpaths="false"
       simplifyJustCoalesce="false" />
    <inkscape:path-effect
       effect="bspline"
       id="path-effect17204"
       is_visible="true"
       weight="33.333333"
       steps="2"
       helper_size="0"
       apply_no_weight="true"
       apply_with_weight="true"
       only_selected="false" />
    <inkscape:path-effect
       effect="simplify"
       id="path-effect17202"
       is_visible="true"
       steps="1"
       threshold="0.000408163"
       smooth_angles="360"
       helper_size="0"
       simplify_individual_paths="false"
       simplify_just_coalesce="false"
       simplifyindividualpaths="false"
       simplifyJustCoalesce="false" />
    <inkscape:path-effect
       effect="bspline"
       id="path-effect17198"
       is_visible="true"
       weight="33.333333"
       steps="2"
       helper_size="0"
       apply_no_weight="true"
       apply_with_weight="true"
       only_selected="false" />
    <inkscape:path-effect
       effect="simplify"
       id="path-effect17196"
       is_visible="true"
       steps="1"
       threshold="0.000408163"
       smooth_angles="360"
       helper_size="0"
       simplify_individual_paths="false"
       simplify_just_coalesce="false"
       simplifyindividualpaths="false"
       simplifyJustCoalesce="false" />
    <inkscape:path-effect
       effect="bspline"
       id="path-effect17192"
       is_visible="true"
       weight="33.333333"
       steps="2"
       helper_size="0"
       apply_no_weight="true"
       apply_with_weight="true"
       only_selected="false" />
    <inkscape:path-effect
       effect="simplify"
       id="path-effect17190"
       is_visible="true"
       steps="1"
       threshold="0.000408163"
       smooth_angles="360"
       helper_size="0"
       simplify_individual_paths="false"
       simplify_just_coalesce="false"
       simplifyindividualpaths="false"
       simplifyJustCoalesce="false" />
    <inkscape:path-effect
       effect="bspline"
       id="path-effect17186"
       is_visible="true"
       weight="33.333333"
       steps="2"
       helper_size="0"
       apply_no_weight="true"
       apply_with_weight="true"
       only_selected="false" />
    <inkscape:path-effect
       effect="simplify"
       id="path-effect17184"
       is_visible="true"
       steps="1"
       threshold="0.000408163"
       smooth_angles="360"
       helper_size="0"
       simplify_individual_paths="false"
       simplify_just_coalesce="false"
       simplifyindividualpaths="false"
       simplifyJustCoalesce="false" />
    <inkscape:path-effect
       effect="bspline"
       id="path-effect17180"
       is_visible="true"
       weight="33.333333"
       steps="2"
       helper_size="0"
       apply_no_weight="true"
       apply_with_weight="true"
       only_selected="false" />
    <inkscape:path-effect
       effect="simplify"
       id="path-effect17178"
       is_visible="true"
       steps="1"
       threshold="0.000408163"
       smooth_angles="360"
       helper_size="0"
       simplify_individual_paths="false"
       simplify_just_coalesce="false"
       simplifyindividualpaths="false"
       simplifyJustCoalesce="false" />
    <inkscape:path-effect
       effect="bspline"
       id="path-effect17174"
       is_visible="true"
       weight="33.333333"
       steps="2"
       helper_size="0"
       apply_no_weight="true"
       apply_with_weight="true"
       only_selected="false" />
    <inkscape:path-effect
       effect="simplify"
       id="path-effect17172"
       is_visible="true"
       steps="1"
       threshold="0.000408163"
       smooth_angles="360"
       helper_size="0"
       simplify_individual_paths="false"
       simplify_just_coalesce="false"
       simplifyindividualpaths="false"
       simplifyJustCoalesce="false" />
    <inkscape:path-effect
       effect="bspline"
       id="path-effect17168"
       is_visible="true"
       weight="33.333333"
       steps="2"
       helper_size="0"
       apply_no_weight="true"
       apply_with_weight="true"
       only_selected="false" />
    <inkscape:path-effect
       effect="simplify"
       id="path-effect17166"
       is_visible="true"
       steps="1"
       threshold="0.000408163"
       smooth_angles="360"
       helper_size="0"
       simplify_individual_paths="false"
       simplify_just_coalesce="false"
       simplifyindividualpaths="false"
       simplifyJustCoalesce="false" />
    <inkscape:path-effect
       effect="bspline"
       id="path-effect17162"
       is_visible="true"
       weight="33.333333"
       steps="2"
       helper_size="0"
       apply_no_weight="true"
       apply_with_weight="true"
       only_selected="false" />
    <inkscape:path-effect
       effect="simplify"
       id="path-effect17160"
       is_visible="true"
       steps="1"
       threshold="0.000408163"
       smooth_angles="360"
       helper_size="0"
       simplify_individual_paths="false"
       simplify_just_coalesce="false"
       simplifyindividualpaths="false"
       simplifyJustCoalesce="false" />
  </defs>
  <sodipodi:namedview
     id="base"
     pagecolor="#ffffff"
     bordercolor="#666666"
     borderopacity="1.0"
     inkscape:pageopacity="0.0"
     inkscape:pageshadow="2"
     inkscape:zoom="6.6702128"
     inkscape:cx="101.7488"
     inkscape:cy="32"
     inkscape:document-units="mm"
     inkscape:current-layer="layer5"
     showgrid="false"
     inkscape:window-width="2558"
     inkscape:window-height="1438"
     inkscape:window-x="0"
     inkscape:window-y="0"
     inkscape:window-maximized="0"
     inkscape:snap-global="false"
     fit-margin-top="0"
     fit-margin-left="0"
     fit-margin-right="0"
     fit-margin-bottom="0"
     units="px" />
  <metadata
     id="metadata17086">
    <rdf:RDF>
      <cc:Work
         rdf:about="">
        <dc:format>image/svg+xml</dc:format>
        <dc:type
           rdf:resource="http://purl.org/dc/dcmitype/StillImage" />
        <dc:title></dc:title>
      </cc:Work>
    </rdf:RDF>
  </metadata>
  <g
     inkscape:groupmode="layer"
     id="layer5"
     inkscape:label="Sprocket">
    <path
       id="path905"
       d="m 23.004365,13.229169 a 9.7751831,9.7751831 0 0 1 -9.775184,9.775188 9.7751831,9.7751831 0 0 1 -9.7751818,-9.775188 9.7751831,9.7751831 0 0 1 9.7751818,-9.7751884 9.7751831,9.7751831 0 0 1 9.775184,9.7751884 z m -0.183982,-0.944004 1.524429,0.944004 -1.524429,0.944004 1.309784,1.224361 -1.67775,0.628613 1.046951,1.456531 -1.77193,0.289108 0.744689,1.63395 -1.793834,-0.06349 0.411773,1.747833 -1.747832,-0.411766 0.06349,1.793827 -1.633941,-0.74469 -0.289124,1.771931 -1.456523,-1.046944 -0.628613,1.677742 -1.224365,-1.309784 -0.944005,1.524429 -0.944006,-1.524429 -1.224363,1.309784 -0.628604,-1.677742 -1.4565358,1.046944 -0.289112,-1.771931 -1.633943,0.74469 0.06351,-1.793827 -1.747834,0.411766 0.411771,-1.747833 -1.793833,0.06349 0.744692,-1.63395 -1.771929,-0.289108 1.04695,-1.456531 -1.677749,-0.628613 1.309783,-1.224361 -1.524429,-0.944004 1.524429,-0.944004 -1.309783,-1.224369 1.677749,-0.628605 -1.04695,-1.4565314 1.771929,-0.289116 -0.744692,-1.6339415 1.793833,0.063494 -0.411771,-1.747841 1.747834,0.4117738 -0.06351,-1.7938347 1.633943,0.7446897 0.289112,-1.7719306 1.4565358,1.0469513 0.628604,-1.6777496 1.224363,1.3097922 0.944006,-1.5244375 0.944005,1.5244375 1.224365,-1.3097922 0.628613,1.6777496 1.456523,-1.0469513 0.289124,1.7719306 1.633941,-0.7446897 -0.06349,1.7938347 1.747832,-0.4117738 -0.411773,1.747841 1.793834,-0.063494 -0.744689,1.6339415 1.77193,0.289116 -1.046951,1.4565314 1.67775,0.628605 z"
       style="display:inline;fill:#cfffff;fill-opacity:1;fill-rule:nonzero;stroke:#cfffff;stroke-width:0.6570816;stroke-linecap:round;stroke-linejoin:round;stroke-opacity:1"
       inkscape:connector-curvature="0" />
  </g>
  <g
     inkscape:groupmode="layer"
     id="layer4"
     inkscape:label="Circle"
     style="display:none">
    <circle
       transform="translate(-56.482612,-155.87499)"
       r="11.44418"
       cy="169.10416"
       cx="69.711777"
       id="path882"
       style="display:inline;opacity:1;fill:#cfffff;fill-opacity:1;fill-rule:evenodd;stroke:none;stroke-width:1.22437918;stroke-linecap:round;stroke-linejoin:round;stroke-miterlimit:4;stroke-dasharray:none;stroke-dashoffset:0;stroke-opacity:1" />
  </g>
  <g
     inkscape:label="Dove"
     inkscape:groupmode="layer"
     id="layer1"
     transform="translate(-56.482612,-155.87499)"
     style="display:inline">
    <g
       transform="matrix(0.29618531,0,0,0.29618531,39.753292,127.66403)"
       id="g880">
      <path
         sodipodi:nodetypes="ccccccccccccccccccc"
         inkscape:connector-curvature="0"
         id="path1735"
         d="m 73.912444,180.7767 -0.304705,-22.58832 -0.03207,-0.0794 15.828662,-17.21187 -31.569119,-10.76012 14.698043,-2.82174 -13.038199,-4.71973 26.749957,-4.7919 9.237395,-0.0577 6.174292,1.15467 5.92573,2.09285 12.88584,-12.35502 7.43322,-6.02595 13.36696,-4.24343 0.72167,-0.519604 1.29901,2.287694 1.13864,4.74139 0.68158,2.83617 -6.55118,-5.48471 -1.6839,4.12795 -1.85229,4.64035 -2.06077,9.48998 -0.60139,16.64175 -31.99411,15.4582 -11.033551,6.48783 -0.02406,5.60738 -8.932689,7.72911 z"
         style="fill:#ffffff;fill-opacity:1;fill-rule:evenodd;stroke:none;stroke-width:0.26458332px;stroke-linecap:butt;stroke-linejoin:miter;stroke-opacity:1" />
      <path
         sodipodi:nodetypes="cccccccccccccccccccccccccccccc"
         inkscape:connector-curvature="0"
         d="m 132.51345,136.98069 c 0.0634,-13.29151 0.22096,-27.7047 8.99982,-38.862716 -4.54334,1.554738 -8.82186,2.768266 -13.47978,4.257106 -10.3478,7.47142 -16.84545,15.69597 -25.15784,23.69933 z m -43.887887,3.6721 c -10.682484,-3.58057 -21.364966,-7.16116 -32.04745,-10.74172 13.89639,-1.53904 27.518102,-6.17969 41.745877,-4.89762 7.45545,1.46359 30.54062,10.71794 33.51121,12.00019 -9.28193,3.23986 -31.942827,1.42265 -43.209637,3.63915 z m 0.783102,18.49729 c 12.720285,-8.61316 29.254945,-14.58682 43.242105,-22.00917 -14.57383,3.06433 -31.5429,1.26196 -43.83628,3.52478 1.173126,6.8516 0.858782,12.65402 0.594175,18.48439 z m 49.324605,-56.68732 c 2.02389,2.03573 4.48705,3.99853 6.80985,5.71669 -1.86081,-3.79638 -1.32902,-7.75901 -3.37764,-10.312727 -1.85289,0.89187 -2.48662,3.165797 -3.43221,4.596037 z m -67.041643,24.87416 c -4.429106,-1.59386 -8.858215,-3.18771 -13.281914,-4.7694 12.595713,-1.52688 24.937154,-6.16752 37.827694,-4.88545 4.034813,0.70088 7.927833,1.83787 11.730263,3.10804 l -5.18599,5.32488 c -6.973994,-2.88246 -20.604843,-0.54476 -31.090053,1.22193 z m 17.705827,31.99061 c -0.02096,1.86076 0.04329,3.72393 -0.08882,5.58227 -6.085935,4.64488 -11.645081,10.05134 -15.535797,16.49831 -0.783634,-7.65678 -1.063646,-15.11758 -0.350028,-23.35074 4.603916,-6.18697 9.23259,-12.21547 15.364858,-17.17202 0.925461,6.19387 1.106906,12.20784 0.60979,18.44218 z"
         style="fill:#ffffff;fill-opacity:1;fill-rule:evenodd;stroke:#000000;stroke-width:0.60100001;stroke-linecap:butt;stroke-linejoin:miter;stroke-miterlimit:4;stroke-dasharray:none;stroke-opacity:1"
         id="path1017" />
    </g>
  </g>
</svg>
