<?xml version="1.0" encoding="UTF-8"?>
<svg width="95.957mm" height="45.856mm" version="1.1" viewBox="0 0 95.957 45.856" xmlns="http://www.w3.org/2000/svg">
 <g id="SVGRepo_iconCarrier" transform="matrix(.11195 0 0 .11195 38.636 -5.732)">
  <g transform="translate(0,1)">
   <path d="m422.4 144.07c0-18.773-13.653-34.133-29.867-34.133h-107.52l-37.547-51.2h-165.55c-11.947 0-22.187 11.947-22.187 25.6v59.733z" fill="#ffa800"/>
   <path d="m426.67 109.93h-34.133c16.213 0 29.867 15.36 29.867 34.133h38.4c-1e-3 -18.773-15.361-34.133-34.134-34.133" fill="#f80"/>
   <path d="m81.92 58.733h-22.187c-14.507 0-25.6 11.947-25.6 25.6v59.733h25.6v-59.733c0-13.653 10.24-25.6 22.187-25.6" fill="#fff"/>
   <path d="m34.133 169.67v256c0 14.507 10.24 25.6 23.04 25.6h397.65c12.8 0 23.04-11.093 23.04-25.6v-256c0-14.507-10.24-25.6-23.04-25.6h-397.65c-12.8 0-23.04 11.946-23.04 25.6" fill="#ffe100"/>
   <path d="m34.133 425.67v-256c0-14.507 10.24-25.6 23.04-25.6h-23.04c-14.507 0-25.6 11.093-25.6 25.6v256c0 14.507 11.093 25.6 25.6 25.6h23.04c-12.8 0-23.04-11.094-23.04-25.6" fill="#fff"/>
   <path d="m477.87 144.07h-23.04c12.8 0 23.04 11.093 23.04 25.6v256c0 14.507-10.24 25.6-23.04 25.6h23.04c14.507 0 25.6-11.093 25.6-25.6v-256c0-13.654-11.094-25.6-25.6-25.6" fill="#ffa800"/>
   <path d="m477.87 459.8h-443.73c-18.773 0-34.133-15.36-34.133-34.133v-51.2c0-5.12 3.413-8.533 8.533-8.533s8.533 3.413 8.533 8.533v51.2c0 9.387 7.68 17.067 17.067 17.067h443.73c9.387 0 17.067-7.68 17.067-17.067v-256c0-9.387-7.68-17.067-17.067-17.067h-443.73c-9.387 0-17.067 7.68-17.067 17.067v136.53c0 5.12-3.413 8.533-8.533 8.533s-8.533-3.413-8.533-8.533v-136.53c0-18.773 15.36-34.133 34.133-34.133h443.73c18.773 0 34.133 15.36 34.133 34.133v256c1e-3 18.773-15.359 34.133-34.132 34.133z"/>
   <path d="m17.067 340.33c0-5.12-3.413-8.533-8.533-8.533s-8.534 3.413-8.534 8.533 3.413 8.533 8.533 8.533 8.534-3.413 8.534-8.533"/>
   <g fill="#00da6c">
    <path d="m187.73 374.47c0-18.773-15.36-34.133-34.133-34.133s-34.133 15.36-34.133 34.133 15.36 34.133 34.133 34.133 34.133-15.36 34.133-34.133"/>
    <path d="m298.67 374.47c0-18.773-15.36-34.133-34.133-34.133s-34.133 15.36-34.133 34.133 15.36 34.133 34.133 34.133 34.133-15.36 34.133-34.133"/>
    <path d="m409.6 374.47c0-18.773-15.36-34.133-34.133-34.133s-34.133 15.36-34.133 34.133 15.36 34.133 34.133 34.133 34.133-15.36 34.133-34.133"/>
    <path d="m298.67 220.87c0-18.773-15.36-34.133-34.133-34.133s-34.133 15.36-34.133 34.133 15.359 34.133 34.132 34.133 34.134-15.36 34.134-34.133"/>
   </g>
   <path d="m460.8 152.6h-426.67c-5.12 0-8.533-3.413-8.533-8.533v-59.734c0-18.773 15.36-34.133 34.133-34.133h187.73c2.56 0 5.12 0.853 6.827 3.413l40.107 47.787h132.27c23.893 0 42.667 18.773 42.667 42.667-1e-3 5.12-3.414 8.533-8.534 8.533zm-418.13-17.067h407.89c-3.413-10.24-12.8-17.067-23.893-17.067h-136.53c-2.56 0-5.12-0.853-6.827-3.413l-40.106-47.786h-183.47c-9.387 0-17.067 7.68-17.067 17.067v51.199z"/>
   <path d="m264.53 263.53c-23.893 0-42.667-18.773-42.667-42.667s18.774-42.666 42.667-42.666 42.667 18.773 42.667 42.667-18.773 42.666-42.667 42.666zm0-68.266c-14.507 0-25.6 11.093-25.6 25.6s11.093 25.6 25.6 25.6 25.6-11.093 25.6-25.6-11.093-25.6-25.6-25.6z"/>
   <path d="m264.53 417.13c-23.893 0-42.667-18.773-42.667-42.667 0-23.893 18.773-42.667 42.667-42.667 23.893 0 42.667 18.773 42.667 42.667s-18.773 42.667-42.667 42.667zm0-68.266c-14.507 0-25.6 11.093-25.6 25.6s11.093 25.6 25.6 25.6 25.6-11.093 25.6-25.6-11.093-25.6-25.6-25.6z"/>
   <path d="m153.6 417.13c-23.893 0-42.667-18.773-42.667-42.667 0-23.893 18.773-42.667 42.667-42.667s42.667 18.773 42.667 42.667-18.774 42.667-42.667 42.667zm0-68.266c-14.507 0-25.6 11.093-25.6 25.6s11.093 25.6 25.6 25.6 25.6-11.093 25.6-25.6-11.093-25.6-25.6-25.6z"/>
   <path d="m375.47 417.13c-23.893 0-42.667-18.773-42.667-42.667 0-23.893 18.773-42.667 42.667-42.667 23.893 0 42.667 18.773 42.667 42.667-1e-3 23.894-18.774 42.667-42.667 42.667zm0-68.266c-14.507 0-25.6 11.093-25.6 25.6s11.093 25.6 25.6 25.6 25.6-11.093 25.6-25.6-11.094-25.6-25.6-25.6z"/>
   <path d="m264.53 348.87c-5.12 0-8.533-3.413-8.533-8.533v-85.334c0-5.12 3.413-8.533 8.533-8.533s8.533 3.413 8.533 8.533v85.333c1e-3 5.12-3.413 8.534-8.533 8.534z"/>
   <path d="m375.47 348.87c-5.12 0-8.533-3.413-8.533-8.533v-42.667h-204.8v42.667c0 5.12-3.413 8.533-8.533 8.533s-8.533-3.413-8.533-8.533v-51.2c0-5.12 3.413-8.533 8.533-8.533h221.87c5.12 0 8.533 3.413 8.533 8.533v51.2c-1e-3 5.119-3.414 8.533-8.534 8.533z"/>
  </g>
 </g>
 <g transform="matrix(1.8622 0 0 1.8622 -5.5865 1.1692)">
  <g transform="translate(0,-1028.4)">
   <path d="m3 1031.4v10c0 4.2 3.6322 8 9 10 5.368-2 9-5.8 9-10v-10z" fill="#95a5a6"/>
   <path d="m3 1030.4v10c0 4.2 3.6322 8 9 10 5.368-2 9-5.8 9-10v-10z" fill="#ecf0f1"/>
   <path d="m3 1030.4v10c0 4.2 3.6322 8 9 10v-20z" fill="#bdc3c7"/>
   <path d="m5 1032.4v8c0 3.4 2.8251 6.4 7 8 4.175-1.6 7-4.6 7-8v-8z" fill="#27ae60"/>
   <path d="m12 1032.4v16c4.175-1.6 7-4.6 7-8v-8z" fill="#2ecc71"/>
   <path d="m16 1037.4-4.683 4.6-1.9511-1.9-1.6586 1.7 1.9512 1.9 1.5615 1.6 0.097 0.1 6.342-6.4z" fill="#27ae60"/>
   <path d="m16 1036.4-4.683 4.6-1.9511-1.9-1.6586 1.7 1.9512 1.9 1.5615 1.6 0.097 0.1 6.342-6.4z" fill="#ecf0f1"/>
  </g>
 </g>
</svg>
