<?xml version="1.0" encoding="UTF-8"?>
<svg width="78.261mm" height="81.849mm" version="1.1" viewBox="0 0 78.261 81.849" xmlns="http://www.w3.org/2000/svg">
 <g transform="translate(-44.558 -11.25)">
  <g id="SVGRepo_iconCarrier" transform="matrix(.14408 .22191 -.22191 .14408 64.868 59.918)" fill="#4a5e9b">
   <g fill="#4a5e9b">
    <path d="m93.824 54.521c-7.3494-5.0441-17.212-3.6961-22.973 2.8374l-7.5742-5.1567 17.521-25.187c6.1547-8.8467 3.9784-21.007-4.8627-27.169l-28.777 41.387-40.717-27.71c-2.9246 4.2603-4.0322 9.511-3.0793 14.589 0.95289 5.0784 3.8887 9.5699 8.1597 12.48l24.479 16.689-5.3954 7.759c-7.6936-4.0829-17.4-1.8638-22.497 5.4494-5.51 7.8998-3.5995 18.786 4.3021 24.294 7.9026 5.5085 18.775 3.5353 24.282-4.3671l15.413-22.157 21.999 14.994c7.941 5.4517 18.812 3.4646 24.263-4.4794 5.4513-7.943 3.3977-18.8-4.5455-24.252zm-65.976 29.726c-2.0776 2.9787-6.1889 3.7117-9.1682 1.6362-2.9784-2.0757-3.7118-6.1898-1.635-9.1674 2.0768-2.9776 6.1887-3.7126 9.167-1.637 2.9787 2.0776 3.7126 6.1887 1.6362 9.1682zm23.135-22.93c-3.5968 0.65544-7.0451-1.729-7.7007-5.3267-0.65544-3.5968 1.729-7.0451 5.3267-7.7007s7.0451 1.729 7.7007 5.3267-1.73 7.0453-5.3267 7.7007zm38.382 11.341c-2.0567 2.9932-6.161 3.7584-9.1562 1.7021-2.9932-2.0567-3.7574-6.1612-1.7021-9.1562 2.0557-2.993 6.1616-3.7555 9.1552-1.7019 2.9932 2.0567 3.757 6.1643 1.7031 9.156z" fill="#4a5e9b"/>
   </g>
  </g>
  <g transform="matrix(.066763 0 0 .066763 88.636 56.477)">
   <rect transform="matrix(-.7071 -.7071 .7071 -.7071 251.8 619.77)" x="224.24" y="84.672" width="60.049" height="346.13" fill="#d7d5d9"/>
   <path d="m301.18 253.28-47.095 47.095c-8.99 8.99-8.99 23.701 0 32.692l153.56 153.56c8.99 8.99 23.702 8.99 32.692 0l47.095-47.095c8.99-8.99 8.99-23.701 0-32.692l-153.56-153.56c-8.99-8.99-23.701-8.99-32.692 0z" fill="#ff3f62"/>
   <polygon points="82.211 19.389 20.989 80.611 57.004 116.63 72.013 101.62 227.02 257.43 257.43 227.02 102.43 71.203 118.23 55.404" fill="#d7d5d9"/>
   <g fill="#3e3b43">
    <rect transform="matrix(-.7071 -.7071 .7071 -.7071 501.62 516.3)" x="327.72" y="127.53" width="60.049" height="53.456" enable-background="new" opacity=".3"/>
    <rect transform="matrix(-.7071 -.7071 .7071 -.7071 21.903 715.02)" x="129.01" y="331.18" width="60.049" height="43.584" enable-background="new" opacity=".3"/>
   </g>
   <g fill="#77757e">
    <path d="m488.28 74.56-50.32 50.32-50.837-50.835 50.32-50.32-12.132-12.132c-15.457-15.457-40.519-15.457-55.976 0l-44.664 44.664c-15.457 15.457-15.457 40.519 0 55.976l75.099 75.099c15.457 15.457 40.519 15.457 55.976 0l44.665-44.665c15.457-15.457 15.457-40.519 0-55.976z"/>
    <path d="m23.725 437.44 50.32-50.32 50.836 50.836-50.32 50.32 12.132 12.132c15.457 15.457 40.519 15.457 55.976 0l44.665-44.665c15.457-15.457 15.457-40.519 0-55.976l-75.099-75.099c-15.457-15.457-40.519-15.457-55.976 0l-44.665 44.665c-15.457 15.457-15.457 40.519 0 55.976z"/>
   </g>
   <path d="m301.18 253.28-47.095 47.095c-8.99 8.99-8.99 23.701 0 32.692l16.919 16.919 79.787-79.787-16.919-16.919c-8.99-8.99-23.701-8.99-32.692 0z" fill="#c70024"/>
   <g fill="#3e3b43">
    <rect transform="matrix(-.7071 .7071 -.7071 -.7071 551.43 228.51)" x="207.02" y="220.11" width="42.748" height="16.708" enable-background="new" opacity=".3"/>
    <rect transform="matrix(-.7071 .7071 -.7071 -.7071 155.3 62.108)" x="21.519" y="44.57" width="86.538" height="37.297" enable-background="new" opacity=".07"/>
   </g>
   <path d="m427.61 441.54-105.01-105.01c-4.069-4.069-4.069-10.668 0-14.738 4.069-4.069 10.668-4.069 14.738 0l105.01 105.01c4.069 4.069 4.069 10.668 0 14.738-4.069 4.069-10.668 4.069-14.738-1e-3z" fill="#ff728b"/>
  </g>
  <g transform="matrix(.12688 0 0 .12688 37.579 6.0492)" fill="none" stroke="#008000" stroke-linecap="round" stroke-linejoin="round" stroke-opacity=".9" stroke-width="16">
   <path d="m63 349c6.3441-16.598 49.606-95.895 95.059-95.895 9.124 0 4.619 45.895 45.401 45.895 24.364 0 35.639-50 45.53-50 29.656 0 69.673 50 88.01 100"/>
   <path d="m123.71 142.48c28.777-111.54 51.488-30.308 103.88-47.783 17.211-5.741 25.099-24.98 37.698-9.2208 3.413 4.2689 17.648 42.175 18.429 41.916 13.566-4.526-9.064-46.721-12.567-51.976-19.579-29.391-168.75-62.05-154.14 69.578"/>
   <path d="m114.08 152.74c-8.862 1.017-12.075 5.904-12.075 13.66 0 5.171 5.854 9.443 17.563 12.817 13.22 80.769 150.02 80.769 158.24-6.507 10.795-6.086 16.193-10.482 16.193-13.189 0-4.974-1.964-8.48-12.138-11.517"/>
   <path d="m215 205c-10.777 3.38-18.834 1.846-29 0"/>
   <path d="m212 164v-8"/>
   <path d="m186 164v-8"/>
  </g>
  <path d="m66.847 72.635 54.693-55.851" fill="none" stroke="#4a5e9b" stroke-dasharray="8, 2" stroke-width="2"/>
 </g>
</svg>
