<?xml version="1.0" encoding="UTF-8"?>
<svg enable-background="new 0 0 321 321" version="1.1" viewBox="0 0 5669.3 1337" xml:space="preserve" xmlns="http://www.w3.org/2000/svg" xmlns:cc="http://creativecommons.org/ns#" xmlns:dc="http://purl.org/dc/elements/1.1/" xmlns:rdf="http://www.w3.org/1999/02/22-rdf-syntax-ns#" xmlns:xlink="http://www.w3.org/1999/xlink"><metadata><rdf:RDF><cc:Work rdf:about=""><dc:format>image/svg+xml</dc:format><dc:type rdf:resource="http://purl.org/dc/dcmitype/StillImage"/></cc:Work></rdf:RDF></metadata><defs><radialGradient id="a" cx="250.34" cy="1008" r="26.421" gradientTransform="matrix(15.256 -.17599 .20955 18.165 -1220.3 -17395)" gradientUnits="userSpaceOnUse"><stop stop-color="#7ecff3" stop-opacity=".98039" offset="0"/><stop stop-color="#87d0ef" stop-opacity=".98824" offset=".66885"/><stop stop-color="#0c84ce" offset="1"/></radialGradient></defs>
					
					
						
					








<g transform="matrix(17.828 0 0 17.828 -1466.4 -20665)" stroke-width="5.9885px" aria-label="whonix"><path d="m82.411 1183.6h16.289l3.641 20.121q0.57489 3.641 0.95815 7.282 0.38326 3.5452 0.95815 7.282h0.38327q0.57489-3.7368 1.1498-7.3778 0.67071-3.7368 1.533-7.1862l4.4075-20.121h13.989l4.5991 20.121q0.86233 3.641 1.4372 7.282 0.6707 3.5452 1.4372 7.282h0.38326q0.57489-3.7368 0.95815-7.282 0.38326-3.641 0.95815-7.282l3.641-20.121h15.139l-10.923 47.908h-19.163l-3.4494-16.672q-0.5749-3.3535-1.1498-6.7071-0.57489-3.3535-1.1498-7.3777h-0.38326q-0.57489 4.0242-1.054 7.3777-0.47908 3.3536-1.054 6.7071l-3.2577 16.672h-18.78z"/><path d="m162.13 1164.9h16.48v15.522l-0.76652 8.2401q2.4912-2.2037 5.9406-4.12 3.5452-2.0122 8.4318-2.0122 7.8568 0 11.402 5.3657 3.5452 5.2698 3.5452 14.181v29.511h-16.48v-27.403q0-4.5991-1.1498-6.1322-1.1498-1.533-3.641-1.533-2.2996 0-3.8326 0.9581-1.533 0.9582-3.4494 2.6829v31.427h-16.48z"/><path d="m271.55 1183.6h13.414l1.1498 5.7489h0.38327q2.8745-2.7786 6.5154-4.7907 3.7368-2.108 8.6234-2.108 7.8569 0 11.402 5.3657 3.5452 5.2698 3.5452 14.181v29.511h-16.48v-27.403q0-4.5991-1.1498-6.1322-1.1498-1.533-3.641-1.533-2.2996 0-3.8326 0.9581-1.533 0.9582-3.4494 2.6829v31.427h-16.48z"/><path d="m327.31 1183.6h16.48v47.908h-16.48z"/><path d="m365.07 1206.6-13.606-22.996h17.63l3.4494 6.7071q0.95815 2.0121 1.9163 4.1201 0.95816 2.1079 1.9163 4.12h0.38326q0.67071-2.0121 1.4372-4.12 0.76652-2.108 1.4372-4.1201l2.2996-6.7071h17.055l-13.606 24.912 14.372 22.996h-17.63l-3.8326-6.7071q-1.054-2.0121-2.1079-4.12-1.054-2.108-2.1079-4.1201h-0.38326q-0.76652 2.0121-1.6289 4.1201-0.86234 2.0121-1.6289 4.12l-2.6828 6.7071h-17.055z"/></g><path d="m2796.4 96.051c-165.42 0-303.98 131.92-303.98 297.37v145.62a453.2 453.2 0 0 0-137.12 324.74 453.2 453.2 0 0 0 453.22 453.19 453.2 453.2 0 0 0 453.19-453.19 453.2 453.2 0 0 0-143.43-330.03v-140.33c0-165.45-131.46-297.37-296.88-297.37zm-1.9499 106.97h8.3569c101.85 0 181.76 83.393 181.76 185.24v57.941a453.2 453.2 0 0 0-176.05-35.62 453.2 453.2 0 0 0-198.41 46.102v-68.422c0-101.85 82.488-185.24 184.34-185.24z" fill="url(#a)" stroke="#000" stroke-width="35.656"/><path d="m2597.1 799.69c2.581-135.49 45.164-232.27 78.714-232.27 41.292 0 100.65 56.777 141.94 56.777 25.807 0 83.875-41.292 129.04-41.292 23.227 0 60.533 73.569 61.823 197.45-162.83 9.3294-271.02 72.758-411.52 19.338z" fill-rule="evenodd"/><path d="m2757.3 939.37c25.021-15.327 65.881-14.312 88.033-1.7471l0.3619 18.245c-23.297-12.768-64.121-11.957-88.033 1.7471z" fill-rule="evenodd"/><path d="m2880.2 1105.5s-7.5006 28.165-70.314 30.379c-69.704 3.2697-78.377-23.487-78.377-23.487" fill="none" stroke="#000" stroke-linecap="round" stroke-linejoin="round" stroke-width="35.656"/><path d="m2474.2 817.5c1.2338-49.382 205.4 37.541 268.45 29.336 98.276-7.1045 368.56-91.062 382.14-28.102 9.876 55.556-75.909 11.92-235.52 36.207 0 0-415.08 45.274-415.08-37.441z" fill-rule="evenodd"/><path d="m2587.4 942.67c20.394-29.641 112.88-38.772 180-9.3669 0 0 10.075 29.962-2.6139 49.122-10.437 31.616-106.57 63.969-162.32 27.744-21.165-17.614-24.225-41.331-15.066-67.499z" fill-rule="evenodd"/><path d="m3014.1 922.05c-23.92-26.876-116.82-24.444-179.77 13.077 0 0-6.2728 30.982 8.6983 48.414 14.286 30.076 113.7 50.229 164.51 7.3577 18.812-20.11 18.9-44.023 6.5609-68.849z" fill-rule="evenodd"/><circle cx="4515.2" cy="178.87" r="156.38" fill="#d8e620" stroke="#000" stroke-linecap="round" stroke-linejoin="round" stroke-width="30.739" style="paint-order:fill markers stroke"/>
</svg>
